{
.appVersion = "3151";
.formatVersion = 3;
DisplayStrings = (
"~"
);
customParameters = (
{
name = vendorID;
value = PfEd;
},
{
name = panose;
value = (
2,
11,
7,
9,
3,
3,
4,
11,
2,
4
);
},
{
name = unicodeRanges;
value = (
0,
1,
2,
3,
4,
5,
6,
7,
9,
10,
24,
25,
26,
29,
30,
31,
32,
33,
35,
36,
37,
38,
39,
40,
43,
44,
45,
46,
57,
60,
62,
69,
89
);
},
{
name = codePageRanges;
value = (
"1252",
"1250",
"1251",
"1253",
"1254",
"1257",
"1258",
"bit 29",
"bit 30",
"869",
"866",
"865",
"863",
"861",
"860",
"857",
"855",
"852",
"775",
"737",
"850",
"437"
);
},
{
name = fsType;
value = (
);
},
{
name = glyphOrder;
value = (
.notdef,
.null,
CR,
space,
exclam,
quotedbl,
numbersign,
dollar,
percent,
ampersand,
quotesingle,
parenleft,
parenright,
asterisk,
plus,
comma,
hyphen,
period,
slash,
zero,
one,
two,
three,
four,
five,
six,
seven,
eight,
nine,
colon,
semicolon,
less,
equal,
greater,
question,
at,
A,
B,
C,
D,
E,
F,
G,
H,
I,
J,
K,
L,
M,
N,
O,
P,
Q,
R,
S,
T,
U,
V,
W,
X,
Y,
Z,
bracketleft,
backslash,
bracketright,
asciicircum,
underscore,
grave,
a,
b,
c,
d,
e,
f,
g,
h,
i,
j,
k,
l,
m,
n,
o,
p,
q,
r,
s,
t,
u,
v,
w,
x,
y,
z,
braceleft,
bar,
braceright,
asciitilde,
nonbreakingspace,
exclamdown,
cent,
sterling,
currency,
yen,
brokenbar,
section,
dieresis,
copyright,
ordfeminine,
guillemotleft,
logicalnot,
sfthyphen,
registered,
macron,
degree,
plusminus,
twosuperior,
threesuperior,
acute,
mu,
paragraph,
periodcentered,
cedilla,
onesuperior,
ordmasculine,
guillemotright,
onequarter,
onehalf,
threequarters,
questiondown,
Agrave,
Aacute,
Acircumflex,
Atilde,
Adieresis,
Aring,
AE,
Ccedilla,
Egrave,
Eacute,
Ecircumflex,
Edieresis,
Igrave,
Iacute,
Icircumflex,
Idieresis,
Eth,
Ntilde,
Ograve,
Oacute,
Ocircumflex,
Otilde,
Odieresis,
multiply,
Oslash,
Ugrave,
Uacute,
Ucircumflex,
Udieresis,
Yacute,
Thorn,
germandbls,
agrave,
aacute,
acircumflex,
atilde,
adieresis,
aring,
ae,
ccedilla,
egrave,
eacute,
ecircumflex,
edieresis,
igrave,
iacute,
icircumflex,
idieresis,
eth,
ntilde,
ograve,

glyphs = (
{
glyphname = .notdef;
layers = (
{
layerId = m01;
shapes = (
{
closed = 1;
nodes = (
(1128,1444,l),
(104,1444,l),
(104,-362,l),
(1128,-362,l)
);
},
{
closed = 1;
nodes = (
(1014,1329,l),
(1014,-248,l),
(219,-248,l),
(219,1329,l)
);
}
);
userData = {
assembly = "NPUSHB[ ]	/* 12 values pushed */
4 152 0 6 152 1 8 5 55 2 4 0 
MDAP[1]	/* MoveDirectAbsPt */
MDRP[00100]	/* MoveDirectRelPt */
MDRP[10100]	/* MoveDirectRelPt */
MIRP[01100]	/* MoveIndirectRelPt */
IUP[1]	/* InterpolateUntPts */
SVTCA[0]	/* SetFreedomAndProjectionVectorToAxis */
SRP0[ ]	/* SetRefPoint0 */
MDRP[10100]	/* MoveDirectRelPt */
MIRP[01100]	/* MoveIndirectRelPt */
MDRP[10100]	/* MoveDirectRelPt */
MIRP[01100]	/* MoveIndirectRelPt */
IUP[0]	/* InterpolateUntPts */";
};
width = 1233;
}
);
note = ".notdef";
},
{
glyphname = exclam;
layers = (
{
layerId = m01;
shapes = (
{
closed = 1;
nodes = (
(604,0,l),
(659,283,l),
(393,283,l),
(338,0,l)
);
},
{
closed = 1;
nodes = (
(467,481,l),
(666,481,l),
(768,838,l),
(895,1493,l),
(629,1493,l),
(500,838,l)
);
}
);
userData = {
assembly = "NPUSHB[ ]	/* 46 values pushed */
8 7 2 9 6 3 9 4 9 5 3 4 4 9 2 3 3 0 3 1 3 0 3 52 7 0 4 57 2 2 9 1 7 5 4 8 9 0 5 9 4 0 0 1 3 10 
SRP0[ ]	/* SetRefPoint0 */
MDRP[10100]	/* MoveDirectRelPt */
MIRP[00100]	/* MoveIndirectRelPt */
MIRP[10100]	/* MoveIndirectRelPt */
MDRP[00100]	/* MoveDirectRelPt */
MDRP[00000]	/* MoveDirectRelPt */
SRP1[ ]	/* SetRefPoint1 */
SRP2[ ]	/* SetRefPoint2 */
IP[ ]	/* InterpolatePts */
SRP1[ ]	/* SetRefPoint1 */
SRP2[ ]	/* SetRefPoint2 */
IP[ ]	/* InterpolatePts */
IP[ ]	/* InterpolatePts */
SRP2[ ]	/* SetRefPoint2 */
IP[ ]	/* InterpolatePts */
IUP[1]	/* InterpolateUntPts */
SVTCA[0]	/* SetFreedomAndProjectionVectorToAxis */
MDAP[1]	/* MoveDirectAbsPt */
MIRP[00100]	/* MoveIndirectRelPt */
MDRP[11100]	/* MoveDirectRelPt */
MDRP[00100]	/* MoveDirectRelPt */
IUP[0]	/* InterpolateUntPts */
MPPEM[ ]	/* MeasurePixelPerEm */
GTEQ[ ]	/* GreaterThanOrEqual */
IF[ ]	/* If */
SPVTL[1]	/* SetPVectorToLine */
SFVTCA[1]	/* SetFVectorToAxis */
MIRP[01101]	/* MoveIndirectRelPt */
SPVTL[1]	/* SetPVectorToLine */
SRP0[ ]	/* SetRefPoint0 */
SFVTCA[1]	/* SetFVectorToAxis */
MIRP[01101]	/* MoveIndirectRelPt */
SPVTL[1]	/* SetPVectorToLine */
SRP0[ ]	/* SetRefPoint0 */
SFVTCA[1]	/* SetFVectorToAxis */
MIRP[01101]	/* MoveIndirectRelPt */
SPVTL[1]	/* SetPVectorToLine */
SRP0[ ]	/* SetRefPoint0 */
SFVTCA[1]	/* SetFVectorToAxis */
MIRP[01101]	/* MoveIndirectRelPt */
SRP1[ ]	/* SetRefPoint1 */
SLOOP[ ]	/* SetLoopVariable */
IP[ ]	/* InterpolatePts */
EIF[ ]	/* EndIf */
CLEAR[ ]	/* ClearStack */";
};
width = 1233;
}
);
note = exclam;
unicode = 33;
},
{
glyphname = quotedbl;
layers = (
{
layerId = m01;
shapes = (
{
closed = 1;
nodes = (
(743,938,l),
(999,938,l),
(999,1493,l),
(743,1493,l)
);
},
{
closed = 1;
nodes = (
(231,938,l),
(487,938,l),
(487,1493,l),
(231,1493,l)
);
}
);
userData = {
assembly = "NPUSHB[ ]	/* 11 values pushed */
5 1 4 0 57 8 0 2 6 4 8 
SRP0[ ]	/* SetRefPoint0 */
MDRP[10100]	/* MoveDirectRelPt */
MDRP[01100]	/* MoveDirectRelPt */
MDRP[10100]	/* MoveDirectRelPt */
MDRP[01100]	/* MoveDirectRelPt */
IUP[1]	/* InterpolateUntPts */
SVTCA[0]	/* SetFreedomAndProjectionVectorToAxis */
SRP0[ ]	/* SetRefPoint0 */
MIRP[10100]	/* MoveIndirectRelPt */
ALIGNRP[ ]	/* AlignRelativePt */
MDRP[01100]	/* MoveDirectRelPt */
SHP[0]	/* ShiftPointByLastPoint */
IUP[0]	/* InterpolateUntPts */";
};
width = 1233;
}
);
note = quotedbl;
unicode = 34;
},
{
glyphname = numbersign;
layers = (
{
layerId = m01;
shapes = (
{
closed = 1;
nodes = (
(475,588,l),
(549,881,l),
(752,881,l),
(678,588,l)
);
},
{
closed = 1;
nodes = (
(381,1096,l),
(139,1096,l),
(86,881,l),
(326,881,l),
(254,588,l),
(12,588,l),
(-41,373,l),
(199,373,l),
(104,0,l),
(326,0,l),
(420,373,l),
(625,373,l),
(530,0,l),
(752,0,l),
(846,373,l),
(1087,373,l),
(1141,588,l),
(901,588,l),
(973,881,l),
(1214,881,l),
(1268,1096,l),
(1028,1096,l),
(1122,1470,l),
(901,1470,l),
(807,1096,l),
(602,1096,l),
(696,1470,l),
(475,1470,l)
);
}
);
userData = {
assembly = "NPUSHB[ ]	/* 51 values pushed */
27 11 0 29 9 5 23 19 15 25 13 2 7 4 21 17 31 30 29 28 27 26 25 23 22 21 20 19 18 17 16 15 14 13 12 11 9 8 7 6 5 4 3 2 1 0 30 32 10 24 32 
SRP0[ ]	/* SetRefPoint0 */
MDRP[10100]	/* MoveDirectRelPt */
MDRP[01100]	/* MoveDirectRelPt */
SRP1[ ]	/* SetRefPoint1 */
SLOOP[ ]	/* SetLoopVariable */
IP[ ]	/* InterpolatePts */
IUP[1]	/* InterpolateUntPts */
SVTCA[0]	/* SetFreedomAndProjectionVectorToAxis */
MDAP[1]	/* MoveDirectAbsPt */
ALIGNRP[ ]	/* AlignRelativePt */
MDRP[00100]	/* MoveDirectRelPt */
SHP[0]	/* ShiftPointByLastPoint */
MDRP[10100]	/* MoveDirectRelPt */
ALIGNRP[ ]	/* AlignRelativePt */
ALIGNRP[ ]	/* AlignRelativePt */
MDRP[01100]	/* MoveDirectRelPt */
SHP[0]	/* ShiftPointByLastPoint */
SHP[0]	/* ShiftPointByLastPoint */
MDRP[10100]	/* MoveDirectRelPt */
ALIGNRP[ ]	/* AlignRelativePt */
ALIGNRP[ ]	/* AlignRelativePt */
MDRP[01100]	/* MoveDirectRelPt */
SHP[0]	/* ShiftPointByLastPoint */
SHP[0]	/* ShiftPointByLastPoint */
IUP[0]	/* InterpolateUntPts */";
};
width = 1233;
}
);
note = numbersign;
unicode = 35;
},
{
glyphname = dollar;
layers = (
{
layerId = m01;
shapes = (
{
closed = 1;
nodes = (
(768,453,o),
(768,401,qs),
(768,333,o),
(670,238,o),
(588,227,q),
(647,532,l),
(711,515,o)
);
},
{
closed = 1;
nodes = (
(459,890,o),
(459,932,qs),
(459,1000,o),
(542,1090,o),
(614,1099,q),
(561,821,l),
(511,833,o)
);
},
{
closed = 1;
nodes = (
(765,15,o),
(1028,254,o),
(1028,438,qs),
(1028,568,o),
(866,736,o),
(694,782,q),
(758,1100,l),
(839,1095,o),
(982,1051,o),
(1042,1012,q),
(1092,1262,l),
(1016,1287,o),
(870,1315,o),
(799,1319,q),
(846,1556,l),
(705,1556,l),
(657,1319,l),
(454,1311,o),
(199,1074,o),
(199,897,qs),
(199,773,o),
(355,609,o),
(512,569,q),
(444,223,l),
(357,227,o),
(179,293,o),
(90,354,q),
(39,92,l),
(136,48,o),
(316,2,o),
(401,0,q),
(344,-301,l),
(485,-301,l),
(543,0,l)
);
}
);
userData = {
assembly = "NPUSHB[ ]	/* 59 values pushed */
0 41 7 24 4 37 1 23 20 37 36 40 8 60 31 30 20 19 23 60 33 30 14 47 16 15 27 11 32 44 31 14 8 7 1 0 6 4 23 16 27 11 33 44 24 30 47 40 41 5 11 4 37 36 4 44 11 27 48 
SRP0[ ]	/* SetRefPoint0 */
MDRP[10100]	/* MoveDirectRelPt */
MDRP[01100]	/* MoveDirectRelPt */
MDRP[10100]	/* MoveDirectRelPt */
MDRP[01100]	/* MoveDirectRelPt */
MDRP[00000]	/* MoveDirectRelPt */
MDRP[00000]	/* MoveDirectRelPt */
SRP1[ ]	/* SetRefPoint1 */
SRP2[ ]	/* SetRefPoint2 */
SLOOP[ ]	/* SetLoopVariable */
IP[ ]	/* InterpolatePts */
SRP2[ ]	/* SetRefPoint2 */
IP[ ]	/* InterpolatePts */
SRP1[ ]	/* SetRefPoint1 */
SRP2[ ]	/* SetRefPoint2 */
IP[ ]	/* InterpolatePts */
IP[ ]	/* InterpolatePts */
SRP2[ ]	/* SetRefPoint2 */
SLOOP[ ]	/* SetLoopVariable */
IP[ ]	/* InterpolatePts */
SRP1[ ]	/* SetRefPoint1 */
IP[ ]	/* InterpolatePts */
SRP1[ ]	/* SetRefPoint1 */
SRP2[ ]	/* SetRefPoint2 */
IP[ ]	/* InterpolatePts */
IUP[1]	/* InterpolateUntPts */
SVTCA[0]	/* SetFreedomAndProjectionVectorToAxis */
MDAP[1]	/* MoveDirectAbsPt */
ALIGNRP[ ]	/* AlignRelativePt */
MDRP[00100]	/* MoveDirectRelPt */
MDRP[00100]	/* MoveDirectRelPt */
SHP[0]	/* ShiftPointByLastPoint */
MIRP[01100]	/* MoveIndirectRelPt */
MDRP[10100]	/* MoveDirectRelPt */
MDRP[00100]	/* MoveDirectRelPt */
SRP0[ ]	/* SetRefPoint0 */
MDRP[00110]	/* MoveDirectRelPt */
MIRP[01110]	/* MoveIndirectRelPt */
SHP[0]	/* ShiftPointByLastPoint */
MDRP[10110]	/* MoveDirectRelPt */
MDRP[00110]	/* MoveDirectRelPt */
SRP1[ ]	/* SetRefPoint1 */
SRP2[ ]	/* SetRefPoint2 */
IP[ ]	/* InterpolatePts */
SRP2[ ]	/* SetRefPoint2 */
SLOOP[ ]	/* SetLoopVariable */
IP[ ]	/* InterpolatePts */
IUP[0]	/* InterpolateUntPts */";
};
width = 1233;
}
);
note = dollar;
unicode = 36;
},
{
glyphname = percent;
layers = (
{
layerId = m01;
shapes = (
{
closed = 1;
nodes = (
(219,793,o),
(352,793,qs),
(485,793,o),
(672,979,o),
(672,1112,qs),
(672,1245,o),
(485,1432,o),
(352,1432,qs),
(219,1432,o),
(33,1246,o),
(33,1112,qs),
(33,978,o)
);
},
{
closed = 1;
nodes = (
(489,1169,o),
(489,1112,qs),
(489,1054,o),
(410,975,o),
(352,975,qs),
(295,975,o),
(215,1054,o),
(215,1112,qs),
(215,1170,o),
(295,1249,o),
(352,1249,qs),
(409,1249,o)
);
},
{
closed = 1;
nodes = (
(1169,883,l),
(1128,979,l),
(86,561,l),
(121,465,l)
);
},
{
closed = 1;
nodes = (
(765,0,o),
(899,0,qs),
(1031,0,o),
(1219,187,o),
(1219,319,qs),
(1219,452,o),
(1031,639,o),
(899,639,qs),
(765,639,o),
(580,453,o),
(580,319,qs),
(580,185,o)
);
},
{
closed = 1;
nodes = (
(1036,376,o),
(1036,319,qs),
(1036,262,o),
(955,182,o),
(897,182,qs),
(840,182,o),
(762,261,o),
(762,319,qs),
(762,377,o),
(841,457,o),
(897,457,qs),
(954,457,o)
);
}
);
userData = {
assembly = "NPUSHB[ ]	/* 45 values pushed */
27 24 40 31 25 12 26 18 9 40 63 31 18 63 9 12 63 3 62 31 46 63 37 25 26 49 34 27 24 15 0 43 4 28 49 4 34 21 4 6 15 4 34 0 52 
SRP0[ ]	/* SetRefPoint0 */
MDRP[10100]	/* MoveDirectRelPt */
MDRP[00100]	/* MoveDirectRelPt */
MIRP[01100]	/* MoveIndirectRelPt */
MDRP[11100]	/* MoveDirectRelPt */
MIRP[01100]	/* MoveIndirectRelPt */
SRP0[ ]	/* SetRefPoint0 */
MIRP[01110]	/* MoveIndirectRelPt */
MDRP[11110]	/* MoveDirectRelPt */
MIRP[01110]	/* MoveIndirectRelPt */
SRP1[ ]	/* SetRefPoint1 */
SRP2[ ]	/* SetRefPoint2 */
IP[ ]	/* InterpolatePts */
IP[ ]	/* InterpolatePts */
SRP1[ ]	/* SetRefPoint1 */
SRP2[ ]	/* SetRefPoint2 */
IP[ ]	/* InterpolatePts */
IP[ ]	/* InterpolatePts */
IUP[1]	/* InterpolateUntPts */
SVTCA[0]	/* SetFreedomAndProjectionVectorToAxis */
MDAP[1]	/* MoveDirectAbsPt */
MIRP[01110]	/* MoveIndirectRelPt */
MDRP[01110]	/* MoveDirectRelPt */
MIRP[10110]	/* MoveIndirectRelPt */
MIRP[01110]	/* MoveIndirectRelPt */
MDRP[11110]	/* MoveDirectRelPt */
MIRP[01110]	/* MoveIndirectRelPt */
SRP0[ ]	/* SetRefPoint0 */
MIRP[01110]	/* MoveIndirectRelPt */
SRP1[ ]	/* SetRefPoint1 */
SRP2[ ]	/* SetRefPoint2 */
IP[ ]	/* InterpolatePts */
SRP1[ ]	/* SetRefPoint1 */
IP[ ]	/* InterpolatePts */
SRP1[ ]	/* SetRefPoint1 */
SRP2[ ]	/* SetRefPoint2 */
IP[ ]	/* InterpolatePts */
IP[ ]	/* InterpolatePts */
IUP[0]	/* InterpolateUntPts */";
};
width = 1233;
}
);
note = percent;
unicode = 37;
},
{
glyphname = ampersand;
layers = (
{
layerId = m01;
shapes = (
{
closed = 1;
nodes = (
(1090,0,l),
(975,246,l),
(1083,337,o),
(1203,588,o),
(1214,745,q),
(979,745,l),
(975,652,o),
(927,498,o),
(885,440,q),
(664,920,ls),
(624,1007,o),
(586,1123,o),
(586,1157,qs),
(586,1223,o),
(680,1294,o),
(768,1294,qs),
(834,1294,o),
(962,1256,o),
(1016,1221,q),
(1065,1477,l),
(1000,1498,o),
(865,1520,o),
(795,1520,qs),
(567,1520,o),
(299,1301,o),
(299,1118,qs),
(299,1071,o),
(324,971,o),
(350,913,q),
(164,808,o),
(-33,523,o),
(-33,360,qs),
(-33,184,o),
(195,-29,o),
(387,-29,qs),
(474,-29,o),
(653,22,o),
(739,72,q),
(774,0,l)
);
},
{
closed = 1;
nodes = (
(607,234,o),
(517,207,o),
(473,207,qs),
(379,207,o),
(252,339,o),
(252,438,qs),
(252,530,o),
(346,679,o),
(436,731,q),
(653,262,l)
);
}
);
userData = {
assembly = "NPUSHB[ ]	/* 79 values pushed */
1 1 2 0 36 37 36 38 37 37 36 40 1 41 39 28 29 28 47 1 46 48 29 29 28 52 48 39 36 32 29 5 19 0 37 9 28 19 45 60 3 19 59 18 67 22 60 15 66 3 69 37 37 33 38 29 28 3 25 19 18 33 48 36 0 3 32 9 39 25 3 12 32 33 42 3 12 6 49 
SRP0[ ]	/* SetRefPoint0 */
MDRP[10100]	/* MoveDirectRelPt */
MDRP[00100]	/* MoveDirectRelPt */
MIRP[01100]	/* MoveIndirectRelPt */
MDRP[10100]	/* MoveDirectRelPt */
MDRP[01100]	/* MoveDirectRelPt */
SRP0[ ]	/* SetRefPoint0 */
MIRP[01110]	/* MoveIndirectRelPt */
IP[ ]	/* InterpolatePts */
IP[ ]	/* InterpolatePts */
SRP1[ ]	/* SetRefPoint1 */
SLOOP[ ]	/* SetLoopVariable */
IP[ ]	/* InterpolatePts */
SRP2[ ]	/* SetRefPoint2 */
IP[ ]	/* InterpolatePts */
IP[ ]	/* InterpolatePts */
SRP2[ ]	/* SetRefPoint2 */
SLOOP[ ]	/* SetLoopVariable */
IP[ ]	/* InterpolatePts */
SRP2[ ]	/* SetRefPoint2 */
IP[ ]	/* InterpolatePts */
IUP[1]	/* InterpolateUntPts */
SVTCA[0]	/* SetFreedomAndProjectionVectorToAxis */
MDAP[1]	/* MoveDirectAbsPt */
MIRP[00100]	/* MoveIndirectRelPt */
MIRP[10110]	/* MoveIndirectRelPt */
MIRP[01110]	/* MoveIndirectRelPt */
MIRP[10110]	/* MoveIndirectRelPt */
MIRP[01110]	/* MoveIndirectRelPt */
SRP0[ ]	/* SetRefPoint0 */
MIRP[01110]	/* MoveIndirectRelPt */
SRP1[ ]	/* SetRefPoint1 */
IP[ ]	/* InterpolatePts */
IP[ ]	/* InterpolatePts */
SRP1[ ]	/* SetRefPoint1 */
IP[ ]	/* InterpolatePts */
SRP1[ ]	/* SetRefPoint1 */
SLOOP[ ]	/* SetLoopVariable */
IP[ ]	/* InterpolatePts */
IUP[0]	/* InterpolateUntPts */
MPPEM[ ]	/* MeasurePixelPerEm */
GTEQ[ ]	/* GreaterThanOrEqual */
IF[ ]	/* If */
SPVTL[1]	/* SetPVectorToLine */
SRP0[ ]	/* SetRefPoint0 */
SFVTPV[ ]	/* SetFVectorToPVector */
MDRP[01001]	/* MoveDirectRelPt */
SRP1[ ]	/* SetRefPoint1 */
SLOOP[ ]	/* SetLoopVariable */
IP[ ]	/* InterpolatePts */
SPVTL[1]	/* SetPVectorToLine */
SRP0[ ]	/* SetRefPoint0 */
SFVTPV[ ]	/* SetFVectorToPVector */
MDRP[01001]	/* MoveDirectRelPt */
SRP1[ ]	/* SetRefPoint1 */
SLOOP[ ]	/* SetLoopVariable */
IP[ ]	/* InterpolatePts */
SPVTL[1]	/* SetPVectorToLine */
SRP0[ ]	/* SetRefPoint0 */
SFVTCA[1]	/* SetFVectorToAxis */
MDRP[01001]	/* MoveDirectRelPt */
SPVTL[1]	/* SetPVectorToLine */
SRP0[ ]	/* SetRefPoint0 */
SFVTPV[ ]	/* SetFVectorToPVector */
MDRP[01001]	/* MoveDirectRelPt */
SRP1[ ]	/* SetRefPoint1 */
SLOOP[ ]	/* SetLoopVariable */
IP[ ]	/* InterpolatePts */
EIF[ ]	/* EndIf */
CLEAR[ ]	/* ClearStack */";
};
width = 1233;
}
);
note = ampersand;
unicode = 38;
},
{
glyphname = quotesingle;
layers = (
{
layerId = m01;
shapes = (
{
closed = 1;
nodes = (
(487,938,l),
(743,938,l),
(743,1493,l),
(487,1493,l)
);
}
);
userData = {
assembly = "PUSHB[ ]	/* 7 values pushed */
1 0 57 4 0 2 4 
SRP0[ ]	/* SetRefPoint0 */
MDRP[10100]	/* MoveDirectRelPt */
MDRP[01100]	/* MoveDirectRelPt */
IUP[1]	/* InterpolateUntPts */
SVTCA[0]	/* SetFreedomAndProjectionVectorToAxis */
SRP0[ ]	/* SetRefPoint0 */
MIRP[10100]	/* MoveIndirectRelPt */
MDRP[01100]	/* MoveDirectRelPt */
IUP[0]	/* InterpolateUntPts */";
};
width = 1233;
}
);
note = quotesingle;
unicode = 39;
},
{
glyphname = parenleft;
layers = (
{
layerId = m01;
shapes = (
{
closed = 1;
nodes = (
(597,1265,o),
(338,683,o),
(338,393,qs),
(338,232,o),
(418,-98,o),
(500,-270,q),
(725,-270,l),
(668,-104,o),
(612,203,o),
(612,346,qs),
(612,639,o),
(846,1242,o),
(1079,1554,q),
(854,1554,l)
);
}
);
userData = {
assembly = "NPUSHB[ ]	/* 13 values pushed */
6 0 71 14 7 10 6 13 0 3 3 10 14 
SRP0[ ]	/* SetRefPoint0 */
MDRP[10100]	/* MoveDirectRelPt */
MIRP[11100]	/* MoveIndirectRelPt */
MDRP[00100]	/* MoveDirectRelPt */
IP[ ]	/* InterpolatePts */
IP[ ]	/* InterpolatePts */
SRP2[ ]	/* SetRefPoint2 */
IP[ ]	/* InterpolatePts */
IUP[1]	/* InterpolateUntPts */
SVTCA[0]	/* SetFreedomAndProjectionVectorToAxis */
SRP0[ ]	/* SetRefPoint0 */
MIRP[11100]	/* MoveIndirectRelPt */
MDRP[01100]	/* MoveDirectRelPt */
IUP[0]	/* InterpolateUntPts */";
};
width = 1233;
}
);
note = parenleft;
unicode = 40;
},
{
glyphname = parenright;
layers = (
{
layerId = m01;
shapes = (
{
closed = 1;
nodes = (
(595,19,o),
(854,601,o),
(854,891,qs),
(854,1053,o),
(773,1383,o),
(692,1554,q),
(467,1554,l),
(524,1388,o),
(580,1081,o),
(580,938,qs),
(580,645,o),
(346,42,o),
(113,-270,q),
(338,-270,l)
);
}
);
userData = {
assembly = "NPUSHB[ ]	/* 14 values pushed */
0 6 71 14 7 10 6 13 0 10 3 0 3 14 
SRP0[ ]	/* SetRefPoint0 */
MDRP[10100]	/* MoveDirectRelPt */
MDRP[00100]	/* MoveDirectRelPt */
MIRP[01100]	/* MoveIndirectRelPt */
SRP2[ ]	/* SetRefPoint2 */
IP[ ]	/* InterpolatePts */
IP[ ]	/* InterpolatePts */
SRP2[ ]	/* SetRefPoint2 */
IP[ ]	/* InterpolatePts */
IUP[1]	/* InterpolateUntPts */
SVTCA[0]	/* SetFreedomAndProjectionVectorToAxis */
SRP0[ ]	/* SetRefPoint0 */
MIRP[11100]	/* MoveIndirectRelPt */
MDRP[01100]	/* MoveDirectRelPt */
IUP[0]	/* InterpolateUntPts */";
};
width = 1233;
}
);
note = parenright;
unicode = 41;
},
{
glyphname = asterisk;
layers = (
{
layerId = m01;
shapes = (
{
closed = 1;
nodes = (
(700,1176,l),
(700,1520,l),
(528,1520,l),
(528,1176,l),
(197,1358,l),
(121,1217,l),
(453,1044,l),
(121,870,l),
(197,729,l),
(528,913,l),
(528,569,l),
(700,569,l),
(700,913,l),
(1032,729,l),
(1108,870,l),
(778,1044,l),
(1108,1217,l),
(1032,1358,l)
);
}
);
userData = {
assembly = "NPUSHB[ ]	/* 40 values pushed */
16 13 11 0 4 12 9 7 4 2 4 8 3 5 17 12 10 1 14 66 18 8 12 10 3 9 6 17 3 1 3 2 0 15 4 11 9 13 6 18 
SRP0[ ]	/* SetRefPoint0 */
MDRP[10100]	/* MoveDirectRelPt */
ALIGNRP[ ]	/* AlignRelativePt */
MDRP[00100]	/* MoveDirectRelPt */
SHP[0]	/* ShiftPointByLastPoint */
MDRP[11100]	/* MoveDirectRelPt */
ALIGNRP[ ]	/* AlignRelativePt */
MDRP[00100]	/* MoveDirectRelPt */
SHP[0]	/* ShiftPointByLastPoint */
SLOOP[ ]	/* SetLoopVariable */
IP[ ]	/* InterpolatePts */
SRP1[ ]	/* SetRefPoint1 */
SRP2[ ]	/* SetRefPoint2 */
SLOOP[ ]	/* SetLoopVariable */
IP[ ]	/* InterpolatePts */
IUP[1]	/* InterpolateUntPts */
SVTCA[0]	/* SetFreedomAndProjectionVectorToAxis */
SRP0[ ]	/* SetRefPoint0 */
MIRP[10100]	/* MoveIndirectRelPt */
MDRP[10100]	/* MoveDirectRelPt */
ALIGNRP[ ]	/* AlignRelativePt */
MDRP[00100]	/* MoveDirectRelPt */
SHP[0]	/* ShiftPointByLastPoint */
MDRP[00100]	/* MoveDirectRelPt */
MDRP[00100]	/* MoveDirectRelPt */
SHP[0]	/* ShiftPointByLastPoint */
SLOOP[ ]	/* SetLoopVariable */
IP[ ]	/* InterpolatePts */
SRP2[ ]	/* SetRefPoint2 */
SLOOP[ ]	/* SetLoopVariable */
IP[ ]	/* InterpolatePts */
IUP[0]	/* InterpolateUntPts */";
};
width = 1233;
}
);
note = asterisk;
unicode = 42;
},
{
glyphname = plus;
layers = (
{
layerId = m01;
shapes = (
{
closed = 1;
nodes = (
(498,762,l),
(66,762,l),
(66,524,l),
(498,524,l),
(498,92,l),
(735,92,l),
(735,524,l),
(1165,524,l),
(1165,762,l),
(735,762,l),
(735,1192,l),
(498,1192,l)
);
}
);
userData = {
assembly = "NPUSHB[ ]	/* 16 values pushed */
0 9 1 72 5 7 3 12 2 4 0 5 8 10 6 12 
SRP0[ ]	/* SetRefPoint0 */
MDRP[10100]	/* MoveDirectRelPt */
ALIGNRP[ ]	/* AlignRelativePt */
MDRP[00100]	/* MoveDirectRelPt */
MIRP[11100]	/* MoveIndirectRelPt */
ALIGNRP[ ]	/* AlignRelativePt */
MDRP[00100]	/* MoveDirectRelPt */
IUP[1]	/* InterpolateUntPts */
SVTCA[0]	/* SetFreedomAndProjectionVectorToAxis */
SRP0[ ]	/* SetRefPoint0 */
MDRP[10100]	/* MoveDirectRelPt */
ALIGNRP[ ]	/* AlignRelativePt */
MDRP[00100]	/* MoveDirectRelPt */
MIRP[11100]	/* MoveIndirectRelPt */
ALIGNRP[ ]	/* AlignRelativePt */
MDRP[00100]	/* MoveDirectRelPt */
IUP[0]	/* InterpolateUntPts */";
};
width = 1233;
}
);
note = plus;
unicode = 43;
},
{
glyphname = comma;
layers = (
{
layerId = m01;
shapes = (
{
closed = 1;
nodes = (
(209,-287,l),
(424,-287,l),
(694,96,l),
(748,367,l),
(434,367,l),
(381,96,l)
);
}
);
userData = {
assembly = "NPUSHB[ ]	/* 24 values pushed */
4 3 2 5 2 6 5 0 5 1 6 0 5 52 3 0 73 6 1 4 5 1 0 6 
SRP0[ ]	/* SetRefPoint0 */
MDRP[10100]	/* MoveDirectRelPt */
MIRP[00100]	/* MoveIndirectRelPt */
MDRP[00100]	/* MoveDirectRelPt */
MDRP[00000]	/* MoveDirectRelPt */
IUP[1]	/* InterpolateUntPts */
SVTCA[0]	/* SetFreedomAndProjectionVectorToAxis */
SRP0[ ]	/* SetRefPoint0 */
MIRP[11100]	/* MoveIndirectRelPt */
MDRP[01100]	/* MoveDirectRelPt */
IUP[0]	/* InterpolateUntPts */
MPPEM[ ]	/* MeasurePixelPerEm */
GTEQ[ ]	/* GreaterThanOrEqual */
IF[ ]	/* If */
SPVTL[1]	/* SetPVectorToLine */
SFVTCA[1]	/* SetFVectorToAxis */
MIRP[01101]	/* MoveIndirectRelPt */
SPVTL[1]	/* SetPVectorToLine */
SRP0[ ]	/* SetRefPoint0 */
SFVTCA[1]	/* SetFVectorToAxis */
MIRP[01101]	/* MoveIndirectRelPt */
SRP1[ ]	/* SetRefPoint1 */
SLOOP[ ]	/* SetLoopVariable */
IP[ ]	/* InterpolatePts */
EIF[ ]	/* EndIf */
CLEAR[ ]	/* ClearStack */";
};
width = 1233;
}
);
note = comma;
unicode = 44;
},
{
glyphname = hyphen;
layers = (
{
layerId = m01;
shapes = (
{
closed = 1;
nodes = (
(872,444,l),
(928,735,l),
(299,735,l),
(244,444,l)
);
}
);
userData = {
assembly = "PUSHB[ ]	/* 8 values pushed */
2 0 4 2 0 1 3 4 
SRP0[ ]	/* SetRefPoint0 */
MDRP[10100]	/* MoveDirectRelPt */
MDRP[01100]	/* MoveDirectRelPt */
IP[ ]	/* InterpolatePts */
IP[ ]	/* InterpolatePts */
IUP[1]	/* InterpolateUntPts */
SVTCA[0]	/* SetFreedomAndProjectionVectorToAxis */
SRP0[ ]	/* SetRefPoint0 */
MDRP[10100]	/* MoveDirectRelPt */
MDRP[01100]	/* MoveDirectRelPt */
IUP[0]	/* InterpolateUntPts */";
};
width = 1233;
}
);
note = hyphen;
unicode = 45;
},
{
glyphname = period;
layers = (
{
layerId = m01;
shapes = (
{
closed = 1;
nodes = (
(682,0,l),
(752,367,l),
(418,367,l),
(348,0,l)
);
}
);
userData = {
assembly = "NPUSHB[ ]	/* 21 values pushed */
2 6 3 0 3 1 6 0 0 3 52 0 73 2 2 1 0 0 1 3 4 
SRP0[ ]	/* SetRefPoint0 */
MDRP[10100]	/* MoveDirectRelPt */
MIRP[00100]	/* MoveIndirectRelPt */
SRP0[ ]	/* SetRefPoint0 */
MDRP[00000]	/* MoveDirectRelPt */
IP[ ]	/* InterpolatePts */
IUP[1]	/* InterpolateUntPts */
SVTCA[0]	/* SetFreedomAndProjectionVectorToAxis */
MDAP[1]	/* MoveDirectAbsPt */
MIRP[01100]	/* MoveIndirectRelPt */
IUP[0]	/* InterpolateUntPts */
MPPEM[ ]	/* MeasurePixelPerEm */
GTEQ[ ]	/* GreaterThanOrEqual */
IF[ ]	/* If */
SPVTL[1]	/* SetPVectorToLine */
SRP0[ ]	/* SetRefPoint0 */
SFVTCA[1]	/* SetFVectorToAxis */
MIRP[01101]	/* MoveIndirectRelPt */
SPVTL[1]	/* SetPVectorToLine */
SRP0[ ]	/* SetRefPoint0 */
SFVTCA[1]	/* SetFVectorToAxis */
MIRP[01101]	/* MoveIndirectRelPt */
EIF[ ]	/* EndIf */
CLEAR[ ]	/* ClearStack */";
};
width = 1233;
}
);
note = period;
unicode = 46;
},
{
glyphname = slash;
layers = (
{
layerId = m01;
shapes = (
{
closed = 1;
nodes = (
(221,-190,l),
(1075,1493,l),
(852,1493,l),
(0,-190,l)
);
}
);
userData = {
assembly = "NPUSHB[ ]	/* 9 values pushed */
52 2 0 57 4 2 0 1 3 
MDAP[1]	/* MoveDirectAbsPt */
MDRP[01100]	/* MoveDirectRelPt */
IP[ ]	/* InterpolatePts */
IP[ ]	/* InterpolatePts */
IUP[1]	/* InterpolateUntPts */
SVTCA[0]	/* SetFreedomAndProjectionVectorToAxis */
SRP0[ ]	/* SetRefPoint0 */
MIRP[10100]	/* MoveIndirectRelPt */
MDRP[01100]	/* MoveDirectRelPt */
IUP[0]	/* InterpolateUntPts */
MPPEM[ ]	/* MeasurePixelPerEm */
GTEQ[ ]	/* GreaterThanOrEqual */
IF[ ]	/* If */
EIF[ ]	/* EndIf */
CLEAR[ ]	/* ClearStack */";
};
width = 1233;
}
);
note = slash;
unicode = 47;
},
{
glyphname = zero;
layers = (
{
layerId = m01;
shapes = (
{
closed = 1;
nodes = (
(562,621,o),
(614,621,qs),
(667,621,o),
(741,694,o),
(741,745,qs),
(741,797,o),
(667,870,o),
(614,870,qs),
(562,870,o),
(489,798,o),
(489,745,qs),
(489,692,o)
);
},
{
closed = 1;
nodes = (
(448,918,o),
(502,1067,qs),
(538,1168,o),
(644,1272,o),
(711,1272,qs),
(782,1272,o),
(848,1165,o),
(848,1051,qs),
(848,924,o),
(783,576,o),
(729,424,qs),
(693,325,o),
(586,219,o),
(522,219,qs),
(451,219,o),
(383,327,o),
(383,440,qs),
(383,570,o)
);
},
{
closed = 1;
nodes = (
(926,1520,o),
(733,1520,qs),
(590,1520,o),
(348,1366,o),
(274,1229,qs),
(191,1073,o),
(90,631,o),
(90,420,qs),
(90,207,o),
(305,-29,o),
(498,-29,qs),
(642,-29,o),
(883,123,o),
(956,260,qs),
(1041,419,o),
(1143,858,o),
(1143,1071,qs),
(1143,1283,o)
);
}
);
userData = {
assembly = "NPUSHB[ ]	/* 22 values pushed */
3 9 15 74 36 24 74 45 66 36 69 48 6 0 21 8 30 12 8 0 39 48 
SRP0[ ]	/* SetRefPoint0 */
MDRP[10100]	/* MoveDirectRelPt */
MDRP[00100]	/* MoveDirectRelPt */
MIRP[01100]	/* MoveIndirectRelPt */
MDRP[10100]	/* MoveDirectRelPt */
MIRP[01100]	/* MoveIndirectRelPt */
SRP0[ ]	/* SetRefPoint0 */
MDRP[01110]	/* MoveDirectRelPt */
IUP[1]	/* InterpolateUntPts */
SVTCA[0]	/* SetFreedomAndProjectionVectorToAxis */
SRP0[ ]	/* SetRefPoint0 */
MIRP[00100]	/* MoveIndirectRelPt */
MIRP[10100]	/* MoveIndirectRelPt */
MIRP[01100]	/* MoveIndirectRelPt */
SRP0[ ]	/* SetRefPoint0 */
MIRP[01110]	/* MoveIndirectRelPt */
MDRP[10100]	/* MoveDirectRelPt */
MDRP[01110]	/* MoveDirectRelPt */
IUP[0]	/* InterpolateUntPts */
NPUSHB[ ]	/* 194 values pushed */
47 0 47 1 47 2 47 3 47 4 47 5 47 6 47 7 47 8 47 9 47 10 47 11 63 0 63 1 63 2 63 3 63 4 63 5 63 6 63 7 63 8 63 9 63 10 63 11 68 3 64 4 64 5 64 6 64 7 64 8 69 9 85 3 80 4 80 5 80 6 80 7 80 8 85 9 111 0 111 1 107 2 107 3 107 4 107 8 107 9 107 10 111 11 143 0 143 1 139 2 139 3 139 4 139 8 139 9 139 10 143 11 151 2 151 3 151 4 144 4 144 5 144 6 144 7 151 8 144 8 151 9 151 10 67 47 0 47 1 47 2 47 3 47 4 47 5 47 6 47 7 47 8 47 9 47 10 47 11 191 0 191 1 191 2 191 3 184 4 191 4 184 5 191 5 184 6 191 6 184 7 191 7 184 8 191 8 191 9 191 10 191 11 29 
DELTAP1[ ]	/* DeltaExceptionP1 */
SVTCA[1]	/* SetFreedomAndProjectionVectorToAxis */
DELTAP1[ ]	/* DeltaExceptionP1 */";
};
width = 1233;
}
);
note = zero;
unicode = 48;
},
{
glyphname = one;
layers = (
{
layerId = m01;
shapes = (
{
closed = 1;
nodes = (
(969,0,l),
(1020,260,l),
(711,260,l),
(950,1493,l),
(668,1493,l),
(342,1419,l),
(291,1153,l),
(612,1229,l),
(424,260,l),
(94,260,l),
(43,0,l)
);
}
);
userData = {
assembly = "NPUSHB[ ]	/* 40 values pushed */
7 7 1 2 1 6 7 2 2 1 52 3 74 4 2 74 5 57 7 0 74 9 9 7 6 3 8 2 4 3 0 3 10 1 8 2 2 1 10 11 
SRP0[ ]	/* SetRefPoint0 */
MDRP[10100]	/* MoveDirectRelPt */
MDRP[10100]	/* MoveDirectRelPt */
MDRP[00100]	/* MoveDirectRelPt */
SRP0[ ]	/* SetRefPoint0 */
MDRP[00000]	/* MoveDirectRelPt */
SRP1[ ]	/* SetRefPoint1 */
SRP2[ ]	/* SetRefPoint2 */
SLOOP[ ]	/* SetLoopVariable */
IP[ ]	/* InterpolatePts */
SRP1[ ]	/* SetRefPoint1 */
SRP2[ ]	/* SetRefPoint2 */
SLOOP[ ]	/* SetLoopVariable */
IP[ ]	/* InterpolatePts */
IUP[1]	/* InterpolateUntPts */
SVTCA[0]	/* SetFreedomAndProjectionVectorToAxis */
MDAP[1]	/* MoveDirectAbsPt */
MIRP[01100]	/* MoveIndirectRelPt */
SHP[0]	/* ShiftPointByLastPoint */
MIRP[10100]	/* MoveIndirectRelPt */
MIRP[01100]	/* MoveIndirectRelPt */
MDRP[10100]	/* MoveDirectRelPt */
MIRP[01100]	/* MoveIndirectRelPt */
IUP[0]	/* InterpolateUntPts */
MPPEM[ ]	/* MeasurePixelPerEm */
GTEQ[ ]	/* GreaterThanOrEqual */
IF[ ]	/* If */
SPVTL[1]	/* SetPVectorToLine */
SRP0[ ]	/* SetRefPoint0 */
SFVTCA[1]	/* SetFVectorToAxis */
MIRP[01101]	/* MoveIndirectRelPt */
SPVTL[1]	/* SetPVectorToLine */
SRP0[ ]	/* SetRefPoint0 */
SFVTCA[1]	/* SetFVectorToAxis */
MIRP[01101]	/* MoveIndirectRelPt */
EIF[ ]	/* EndIf */
CLEAR[ ]	/* ClearStack */";
};
width = 1233;
}
);
note = one;
unicode = 49;
},
{
glyphname = two;
layers = (
{
layerId = m01;
shapes = (
{
closed = 1;
nodes = (
(681,542,ls),
(1135,931,o),
(1135,1180,qs),
(1135,1330,o),
(893,1520,o),
(700,1520,qs),
(599,1520,o),
(385,1478,o),
(276,1438,q),
(225,1171,l),
(343,1229,o),
(551,1288,o),
(633,1288,qs),
(732,1288,o),
(844,1207,o),
(844,1135,qs),
(844,982,o),
(442,628,qs),
(348,546,o),
(297,500,qs),
(20,252,l),
(-29,0,l),
(920,0,l),
(971,260,l),
(354,260,l),
(641,508,l)
);
}
);
userData = {
assembly = "NPUSHB[ ]	/* 50 values pushed */
0 2 6 7 6 24 1 23 25 2 7 7 6 52 24 25 19 5 25 0 15 76 16 75 12 74 19 66 0 74 2 24 25 22 15 5 0 3 26 2 1 22 16 25 3 9 8 22 3 26 
SRP0[ ]	/* SetRefPoint0 */
MDRP[10100]	/* MoveDirectRelPt */
MDRP[10100]	/* MoveDirectRelPt */
MIRP[01100]	/* MoveIndirectRelPt */
SRP1[ ]	/* SetRefPoint1 */
IP[ ]	/* InterpolatePts */
IP[ ]	/* InterpolatePts */
SRP1[ ]	/* SetRefPoint1 */
IP[ ]	/* InterpolatePts */
IP[ ]	/* InterpolatePts */
SRP1[ ]	/* SetRefPoint1 */
SLOOP[ ]	/* SetLoopVariable */
IP[ ]	/* InterpolatePts */
SRP1[ ]	/* SetRefPoint1 */
SRP2[ ]	/* SetRefPoint2 */
IP[ ]	/* InterpolatePts */
IUP[1]	/* InterpolateUntPts */
SVTCA[0]	/* SetFreedomAndProjectionVectorToAxis */
MDAP[1]	/* MoveDirectAbsPt */
MIRP[01100]	/* MoveIndirectRelPt */
MIRP[10100]	/* MoveIndirectRelPt */
MIRP[01100]	/* MoveIndirectRelPt */
MIRP[10100]	/* MoveIndirectRelPt */
MIRP[01100]	/* MoveIndirectRelPt */
SRP1[ ]	/* SetRefPoint1 */
IP[ ]	/* InterpolatePts */
IP[ ]	/* InterpolatePts */
SRP1[ ]	/* SetRefPoint1 */
SRP2[ ]	/* SetRefPoint2 */
IP[ ]	/* InterpolatePts */
IUP[0]	/* InterpolateUntPts */
MPPEM[ ]	/* MeasurePixelPerEm */
GTEQ[ ]	/* GreaterThanOrEqual */
IF[ ]	/* If */
SPVTL[1]	/* SetPVectorToLine */
SRP0[ ]	/* SetRefPoint0 */
SFVTPV[ ]	/* SetFVectorToPVector */
MIRP[01101]	/* MoveIndirectRelPt */
SRP1[ ]	/* SetRefPoint1 */
SLOOP[ ]	/* SetLoopVariable */
IP[ ]	/* InterpolatePts */
SPVTL[1]	/* SetPVectorToLine */
SRP0[ ]	/* SetRefPoint0 */
SFVTCA[1]	/* SetFVectorToAxis */
MIRP[01101]	/* MoveIndirectRelPt */
EIF[ ]	/* EndIf */
CLEAR[ ]	/* ClearStack */";
};
width = 1233;
}
);
note = two;
unicode = 50;
},
{
glyphname = three;
layers = (
{
layerId = m01;
shapes = (
{
closed = 1;
nodes = (
(750,569,o),
(750,487,qs),
(750,358,o),
(588,221,o),
(434,221,qs),
(326,221,o),
(119,269,o),
(23,315,q),
(-31,45,l),
(91,9,o),
(320,-29,o),
(422,-29,qs),
(703,-29,o),
(1030,243,o),
(1030,473,qs),
(1030,605,o),
(898,769,o),
(764,805,q),
(931,834,o),
(1120,1027,o),
(1120,1167,qs),
(1120,1326,o),
(874,1520,o),
(670,1520,qs),
(582,1520,o),
(389,1488,o),
(285,1456,q),
(231,1188,l),
(341,1228,o),
(540,1270,o),
(623,1270,qs),
(729,1270,o),
(844,1194,o),
(844,1124,qs),
(844,1039,o),
(689,928,o),
(565,928,qs),
(408,928,l),
(356,668,l),
(514,668,ls),
(621,668,o)
);
}
);
userData = {
assembly = "NPUSHB[ ]	/* 44 values pushed */
22 0 77 2 32 76 31 75 35 77 28 12 76 13 75 9 77 16 66 28 69 2 41 32 2 1 0 4 41 3 12 13 3 31 22 6 38 10 25 6 10 19 31 41 
SRP0[ ]	/* SetRefPoint0 */
MDRP[10100]	/* MoveDirectRelPt */
MDRP[10100]	/* MoveDirectRelPt */
MIRP[01100]	/* MoveIndirectRelPt */
MDRP[10100]	/* MoveDirectRelPt */
MIRP[01100]	/* MoveIndirectRelPt */
SRP1[ ]	/* SetRefPoint1 */
IP[ ]	/* InterpolatePts */
SRP1[ ]	/* SetRefPoint1 */
SLOOP[ ]	/* SetLoopVariable */
IP[ ]	/* InterpolatePts */
SRP1[ ]	/* SetRefPoint1 */
SLOOP[ ]	/* SetLoopVariable */
IP[ ]	/* InterpolatePts */
IUP[1]	/* InterpolateUntPts */
SVTCA[0]	/* SetFreedomAndProjectionVectorToAxis */
SRP0[ ]	/* SetRefPoint0 */
MDRP[00100]	/* MoveDirectRelPt */
MIRP[00100]	/* MoveIndirectRelPt */
MIRP[10100]	/* MoveIndirectRelPt */
MIRP[01100]	/* MoveIndirectRelPt */
MIRP[10100]	/* MoveIndirectRelPt */
MIRP[01100]	/* MoveIndirectRelPt */
SRP0[ ]	/* SetRefPoint0 */
MIRP[01110]	/* MoveIndirectRelPt */
MIRP[10110]	/* MoveIndirectRelPt */
MIRP[01110]	/* MoveIndirectRelPt */
SRP0[ ]	/* SetRefPoint0 */
MIRP[01110]	/* MoveIndirectRelPt */
IP[ ]	/* InterpolatePts */
IUP[0]	/* InterpolateUntPts */";
};
width = 1233;
}
);
note = three;
unicode = 51;
},
{
glyphname = four;
layers = (
{
layerId = m01;
shapes = (
{
closed = 1;
nodes = (
(289,575,l),
(772,1153,l),
(662,575,l)
);
},
{
closed = 1;
nodes = (
(18,322,l),
(612,322,l),
(549,0,l),
(831,0,l),
(893,322,l),
(1057,322,l),
(1106,575,l),
(942,575,l),
(1120,1493,l),
(811,1493,l),
(76,608,l)
);
}
);
userData = {
assembly = "NPUSHB[ ]	/* 60 values pushed */
1 13 3 13 0 2 0 3 3 13 11 7 8 9 8 10 7 9 9 8 0 7 1 0 4 5 4 2 7 5 5 4 52 0 3 11 7 74 5 1 3 57 9 11 10 0 2 1 5 12 8 7 6 5 4 9 0 4 12 14 
SRP0[ ]	/* SetRefPoint0 */
MDRP[10100]	/* MoveDirectRelPt */
MDRP[11100]	/* MoveDirectRelPt */
MIRP[00100]	/* MoveIndirectRelPt */
SLOOP[ ]	/* SetLoopVariable */
IP[ ]	/* InterpolatePts */
SRP1[ ]	/* SetRefPoint1 */
SLOOP[ ]	/* SetLoopVariable */
IP[ ]	/* InterpolatePts */
IUP[1]	/* InterpolateUntPts */
SVTCA[0]	/* SetFreedomAndProjectionVectorToAxis */
MDAP[1]	/* MoveDirectAbsPt */
MIRP[00100]	/* MoveIndirectRelPt */
MDRP[10100]	/* MoveDirectRelPt */
ALIGNRP[ ]	/* AlignRelativePt */
MIRP[01100]	/* MoveIndirectRelPt */
SHP[0]	/* ShiftPointByLastPoint */
SRP2[ ]	/* SetRefPoint2 */
IP[ ]	/* InterpolatePts */
IUP[0]	/* InterpolateUntPts */
MPPEM[ ]	/* MeasurePixelPerEm */
GTEQ[ ]	/* GreaterThanOrEqual */
IF[ ]	/* If */
SPVTL[1]	/* SetPVectorToLine */
SRP0[ ]	/* SetRefPoint0 */
SFVTCA[1]	/* SetFVectorToAxis */
MIRP[01101]	/* MoveIndirectRelPt */
SPVTL[1]	/* SetPVectorToLine */
SRP0[ ]	/* SetRefPoint0 */
SFVTL[0]	/* SetFVectorToLine */
MIRP[01101]	/* MoveIndirectRelPt */
SPVTL[1]	/* SetPVectorToLine */
SRP0[ ]	/* SetRefPoint0 */
SFVTCA[1]	/* SetFVectorToAxis */
MIRP[01101]	/* MoveIndirectRelPt */
SPVTL[1]	/* SetPVectorToLine */
SRP0[ ]	/* SetRefPoint0 */
SFVTCA[1]	/* SetFVectorToAxis */
MIRP[01101]	/* MoveIndirectRelPt */
SPVTL[1]	/* SetPVectorToLine */
SRP0[ ]	/* SetRefPoint0 */
SFVTL[0]	/* SetFVectorToLine */
MDRP[01001]	/* MoveDirectRelPt */
SPVTL[1]	/* SetPVectorToLine */
SRP0[ ]	/* SetRefPoint0 */
SFVTCA[1]	/* SetFVectorToAxis */
MDRP[01001]	/* MoveDirectRelPt */
EIF[ ]	/* EndIf */
CLEAR[ ]	/* ClearStack */";
};
width = 1233;
}
);
note = four;
unicode = 52;
},
{
glyphname = five;
layers = (
{
layerId = m01;
shapes = (
{
closed = 1;
nodes = (
(257,697,o),
(422,737,o),
(500,737,qs),
(622,737,o),
(764,616,o),
(764,512,qs),
(764,377,o),
(565,219,o),
(393,219,qs),
(298,219,o),
(127,261,o),
(57,301,q),
(6,35,l),
(101,3,o),
(292,-29,o),
(387,-29,qs),
(695,-29,o),
(1051,284,o),
(1051,551,qs),
(1051,748,o),
(818,981,o),
(621,981,qs),
(580,981,o),
(508,969,o),
(475,956,q),
(528,1233,l),
(1100,1233,l),
(1151,1493,l),
(340,1493,l),
(178,659,l)
);
}
);
userData = {
assembly = "NPUSHB[ ]	/* 56 values pushed */
7 6 5 3 8 4 3 29 0 29 3 3 0 0 29 52 4 7 29 26 74 7 17 76 16 75 20 74 13 2 74 0 57 13 69 7 30 29 17 3 0 4 23 16 2 10 1 4 23 16 1 23 10 10 16 30 
SRP0[ ]	/* SetRefPoint0 */
MDRP[10100]	/* MoveDirectRelPt */
MDRP[10100]	/* MoveDirectRelPt */
MIRP[01100]	/* MoveIndirectRelPt */
MDRP[00000]	/* MoveDirectRelPt */
SRP1[ ]	/* SetRefPoint1 */
SRP2[ ]	/* SetRefPoint2 */
IP[ ]	/* InterpolatePts */
SRP1[ ]	/* SetRefPoint1 */
SRP2[ ]	/* SetRefPoint2 */
IP[ ]	/* InterpolatePts */
SRP1[ ]	/* SetRefPoint1 */
SRP2[ ]	/* SetRefPoint2 */
SLOOP[ ]	/* SetLoopVariable */
IP[ ]	/* InterpolatePts */
IUP[1]	/* InterpolateUntPts */
SVTCA[0]	/* SetFreedomAndProjectionVectorToAxis */
SRP0[ ]	/* SetRefPoint0 */
MDRP[00100]	/* MoveDirectRelPt */
MIRP[00100]	/* MoveIndirectRelPt */
MIRP[10100]	/* MoveIndirectRelPt */
MIRP[01100]	/* MoveIndirectRelPt */
SRP0[ ]	/* SetRefPoint0 */
MIRP[01110]	/* MoveIndirectRelPt */
MIRP[10110]	/* MoveIndirectRelPt */
MIRP[01110]	/* MoveIndirectRelPt */
SRP0[ ]	/* SetRefPoint0 */
MIRP[11110]	/* MoveIndirectRelPt */
MDRP[00100]	/* MoveDirectRelPt */
SRP2[ ]	/* SetRefPoint2 */
IP[ ]	/* InterpolatePts */
IUP[0]	/* InterpolateUntPts */
MPPEM[ ]	/* MeasurePixelPerEm */
GTEQ[ ]	/* GreaterThanOrEqual */
IF[ ]	/* If */
SPVTL[1]	/* SetPVectorToLine */
SRP0[ ]	/* SetRefPoint0 */
SFVTCA[1]	/* SetFVectorToAxis */
MIRP[01101]	/* MoveIndirectRelPt */
SPVTL[1]	/* SetPVectorToLine */
SRP0[ ]	/* SetRefPoint0 */
SFVTCA[1]	/* SetFVectorToAxis */
MIRP[01101]	/* MoveIndirectRelPt */
SRP1[ ]	/* SetRefPoint1 */
SLOOP[ ]	/* SetLoopVariable */
IP[ ]	/* InterpolatePts */
EIF[ ]	/* EndIf */
CLEAR[ ]	/* ClearStack */";
};
width = 1233;
}
);
note = five;
unicode = 53;
},
{
glyphname = six;
layers = (
{
layerId = m01;
shapes = (
{
closed = 1;
nodes = (
(657,207,o),
(549,207,qs),
(474,207,o),
(383,313,o),
(383,401,qs),
(383,548,o),
(530,748,o),
(635,748,qs),
(712,748,o),
(803,645,o),
(803,557,qs),
(803,407,o)
);
},
{
closed = 1;
nodes = (
(954,1518,o),
(887,1518,qs),
(702,1518,o),
(424,1383,o),
(326,1247,qs),
(217,1096,o),
(96,686,o),
(96,469,qs),
(96,218,o),
(324,-33,o),
(551,-33,qs),
(784,-33,o),
(1092,310,o),
(1092,569,qs),
(1092,762,o),
(898,985,o),
(731,985,qs),
(642,985,o),
(490,919,o),
(430,854,q),
(477,1063,o),
(689,1280,o),
(846,1280,qs),
(918,1280,o),
(1058,1234,o),
(1118,1190,q),
(1169,1458,l),
(1093,1488,o)
);
}
);
userData = {
assembly = "NPUSHB[ ]	/* 30 values pushed */
19 3 77 22 9 77 28 13 76 12 75 16 77 37 66 28 69 40 19 6 0 13 12 0 10 25 6 10 31 40 
SRP0[ ]	/* SetRefPoint0 */
MDRP[10100]	/* MoveDirectRelPt */
MIRP[01100]	/* MoveIndirectRelPt */
MDRP[10100]	/* MoveDirectRelPt */
MIRP[01100]	/* MoveIndirectRelPt */
MDRP[00000]	/* MoveDirectRelPt */
MDRP[00000]	/* MoveDirectRelPt */
SRP1[ ]	/* SetRefPoint1 */
SRP2[ ]	/* SetRefPoint2 */
IP[ ]	/* InterpolatePts */
IUP[1]	/* InterpolateUntPts */
SVTCA[0]	/* SetFreedomAndProjectionVectorToAxis */
SRP0[ ]	/* SetRefPoint0 */
MIRP[00100]	/* MoveIndirectRelPt */
MIRP[10100]	/* MoveIndirectRelPt */
MIRP[01100]	/* MoveIndirectRelPt */
MIRP[10100]	/* MoveIndirectRelPt */
MIRP[01100]	/* MoveIndirectRelPt */
SRP0[ ]	/* SetRefPoint0 */
MIRP[01110]	/* MoveIndirectRelPt */
MDRP[10110]	/* MoveDirectRelPt */
MIRP[01110]	/* MoveIndirectRelPt */
IP[ ]	/* InterpolatePts */
IUP[0]	/* InterpolateUntPts */";
};
width = 1233;
}
);
note = six;
unicode = 54;
},
{
glyphname = seven;
layers = (
{
layerId = m01;
shapes = (
{
closed = 1;
nodes = (
(844,1233,l),
(109,0,l),
(428,0,l),
(1184,1284,l),
(1225,1493,l),
(262,1493,l),
(211,1233,l)
);
}
);
userData = {
assembly = "NPUSHB[ ]	/* 23 values pushed */
5 7 2 3 2 3 7 4 5 4 52 5 74 0 57 3 5 0 1 6 1 4 7 
SRP0[ ]	/* SetRefPoint0 */
MDRP[10100]	/* MoveDirectRelPt */
MDRP[01100]	/* MoveDirectRelPt */
MDRP[00100]	/* MoveDirectRelPt */
SRP1[ ]	/* SetRefPoint1 */
IP[ ]	/* InterpolatePts */
IP[ ]	/* InterpolatePts */
IUP[1]	/* InterpolateUntPts */
SVTCA[0]	/* SetFreedomAndProjectionVectorToAxis */
MDAP[1]	/* MoveDirectAbsPt */
MIRP[10100]	/* MoveIndirectRelPt */
MIRP[01100]	/* MoveIndirectRelPt */
IUP[0]	/* InterpolateUntPts */
MPPEM[ ]	/* MeasurePixelPerEm */
GTEQ[ ]	/* GreaterThanOrEqual */
IF[ ]	/* If */
SPVTL[1]	/* SetPVectorToLine */
SRP0[ ]	/* SetRefPoint0 */
SFVTCA[1]	/* SetFVectorToAxis */
MIRP[01101]	/* MoveIndirectRelPt */
SPVTL[1]	/* SetPVectorToLine */
SRP0[ ]	/* SetRefPoint0 */
SFVTCA[1]	/* SetFVectorToAxis */
MIRP[01101]	/* MoveIndirectRelPt */
EIF[ ]	/* EndIf */
CLEAR[ ]	/* ClearStack */";
};
width = 1233;
}
);
note = seven;
unicode = 55;
},
{
glyphname = eight;
layers = (
{
layerId = m01;
shapes = (
{
closed = 1;
nodes = (
(637,209,o),
(528,209,qs),
(437,209,o),
(326,313,o),
(326,399,qs),
(326,517,o),
(468,668,o),
(580,668,qs),
(671,668,o),
(778,565,o),
(778,477,qs),
(778,360,o)
);
},
{
closed = 1;
nodes = (
(63,519,o),
(63,350,qs),
(63,170,o),
(294,-29,o),
(504,-29,qs),
(743,-29,o),
(1040,245,o),
(1040,465,qs),
(1040,588,o),
(918,757,o),
(809,786,q),
(959,811,o),
(1137,1015,o),
(1137,1163,qs),
(1137,1322,o),
(912,1520,o),
(731,1520,qs),
(518,1520,o),
(223,1260,o),
(223,1077,qs),
(223,967,o),
(330,826,o),
(434,799,q),
(261,758,o)
);
},
{
closed = 1;
nodes = (
(610,1284,o),
(702,1284,qs),
(785,1284,o),
(877,1195,o),
(877,1116,qs),
(877,1023,o),
(748,903,o),
(647,903,qs),
(576,903,o),
(485,996,o),
(485,1069,qs),
(485,1160,o)
);
}
);
userData = {
assembly = "NPUSHB[ ]	/* 36 values pushed */
24 12 3 77 39 9 77 30 45 77 18 66 30 69 39 48 12 36 6 24 42 0 36 11 15 0 11 27 42 11 21 6 11 15 33 48 
SRP0[ ]	/* SetRefPoint0 */
MDRP[10100]	/* MoveDirectRelPt */
MDRP[00100]	/* MoveDirectRelPt */
MIRP[01100]	/* MoveIndirectRelPt */
MDRP[10100]	/* MoveDirectRelPt */
MIRP[01100]	/* MoveIndirectRelPt */
MDRP[10100]	/* MoveDirectRelPt */
MIRP[01100]	/* MoveIndirectRelPt */
SRP0[ ]	/* SetRefPoint0 */
MIRP[01110]	/* MoveIndirectRelPt */
SRP1[ ]	/* SetRefPoint1 */
SRP2[ ]	/* SetRefPoint2 */
IP[ ]	/* InterpolatePts */
SRP1[ ]	/* SetRefPoint1 */
SRP2[ ]	/* SetRefPoint2 */
IP[ ]	/* InterpolatePts */
IUP[1]	/* InterpolateUntPts */
SVTCA[0]	/* SetFreedomAndProjectionVectorToAxis */
SRP0[ ]	/* SetRefPoint0 */
MDRP[00100]	/* MoveDirectRelPt */
MIRP[00100]	/* MoveIndirectRelPt */
MIRP[10100]	/* MoveIndirectRelPt */
MIRP[01100]	/* MoveIndirectRelPt */
SRP0[ ]	/* SetRefPoint0 */
MIRP[01110]	/* MoveIndirectRelPt */
SRP0[ ]	/* SetRefPoint0 */
MIRP[01110]	/* MoveIndirectRelPt */
IP[ ]	/* InterpolatePts */
IP[ ]	/* InterpolatePts */
IUP[0]	/* InterpolateUntPts */
PUSHB[ ]	/* 7 values pushed */
31 41 31 42 31 43 3 
SVTCA[1]	/* SetFreedomAndProjectionVectorToAxis */
DELTAP1[ ]	/* DeltaExceptionP1 */";
};
width = 1233;
}
);
note = eight;
unicode = 56;
},
{
glyphname = nine;
layers = (
{
layerId = m01;
shapes = (
{
closed = 1;
nodes = (
(271,-31,o),
(338,-31,qs),
(524,-31,o),
(802,102,o),
(899,238,qs),
(1007,388,o),
(1128,801,o),
(1128,1018,qs),
(1128,1268,o),
(901,1520,o),
(674,1520,qs),
(441,1520,o),
(135,1177,o),
(135,918,qs),
(135,724,o),
(328,502,o),
(494,502,qs),
(582,502,o),
(734,568,o),
(795,633,q),
(747,424,o),
(535,207,o),
(379,207,qs),
(307,207,o),
(167,253,o),
(106,297,q),
(55,29,l),
(131,-1,o)
);
},
{
closed = 1;
nodes = (
(568,1280,o),
(676,1280,qs),
(751,1280,o),
(842,1173,o),
(842,1085,qs),
(842,939,o),
(694,739,o),
(590,739,qs),
(513,739,o),
(424,840,o),
(424,928,qs),
(424,1078,o)
);
}
);
userData = {
assembly = "NPUSHB[ ]	/* 28 values pushed */
7 31 77 10 1 76 0 75 4 77 25 10 37 77 16 66 25 69 40 7 28 34 10 19 28 10 13 40 
SRP0[ ]	/* SetRefPoint0 */
MDRP[10100]	/* MoveDirectRelPt */
MIRP[01100]	/* MoveIndirectRelPt */
MDRP[10100]	/* MoveDirectRelPt */
MIRP[01100]	/* MoveIndirectRelPt */
SRP1[ ]	/* SetRefPoint1 */
IP[ ]	/* InterpolatePts */
IUP[1]	/* InterpolateUntPts */
SVTCA[0]	/* SetFreedomAndProjectionVectorToAxis */
SRP0[ ]	/* SetRefPoint0 */
MIRP[00100]	/* MoveIndirectRelPt */
MIRP[10100]	/* MoveIndirectRelPt */
MIRP[01100]	/* MoveIndirectRelPt */
MDRP[00100]	/* MoveDirectRelPt */
SRP0[ ]	/* SetRefPoint0 */
MIRP[01110]	/* MoveIndirectRelPt */
MIRP[10110]	/* MoveIndirectRelPt */
MIRP[01110]	/* MoveIndirectRelPt */
SRP0[ ]	/* SetRefPoint0 */
MIRP[01110]	/* MoveIndirectRelPt */
IP[ ]	/* InterpolatePts */
IUP[0]	/* InterpolateUntPts */";
};
width = 1233;
}
);
note = nine;
unicode = 57;
},
{
glyphname = colon;
layers = (
{
layerId = m01;
shapes = (
{
closed = 1;
nodes = (
(772,698,l),
(844,1063,l),
(510,1063,l),
(438,698,l)
);
},
{
closed = 1;
nodes = (
(639,0,l),
(709,367,l),
(375,367,l),
(305,0,l)
);
}
);
userData = {
assembly = "NPUSHB[ ]	/* 41 values pushed */
2 6 3 0 3 1 6 0 0 3 6 6 7 4 7 5 6 4 4 7 52 2 73 0 78 4 73 6 6 5 2 3 1 3 1 0 12 4 1 7 8 
SRP0[ ]	/* SetRefPoint0 */
MDRP[10100]	/* MoveDirectRelPt */
MIRP[00100]	/* MoveIndirectRelPt */
MIRP[10100]	/* MoveIndirectRelPt */
MIRP[00100]	/* MoveIndirectRelPt */
MDRP[00000]	/* MoveDirectRelPt */
SLOOP[ ]	/* SetLoopVariable */
IP[ ]	/* InterpolatePts */
IUP[1]	/* InterpolateUntPts */
SVTCA[0]	/* SetFreedomAndProjectionVectorToAxis */
MDAP[1]	/* MoveDirectAbsPt */
MIRP[01100]	/* MoveIndirectRelPt */
MIRP[11100]	/* MoveIndirectRelPt */
MIRP[01100]	/* MoveIndirectRelPt */
IUP[0]	/* InterpolateUntPts */
MPPEM[ ]	/* MeasurePixelPerEm */
GTEQ[ ]	/* GreaterThanOrEqual */
IF[ ]	/* If */
SPVTL[1]	/* SetPVectorToLine */
SRP0[ ]	/* SetRefPoint0 */
SFVTCA[1]	/* SetFVectorToAxis */
MIRP[01101]	/* MoveIndirectRelPt */
SPVTL[1]	/* SetPVectorToLine */
SRP0[ ]	/* SetRefPoint0 */
SFVTCA[1]	/* SetFVectorToAxis */
MIRP[01101]	/* MoveIndirectRelPt */
SPVTL[1]	/* SetPVectorToLine */
SRP0[ ]	/* SetRefPoint0 */
SFVTCA[1]	/* SetFVectorToAxis */
MIRP[01101]	/* MoveIndirectRelPt */
SPVTL[1]	/* SetPVectorToLine */
SRP0[ ]	/* SetRefPoint0 */
SFVTCA[1]	/* SetFVectorToAxis */
MIRP[01101]	/* MoveIndirectRelPt */
EIF[ ]	/* EndIf */
CLEAR[ ]	/* ClearStack */";
};
width = 1233;
}
);
note = colon;
unicode = 58;
},
{
glyphname = semicolon;
layers = (
{
layerId = m01;
shapes = (
{
closed = 1;
nodes = (
(170,-287,l),
(385,-287,l),
(655,96,l),
(709,367,l),
(375,367,l),
(322,96,l)
);
},
{
closed = 1;
nodes = (
(772,698,l),
(844,1063,l),
(510,1063,l),
(438,698,l)
);
}
);
userData = {
assembly = "NPUSHB[ ]	/* 34 values pushed */
3 1 4 2 6 5 0 5 1 6 0 0 5 52 8 73 6 3 0 73 6 78 10 8 1 7 9 1 6 5 1 4 0 10 
SRP0[ ]	/* SetRefPoint0 */
MDRP[10100]	/* MoveDirectRelPt */
MDRP[00100]	/* MoveDirectRelPt */
MIRP[00100]	/* MoveIndirectRelPt */
MDRP[10100]	/* MoveDirectRelPt */
MIRP[00100]	/* MoveIndirectRelPt */
MDRP[00000]	/* MoveDirectRelPt */
IP[ ]	/* InterpolatePts */
IP[ ]	/* InterpolatePts */
IUP[1]	/* InterpolateUntPts */
SVTCA[0]	/* SetFreedomAndProjectionVectorToAxis */
SRP0[ ]	/* SetRefPoint0 */
MIRP[01100]	/* MoveIndirectRelPt */
MIRP[11100]	/* MoveIndirectRelPt */
MDRP[01100]	/* MoveDirectRelPt */
SRP0[ ]	/* SetRefPoint0 */
MIRP[01110]	/* MoveIndirectRelPt */
IUP[0]	/* InterpolateUntPts */
MPPEM[ ]	/* MeasurePixelPerEm */
GTEQ[ ]	/* GreaterThanOrEqual */
IF[ ]	/* If */
SPVTL[1]	/* SetPVectorToLine */
SRP0[ ]	/* SetRefPoint0 */
SFVTCA[1]	/* SetFVectorToAxis */
MIRP[01101]	/* MoveIndirectRelPt */
SPVTL[1]	/* SetPVectorToLine */
SRP0[ ]	/* SetRefPoint0 */
SFVTCA[1]	/* SetFVectorToAxis */
MIRP[01101]	/* MoveIndirectRelPt */
SRP1[ ]	/* SetRefPoint1 */
SLOOP[ ]	/* SetLoopVariable */
IP[ ]	/* InterpolatePts */
EIF[ ]	/* EndIf */
CLEAR[ ]	/* ClearStack */";
};
width = 1233;
}
);
note = semicolon;
unicode = 59;
},
{
glyphname = less;
layers = (
{
layerId = m01;
shapes = (
{
closed = 1;
nodes = (
(88,760,l),
(88,524,l),
(1145,109,l),
(1145,358,l),
(350,641,l),
(1145,926,l),
(1145,1176,l)
);
}
);
userData = {
assembly = "NPUSHB[ ]	/* 16 values pushed */
5 4 2 1 0 5 3 6 7 1 2 0 14 4 13 7 
SRP0[ ]	/* SetRefPoint0 */
MIRP[11100]	/* MoveIndirectRelPt */
MIRP[01100]	/* MoveIndirectRelPt */
SHP[0]	/* ShiftPointByLastPoint */
IP[ ]	/* InterpolatePts */
IUP[1]	/* InterpolateUntPts */
SVTCA[0]	/* SetFreedomAndProjectionVectorToAxis */
SRP0[ ]	/* SetRefPoint0 */
MDRP[10100]	/* MoveDirectRelPt */
MDRP[01100]	/* MoveDirectRelPt */
SLOOP[ ]	/* SetLoopVariable */
IP[ ]	/* InterpolatePts */
IUP[0]	/* InterpolateUntPts */";
};
width = 1233;
}
);
note = less;
unicode = 60;
},
{
glyphname = equal;
layers = (
{
layerId = m01;
shapes = (
{
closed = 1;
nodes = (
(1145,295,l),
(1145,532,l),
(88,532,l),
(88,295,l)
);
},
{
closed = 1;
nodes = (
(1145,752,l),
(1145,987,l),
(88,987,l),
(88,752,l)
);
}
);
userData = {
assembly = "NPUSHB[ ]	/* 14 values pushed */
4 72 6 2 72 0 8 5 1 14 4 0 13 8 
SRP0[ ]	/* SetRefPoint0 */
MIRP[11100]	/* MoveIndirectRelPt */
ALIGNRP[ ]	/* AlignRelativePt */
MIRP[01100]	/* MoveIndirectRelPt */
SHP[0]	/* ShiftPointByLastPoint */
IUP[1]	/* InterpolateUntPts */
SVTCA[0]	/* SetFreedomAndProjectionVectorToAxis */
SRP0[ ]	/* SetRefPoint0 */
MDRP[10100]	/* MoveDirectRelPt */
MIRP[01100]	/* MoveIndirectRelPt */
MDRP[10100]	/* MoveDirectRelPt */
MIRP[01100]	/* MoveIndirectRelPt */
IUP[0]	/* InterpolateUntPts */";
};
width = 1233;
}
);
note = equal;
unicode = 61;
},
{
glyphname = greater;
layers = (
{
layerId = m01;
shapes = (
{
closed = 1;
nodes = (
(88,358,l),
(88,109,l),
(1145,524,l),
(1145,760,l),
(88,1176,l),
(88,926,l),
(883,641,l)
);
}
);
userData = {
assembly = "NPUSHB[ ]	/* 16 values pushed */
6 5 3 2 0 5 4 1 7 6 2 14 4 0 13 7 
SRP0[ ]	/* SetRefPoint0 */
MIRP[11100]	/* MoveIndirectRelPt */
ALIGNRP[ ]	/* AlignRelativePt */
MIRP[01100]	/* MoveIndirectRelPt */
IP[ ]	/* InterpolatePts */
IUP[1]	/* InterpolateUntPts */
SVTCA[0]	/* SetFreedomAndProjectionVectorToAxis */
SRP0[ ]	/* SetRefPoint0 */
MDRP[10100]	/* MoveDirectRelPt */
MDRP[01100]	/* MoveDirectRelPt */
SLOOP[ ]	/* SetLoopVariable */
IP[ ]	/* InterpolatePts */
IUP[0]	/* InterpolateUntPts */";
};
width = 1233;
}
);
note = greater;
unicode = 62;
},
{
glyphname = question;
layers = (
{
layerId = m01;
shapes = (
{
closed = 1;
nodes = (
(557,0,l),
(612,283,l),
(346,283,l),
(291,0,l)
);
},
{
closed = 1;
nodes = (
(687,664,o),
(813,769,qs),
(821,776,l),
(926,862,ls),
(1043,960,o),
(1141,1126,o),
(1141,1221,qs),
(1141,1355,o),
(943,1520,o),
(778,1520,qs),
(674,1520,o),
(460,1462,o),
(358,1407,q),
(305,1139,l),
(421,1211,o),
(626,1284,o),
(715,1284,qs),
(784,1284,o),
(858,1222,o),
(858,1165,qs),
(858,1098,o),
(713,972,qs),
(705,965,l),
(598,872,ls),
(505,794,o),
(417,651,o),
(399,555,qs),
(369,401,l),
(635,401,l),
(659,524,ls)
);
}
);
userData = {
assembly = "NPUSHB[ ]	/* 75 values pushed */
4 3 5 6 5 28 29 30 31 32 5 27 33 3 6 6 5 2 3 3 0 3 1 3 0 0 3 52 11 16 10 33 31 9 6 4 10 29 4 19 59 20 4 0 16 60 20 23 66 0 2 29 26 33 31 11 9 6 5 4 2 1 9 20 0 13 15 26 0 1 3 26 19 3 34 
SRP0[ ]	/* SetRefPoint0 */
MDRP[00100]	/* MoveDirectRelPt */
MDRP[10100]	/* MoveDirectRelPt */
MDRP[00100]	/* MoveDirectRelPt */
SRP0[ ]	/* SetRefPoint0 */
MIRP[00110]	/* MoveIndirectRelPt */
SRP0[ ]	/* SetRefPoint0 */
MIRP[01110]	/* MoveIndirectRelPt */
SRP1[ ]	/* SetRefPoint1 */
IP[ ]	/* InterpolatePts */
SLOOP[ ]	/* SetLoopVariable */
IP[ ]	/* InterpolatePts */
SRP1[ ]	/* SetRefPoint1 */
IP[ ]	/* InterpolatePts */
IUP[1]	/* InterpolateUntPts */
SVTCA[0]	/* SetFreedomAndProjectionVectorToAxis */
MDAP[1]	/* MoveDirectAbsPt */
MDRP[01110]	/* MoveDirectRelPt */
MIRP[10110]	/* MoveIndirectRelPt */
MDRP[00110]	/* MoveDirectRelPt */
MIRP[01110]	/* MoveIndirectRelPt */
SRP0[ ]	/* SetRefPoint0 */
MDRP[01101]	/* MoveDirectRelPt */
SRP0[ ]	/* SetRefPoint0 */
MIRP[01110]	/* MoveIndirectRelPt */
SRP1[ ]	/* SetRefPoint1 */
IP[ ]	/* InterpolatePts */
IP[ ]	/* InterpolatePts */
SLOOP[ ]	/* SetLoopVariable */
IP[ ]	/* InterpolatePts */
SRP1[ ]	/* SetRefPoint1 */
SRP2[ ]	/* SetRefPoint2 */
IP[ ]	/* InterpolatePts */
IUP[0]	/* InterpolateUntPts */
MPPEM[ ]	/* MeasurePixelPerEm */
GTEQ[ ]	/* GreaterThanOrEqual */
IF[ ]	/* If */
SPVTL[1]	/* SetPVectorToLine */
SRP0[ ]	/* SetRefPoint0 */
SFVTCA[1]	/* SetFVectorToAxis */
MIRP[01101]	/* MoveIndirectRelPt */
SPVTL[1]	/* SetPVectorToLine */
SRP0[ ]	/* SetRefPoint0 */
SFVTCA[1]	/* SetFVectorToAxis */
MIRP[01101]	/* MoveIndirectRelPt */
SPVTL[1]	/* SetPVectorToLine */
SRP0[ ]	/* SetRefPoint0 */
SFVTCA[1]	/* SetFVectorToAxis */
MIRP[01101]	/* MoveIndirectRelPt */
SRP1[ ]	/* SetRefPoint1 */
SLOOP[ ]	/* SetLoopVariable */
IP[ ]	/* InterpolatePts */
SPVTL[1]	/* SetPVectorToLine */
SRP0[ ]	/* SetRefPoint0 */
SFVTCA[1]	/* SetFVectorToAxis */
MIRP[01101]	/* MoveIndirectRelPt */
EIF[ ]	/* EndIf */
CLEAR[ ]	/* ClearStack */";
};
width = 1233;
}
);
note = question;
unicode = 63;
},
{
glyphname = at;
layers = (
{
layerId = m01;
shapes = (
{
closed = 1;
nodes = (
(571,394,o),
(571,477,qs),
(571,607,o),
(714,786,o),
(817,786,qs),
(888,786,o),
(969,698,o),
(969,621,qs),
(969,484,o),
(827,301,o),
(723,301,qs),
(651,301,o)
);
},
{
closed = 1;
nodes = (
(1222,928,o),
(1229,992,o),
(1229,1022,qs),
(1229,1190,o),
(993,1395,o),
(799,1395,qs),
(610,1395,o),
(274,1190,o),
(158,1004,qs),
(74,867,o),
(-14,551,o),
(-14,387,qs),
(-14,63,o),
(321,-319,o),
(606,-319,qs),
(701,-319,o),
(892,-266,o),
(999,-209,q),
(936,-35,l),
(855,-83,o),
(693,-131,o),
(614,-131,qs),
(414,-131,o),
(178,148,o),
(178,387,qs),
(178,542,o),
(274,838,o),
(365,961,qs),
(453,1079,o),
(679,1206,o),
(803,1206,qs),
(908,1206,o),
(1032,1099,o),
(1032,1008,qs),
(1032,978,o),
(1023,912,o),
(1014,877,q),
(985,924,o),
(881,973,o),
(809,973,qs),
(626,973,o),
(371,666,o),
(371,444,qs),
(371,291,o),
(531,115,o),
(670,115,qs),
(730,115,o),
(844,168,o),
(887,217,q),
(870,135,l),
(1067,135,l),
(1214,892,ls)
);
}
);
userData = {
assembly = "NPUSHB[ ]	/* 52 values pushed */
45 48 41 63 26 23 6 14 12 0 6 79 23 0 79 12 17 80 44 41 79 48 23 80 32 79 48 57 64 63 12 60 13 3 14 26 44 45 4 29 9 16 20 29 16 60 20 38 16 60 51 64 
SRP0[ ]	/* SetRefPoint0 */
MDRP[10100]	/* MoveDirectRelPt */
MDRP[00100]	/* MoveDirectRelPt */
MIRP[11100]	/* MoveIndirectRelPt */
MDRP[00100]	/* MoveDirectRelPt */
SRP0[ ]	/* SetRefPoint0 */
MIRP[01110]	/* MoveIndirectRelPt */
SRP0[ ]	/* SetRefPoint0 */
MIRP[01110]	/* MoveIndirectRelPt */
SRP1[ ]	/* SetRefPoint1 */
SLOOP[ ]	/* SetLoopVariable */
IP[ ]	/* InterpolatePts */
IP[ ]	/* InterpolatePts */
IP[ ]	/* InterpolatePts */
SRP2[ ]	/* SetRefPoint2 */
IP[ ]	/* InterpolatePts */
IP[ ]	/* InterpolatePts */
IUP[1]	/* InterpolateUntPts */
SVTCA[0]	/* SetFreedomAndProjectionVectorToAxis */
SRP0[ ]	/* SetRefPoint0 */
MDRP[10100]	/* MoveDirectRelPt */
MDRP[00100]	/* MoveDirectRelPt */
MIRP[11100]	/* MoveIndirectRelPt */
MIRP[01100]	/* MoveIndirectRelPt */
SRP0[ ]	/* SetRefPoint0 */
MIRP[11110]	/* MoveIndirectRelPt */
MDRP[00100]	/* MoveDirectRelPt */
MIRP[11101]	/* MoveIndirectRelPt */
MDRP[00100]	/* MoveDirectRelPt */
MIRP[01110]	/* MoveIndirectRelPt */
SRP0[ ]	/* SetRefPoint0 */
MIRP[01110]	/* MoveIndirectRelPt */
SRP1[ ]	/* SetRefPoint1 */
SRP2[ ]	/* SetRefPoint2 */
IP[ ]	/* InterpolatePts */
SRP1[ ]	/* SetRefPoint1 */
SRP2[ ]	/* SetRefPoint2 */
IP[ ]	/* InterpolatePts */
IP[ ]	/* InterpolatePts */
SRP1[ ]	/* SetRefPoint1 */
SRP2[ ]	/* SetRefPoint2 */
IP[ ]	/* InterpolatePts */
IUP[0]	/* InterpolateUntPts */";
};
width = 1233;
}
);
note = at;
unicode = 64;
},
{
glyphname = A;
layers = (
{
layerId = m01;
shapes = (
{
closed = 1;
nodes = (
(453,612,l),
(717,1219,l),
(737,612,l)
);
},
{
closed = 1;
nodes = (
(186,0,l),
(348,369,l),
(748,369,l),
(762,0,l),
(1055,0,l),
(942,1493,l),
(582,1493,l),
(-113,0,l)
);
}
);
userData = {
assembly = "NPUSHB[ ]	/* 58 values pushed */
7 5 4 6 5 5 4 0 1 0 4 5 4 2 5 5 4 9 3 10 8 3 10 1 10 3 10 0 2 0 3 3 10 52 0 3 7 60 1 81 3 57 9 5 9 8 7 6 4 3 2 1 0 9 11 5 10 11 
SRP0[ ]	/* SetRefPoint0 */
MDRP[10100]	/* MoveDirectRelPt */
MDRP[01100]	/* MoveDirectRelPt */
SRP1[ ]	/* SetRefPoint1 */
SLOOP[ ]	/* SetLoopVariable */
IP[ ]	/* InterpolatePts */
IUP[1]	/* InterpolateUntPts */
SVTCA[0]	/* SetFreedomAndProjectionVectorToAxis */
MDAP[1]	/* MoveDirectAbsPt */
ALIGNRP[ ]	/* AlignRelativePt */
MIRP[00100]	/* MoveIndirectRelPt */
MIRP[11100]	/* MoveIndirectRelPt */
MIRP[01100]	/* MoveIndirectRelPt */
SRP2[ ]	/* SetRefPoint2 */
IP[ ]	/* InterpolatePts */
IUP[0]	/* InterpolateUntPts */
MPPEM[ ]	/* MeasurePixelPerEm */
GTEQ[ ]	/* GreaterThanOrEqual */
IF[ ]	/* If */
SPVTL[1]	/* SetPVectorToLine */
SRP0[ ]	/* SetRefPoint0 */
SFVTL[0]	/* SetFVectorToLine */
MDRP[01001]	/* MoveDirectRelPt */
SPVTL[1]	/* SetPVectorToLine */
SRP0[ ]	/* SetRefPoint0 */
SFVTCA[1]	/* SetFVectorToAxis */
MDRP[01001]	/* MoveDirectRelPt */
SPVTL[1]	/* SetPVectorToLine */
SFVTCA[1]	/* SetFVectorToAxis */
MDRP[01001]	/* MoveDirectRelPt */
SPVTL[1]	/* SetPVectorToLine */
SFVTCA[1]	/* SetFVectorToAxis */
MDRP[01001]	/* MoveDirectRelPt */
SPVTL[1]	/* SetPVectorToLine */
SRP0[ ]	/* SetRefPoint0 */
SFVTCA[1]	/* SetFVectorToAxis */
MDRP[01001]	/* MoveDirectRelPt */
SPVTL[1]	/* SetPVectorToLine */
SRP0[ ]	/* SetRefPoint0 */
SFVTL[0]	/* SetFVectorToLine */
MDRP[01001]	/* MoveDirectRelPt */
SPVTL[1]	/* SetPVectorToLine */
SRP0[ ]	/* SetRefPoint0 */
SFVTCA[1]	/* SetFVectorToAxis */
MDRP[01001]	/* MoveDirectRelPt */
SPVTL[1]	/* SetPVectorToLine */
SFVTCA[1]	/* SetFVectorToAxis */
MDRP[01001]	/* MoveDirectRelPt */
EIF[ ]	/* EndIf */
CLEAR[ ]	/* ClearStack */";
};
width = 1233;
}
);
note = A;
unicode = 65;
},
{
glyphname = B;
layers = (
{
layerId = m01;
shapes = (
{
closed = 1;
nodes = (
(705,678,o),
(811,596,o),
(811,510,qs),
(811,369,o),
(664,236,o),
(508,236,qs),
(311,236,l),
(397,678,l),
(594,678,ls)
);
},
{
closed = 1;
nodes = (
(797,1260,o),
(883,1196,o),
(883,1128,qs),
(883,1022,o),
(760,913,o),
(639,913,qs),
(442,913,l),
(510,1260,l),
(707,1260,ls)
);
},
{
closed = 1;
nodes = (
(461,0,ls),
(656,0,o),
(886,60,o),
(961,127,qs),
(1030,190,o),
(1106,377,o),
(1106,485,qs),
(1106,616,o),
(952,774,o),
(813,786,q),
(988,806,o),
(1178,1004,o),
(1178,1165,qs),
(1178,1329,o),
(963,1495,o),
(752,1495,qs),
(270,1495,l),
(-20,0,l)
);
}
);
userData = {
assembly = "NPUSHB[ ]	/* 73 values pushed */
3 2 2 4 1 17 35 18 7 8 2 6 0 17 35 35 18 12 11 2 13 10 17 18 35 16 17 2 15 9 17 18 18 35 52 25 0 84 10 9 84 18 57 1 84 10 83 34 10 9 8 2 1 0 6 11 17 19 34 4 18 25 14 5 8 28 14 8 22 18 0 35 36 
SRP0[ ]	/* SetRefPoint0 */
MDRP[10100]	/* MoveDirectRelPt */
MIRP[10100]	/* MoveIndirectRelPt */
MDRP[10100]	/* MoveDirectRelPt */
MIRP[01100]	/* MoveIndirectRelPt */
MDRP[10100]	/* MoveDirectRelPt */
MIRP[01100]	/* MoveIndirectRelPt */
SRP1[ ]	/* SetRefPoint1 */
IP[ ]	/* InterpolatePts */
SRP1[ ]	/* SetRefPoint1 */
SLOOP[ ]	/* SetLoopVariable */
IP[ ]	/* InterpolatePts */
SLOOP[ ]	/* SetLoopVariable */
IP[ ]	/* InterpolatePts */
IUP[1]	/* InterpolateUntPts */
SVTCA[0]	/* SetFreedomAndProjectionVectorToAxis */
MDAP[1]	/* MoveDirectAbsPt */
MIRP[00100]	/* MoveIndirectRelPt */
MIRP[01100]	/* MoveIndirectRelPt */
MIRP[10100]	/* MoveIndirectRelPt */
MIRP[01100]	/* MoveIndirectRelPt */
SRP0[ ]	/* SetRefPoint0 */
MIRP[01110]	/* MoveIndirectRelPt */
IP[ ]	/* InterpolatePts */
IUP[0]	/* InterpolateUntPts */
MPPEM[ ]	/* MeasurePixelPerEm */
GTEQ[ ]	/* GreaterThanOrEqual */
IF[ ]	/* If */
SPVTL[1]	/* SetPVectorToLine */
SRP0[ ]	/* SetRefPoint0 */
SFVTCA[1]	/* SetFVectorToAxis */
MIRP[01101]	/* MoveIndirectRelPt */
SRP1[ ]	/* SetRefPoint1 */
SLOOP[ ]	/* SetLoopVariable */
IP[ ]	/* InterpolatePts */
SPVTL[1]	/* SetPVectorToLine */
SFVTCA[1]	/* SetFVectorToAxis */
MIRP[01101]	/* MoveIndirectRelPt */
SRP1[ ]	/* SetRefPoint1 */
SLOOP[ ]	/* SetLoopVariable */
IP[ ]	/* InterpolatePts */
SPVTL[1]	/* SetPVectorToLine */
SRP0[ ]	/* SetRefPoint0 */
SFVTCA[1]	/* SetFVectorToAxis */
MIRP[01101]	/* MoveIndirectRelPt */
SRP1[ ]	/* SetRefPoint1 */
SLOOP[ ]	/* SetLoopVariable */
IP[ ]	/* InterpolatePts */
SPVTL[1]	/* SetPVectorToLine */
SFVTCA[1]	/* SetFVectorToAxis */
MIRP[01101]	/* MoveIndirectRelPt */
SRP1[ ]	/* SetRefPoint1 */
SLOOP[ ]	/* SetLoopVariable */
IP[ ]	/* InterpolatePts */
EIF[ ]	/* EndIf */
CLEAR[ ]	/* ClearStack */
PUSHB[ ]	/* 3 values pushed */
31 15 1 
SVTCA[1]	/* SetFreedomAndProjectionVectorToAxis */
DELTAP1[ ]	/* DeltaExceptionP1 */
PUSHB[ ]	/* 5 values pushed */
31 13 31 14 2 
DELTAP1[ ]	/* DeltaExceptionP1 */";
};
width = 1233;
}
);
note = B;
unicode = 66;
},
{
glyphname = C;
layers = (
{
layerId = m01;
shapes = (
{
closed = 1;
nodes = (
(916,298,o),
(755,231,o),
(674,231,qs),
(556,231,o),
(430,386,o),
(430,532,qs),
(430,667,o),
(515,968,o),
(584,1075,qs),
(638,1160,o),
(792,1257,o),
(872,1257,qs),
(960,1257,o),
(1105,1188,o),
(1155,1120,q),
(1219,1448,l),
(1142,1484,o),
(985,1520,o),
(903,1520,qs),
(750,1520,o),
(490,1406,o),
(393,1296,qs),
(272,1159,o),
(131,736,o),
(131,506,qs),
(131,246,o),
(384,-29,o),
(623,-29,qs),
(708,-29,o),
(869,7,o),
(946,43,q),
(1010,371,l)
);
}
);
userData = {
assembly = "NPUSHB[ ]	/* 27 values pushed */
31 85 0 67 28 86 3 16 85 15 67 19 86 12 66 3 69 32 31 16 0 15 25 18 15 6 32 
SRP0[ ]	/* SetRefPoint0 */
MDRP[10100]	/* MoveDirectRelPt */
MDRP[00100]	/* MoveDirectRelPt */
MIRP[01100]	/* MoveIndirectRelPt */
SRP1[ ]	/* SetRefPoint1 */
IP[ ]	/* InterpolatePts */
IP[ ]	/* InterpolatePts */
IP[ ]	/* InterpolatePts */
IUP[1]	/* InterpolateUntPts */
SVTCA[0]	/* SetFreedomAndProjectionVectorToAxis */
SRP0[ ]	/* SetRefPoint0 */
MIRP[00100]	/* MoveIndirectRelPt */
MIRP[10100]	/* MoveIndirectRelPt */
MIRP[01100]	/* MoveIndirectRelPt */
MIRP[10100]	/* MoveIndirectRelPt */
MIRP[01100]	/* MoveIndirectRelPt */
SRP0[ ]	/* SetRefPoint0 */
MIRP[01110]	/* MoveIndirectRelPt */
MIRP[10110]	/* MoveIndirectRelPt */
MIRP[01110]	/* MoveIndirectRelPt */
IUP[0]	/* InterpolateUntPts */
SVTCA[1]	/* SetFreedomAndProjectionVectorToAxis */
MPPEM[ ]	/* MeasurePixelPerEm */
PUSHB[ ]	/* 1 value pushed */
10 
EQ[ ]	/* Equal */
IF[ ]	/* If */
PUSHW[ ]	/* 6 values pushed */
32 64 1 32 32 -64 
SHPIX[ ]	/* ShiftZoneByPixel */
SRP1[ ]	/* SetRefPoint1 */
SHZ[1]	/* ShiftZoneByLastPoint */
SHPIX[ ]	/* ShiftZoneByPixel */
EIF[ ]	/* EndIf */";
};
width = 1233;
}
);
note = C;
unicode = 67;
},
{
glyphname = D;
layers = (
{
layerId = m01;
shapes = (
{
closed = 1;
nodes = (
(735,1227,o),
(860,1099,o),
(860,967,qs),
(860,841,o),
(795,548,o),
(743,442,qs),
(700,354,o),
(546,266,o),
(434,266,qs),
(338,266,l),
(524,1227,l),
(606,1227,ls)
);
},
{
closed = 1;
nodes = (
(322,0,ls),
(541,0,o),
(803,80,o),
(897,172,qs),
(969,241,o),
(1073,451,o),
(1110,602,qs),
(1138,715,o),
(1165,912,o),
(1165,999,qs),
(1165,1247,o),
(883,1493,o),
(598,1493,qs),
(283,1493,l),
(-8,0,l)
);
}
);
userData = {
assembly = "NPUSHB[ ]	/* 43 values pushed */
6 5 4 3 2 5 7 1 17 26 26 12 10 11 2 9 0 17 26 12 52 0 86 12 57 1 86 25 11 2 1 0 4 13 25 12 8 18 16 12 0 26 27 
SRP0[ ]	/* SetRefPoint0 */
MDRP[10100]	/* MoveDirectRelPt */
MIRP[10100]	/* MoveIndirectRelPt */
MDRP[10100]	/* MoveDirectRelPt */
MIRP[01100]	/* MoveIndirectRelPt */
SRP1[ ]	/* SetRefPoint1 */
IP[ ]	/* InterpolatePts */
IP[ ]	/* InterpolatePts */
SLOOP[ ]	/* SetLoopVariable */
IP[ ]	/* InterpolatePts */
IUP[1]	/* InterpolateUntPts */
SVTCA[0]	/* SetFreedomAndProjectionVectorToAxis */
MDAP[1]	/* MoveDirectAbsPt */
MIRP[01100]	/* MoveIndirectRelPt */
MIRP[10100]	/* MoveIndirectRelPt */
MIRP[01100]	/* MoveIndirectRelPt */
IUP[0]	/* InterpolateUntPts */
MPPEM[ ]	/* MeasurePixelPerEm */
GTEQ[ ]	/* GreaterThanOrEqual */
IF[ ]	/* If */
SPVTL[1]	/* SetPVectorToLine */
SFVTCA[1]	/* SetFVectorToAxis */
MIRP[01101]	/* MoveIndirectRelPt */
SRP1[ ]	/* SetRefPoint1 */
SLOOP[ ]	/* SetLoopVariable */
IP[ ]	/* InterpolatePts */
SPVTL[1]	/* SetPVectorToLine */
SRP0[ ]	/* SetRefPoint0 */
SFVTCA[1]	/* SetFVectorToAxis */
MIRP[01101]	/* MoveIndirectRelPt */
SRP1[ ]	/* SetRefPoint1 */
SLOOP[ ]	/* SetLoopVariable */
IP[ ]	/* InterpolatePts */
EIF[ ]	/* EndIf */
CLEAR[ ]	/* ClearStack */
PUSHB[ ]	/* 3 values pushed */
31 9 1 
SVTCA[1]	/* SetFreedomAndProjectionVectorToAxis */
DELTAP1[ ]	/* DeltaExceptionP1 */
PUSHB[ ]	/* 5 values pushed */
31 7 31 8 2 
DELTAP1[ ]	/* DeltaExceptionP1 */";
};
width = 1233;
}
);
note = D;
unicode = 68;
},
{
glyphname = E;
layers = (
{
layerId = m01;
shapes = (
{
closed = 1;
nodes = (
(375,260,l),
(451,651,l),
(1026,651,l),
(1075,911,l),
(500,911,l),
(563,1233,l),
(1198,1233,l),
(1249,1493,l),
(317,1493,l),
(29,0,l),
(958,0,l),
(1010,260,l)
);
}
);
userData = {
assembly = "NPUSHB[ ]	/* 47 values pushed */
10 17 2 1 9 17 1 2 1 6 17 2 1 5 17 2 2 1 52 8 86 6 4 86 2 57 10 86 6 83 0 11 10 9 8 7 6 5 4 0 9 3 2 0 3 1 12 
SRP0[ ]	/* SetRefPoint0 */
MDRP[10100]	/* MoveDirectRelPt */
MDRP[00100]	/* MoveDirectRelPt */
MIRP[00100]	/* MoveIndirectRelPt */
SRP1[ ]	/* SetRefPoint1 */
SLOOP[ ]	/* SetLoopVariable */
IP[ ]	/* InterpolatePts */
IUP[1]	/* InterpolateUntPts */
SVTCA[0]	/* SetFreedomAndProjectionVectorToAxis */
MDAP[1]	/* MoveDirectAbsPt */
MIRP[00100]	/* MoveIndirectRelPt */
MIRP[01100]	/* MoveIndirectRelPt */
MIRP[10100]	/* MoveIndirectRelPt */
MIRP[01100]	/* MoveIndirectRelPt */
SRP0[ ]	/* SetRefPoint0 */
MIRP[01110]	/* MoveIndirectRelPt */
IUP[0]	/* InterpolateUntPts */
MPPEM[ ]	/* MeasurePixelPerEm */
GTEQ[ ]	/* GreaterThanOrEqual */
IF[ ]	/* If */
SPVTL[1]	/* SetPVectorToLine */
SRP0[ ]	/* SetRefPoint0 */
SFVTCA[1]	/* SetFVectorToAxis */
MIRP[01101]	/* MoveIndirectRelPt */
SPVTL[1]	/* SetPVectorToLine */
SFVTCA[1]	/* SetFVectorToAxis */
MIRP[01101]	/* MoveIndirectRelPt */
SPVTL[1]	/* SetPVectorToLine */
SRP0[ ]	/* SetRefPoint0 */
SFVTCA[1]	/* SetFVectorToAxis */
MIRP[01101]	/* MoveIndirectRelPt */
SPVTL[1]	/* SetPVectorToLine */
SFVTCA[1]	/* SetFVectorToAxis */
MIRP[01101]	/* MoveIndirectRelPt */
EIF[ ]	/* EndIf */
CLEAR[ ]	/* ClearStack */";
};
width = 1233;
}
);
note = E;
unicode = 69;
},
{
glyphname = F;
layers = (
{
layerId = m01;
shapes = (
{
closed = 1;
nodes = (
(338,1493,l),
(47,0,l),
(342,0,l),
(469,651,l),
(1047,651,l),
(1098,911,l),
(520,911,l),
(582,1233,l),
(1217,1233,l),
(1268,1493,l)
);
}
);
userData = {
assembly = "NPUSHB[ ]	/* 43 values pushed */
6 17 8 7 5 17 7 8 7 2 17 8 7 1 17 8 8 7 52 4 86 2 0 86 8 57 2 83 6 6 5 4 3 2 1 0 7 9 8 0 9 7 10 
SRP0[ ]	/* SetRefPoint0 */
MDRP[10100]	/* MoveDirectRelPt */
MDRP[00100]	/* MoveDirectRelPt */
MIRP[00100]	/* MoveIndirectRelPt */
SRP1[ ]	/* SetRefPoint1 */
SLOOP[ ]	/* SetLoopVariable */
IP[ ]	/* InterpolatePts */
IUP[1]	/* InterpolateUntPts */
SVTCA[0]	/* SetFreedomAndProjectionVectorToAxis */
MDAP[1]	/* MoveDirectAbsPt */
MIRP[00100]	/* MoveIndirectRelPt */
MIRP[10100]	/* MoveIndirectRelPt */
MIRP[01100]	/* MoveIndirectRelPt */
SRP0[ ]	/* SetRefPoint0 */
MIRP[01110]	/* MoveIndirectRelPt */
IUP[0]	/* InterpolateUntPts */
MPPEM[ ]	/* MeasurePixelPerEm */
GTEQ[ ]	/* GreaterThanOrEqual */
IF[ ]	/* If */
SPVTL[1]	/* SetPVectorToLine */
SRP0[ ]	/* SetRefPoint0 */
SFVTCA[1]	/* SetFVectorToAxis */
MIRP[01101]	/* MoveIndirectRelPt */
SPVTL[1]	/* SetPVectorToLine */
SFVTCA[1]	/* SetFVectorToAxis */
MIRP[01101]	/* MoveIndirectRelPt */
SPVTL[1]	/* SetPVectorToLine */
SRP0[ ]	/* SetRefPoint0 */
SFVTCA[1]	/* SetFVectorToAxis */
MIRP[01101]	/* MoveIndirectRelPt */
SPVTL[1]	/* SetPVectorToLine */
SFVTCA[1]	/* SetFVectorToAxis */
MIRP[01101]	/* MoveIndirectRelPt */
EIF[ ]	/* EndIf */
CLEAR[ ]	/* ClearStack */";
};
width = 1233;
}
);
note = F;
unicode = 70;
},
{
glyphname = G;
layers = (
{
layerId = m01;
shapes = (
{
closed = 1;
nodes = (
(670,803,l),
(621,555,l),
(827,555,l),
(770,264,l),
(746,248,o),
(683,231,o),
(647,231,qs),
(531,231,o),
(403,388,o),
(403,532,qs),
(403,610,o),
(437,793,o),
(469,891,qs),
(494,968,o),
(563,1094,o),
(604,1141,qs),
(656,1198,o),
(785,1257,o),
(856,1257,qs),
(937,1257,o),
(1075,1187,o),
(1126,1120,q),
(1192,1448,l),
(1115,1484,o),
(958,1520,o),
(877,1520,qs),
(725,1520,o),
(465,1405,o),
(367,1294,qs),
(247,1159,o),
(102,739,o),
(102,524,qs),
(102,261,o),
(368,-29,o),
(610,-29,qs),
(725,-29,o),
(921,35,o),
(991,94,q),
(1130,803,l)
);
}
);
userData = {
assembly = "NPUSHB[ ]	/* 51 values pushed */
35 3 38 0 38 32 33 2 31 34 3 0 0 38 52 34 35 0 31 3 35 86 37 31 86 3 16 85 15 67 19 86 12 66 3 69 39 37 36 35 34 16 5 0 28 38 15 28 18 6 39 
SRP0[ ]	/* SetRefPoint0 */
MDRP[10100]	/* MoveDirectRelPt */
MIRP[01100]	/* MoveIndirectRelPt */
MDRP[10100]	/* MoveDirectRelPt */
MDRP[00100]	/* MoveDirectRelPt */
SRP1[ ]	/* SetRefPoint1 */
IP[ ]	/* InterpolatePts */
SLOOP[ ]	/* SetLoopVariable */
IP[ ]	/* InterpolatePts */
IUP[1]	/* InterpolateUntPts */
SVTCA[0]	/* SetFreedomAndProjectionVectorToAxis */
SRP0[ ]	/* SetRefPoint0 */
MIRP[00100]	/* MoveIndirectRelPt */
MIRP[10100]	/* MoveIndirectRelPt */
MIRP[01100]	/* MoveIndirectRelPt */
MIRP[10100]	/* MoveIndirectRelPt */
MIRP[01100]	/* MoveIndirectRelPt */
SRP0[ ]	/* SetRefPoint0 */
MIRP[11110]	/* MoveIndirectRelPt */
MDRP[10100]	/* MoveDirectRelPt */
MIRP[01110]	/* MoveIndirectRelPt */
SRP1[ ]	/* SetRefPoint1 */
SRP2[ ]	/* SetRefPoint2 */
IP[ ]	/* InterpolatePts */
SRP1[ ]	/* SetRefPoint1 */
IP[ ]	/* InterpolatePts */
IUP[0]	/* InterpolateUntPts */
MPPEM[ ]	/* MeasurePixelPerEm */
GTEQ[ ]	/* GreaterThanOrEqual */
IF[ ]	/* If */
SPVTL[1]	/* SetPVectorToLine */
SRP0[ ]	/* SetRefPoint0 */
SFVTCA[1]	/* SetFVectorToAxis */
MIRP[01101]	/* MoveIndirectRelPt */
SRP1[ ]	/* SetRefPoint1 */
SLOOP[ ]	/* SetLoopVariable */
IP[ ]	/* InterpolatePts */
SPVTL[1]	/* SetPVectorToLine */
SRP0[ ]	/* SetRefPoint0 */
SFVTCA[1]	/* SetFVectorToAxis */
MIRP[01101]	/* MoveIndirectRelPt */
EIF[ ]	/* EndIf */
CLEAR[ ]	/* ClearStack */
SVTCA[1]	/* SetFreedomAndProjectionVectorToAxis */
MPPEM[ ]	/* MeasurePixelPerEm */
PUSHB[ ]	/* 1 value pushed */
10 
EQ[ ]	/* Equal */
IF[ ]	/* If */
PUSHW[ ]	/* 6 values pushed */
39 64 1 39 39 -64 
SHPIX[ ]	/* ShiftZoneByPixel */
SRP1[ ]	/* SetRefPoint1 */
SHZ[1]	/* ShiftZoneByLastPoint */
SHPIX[ ]	/* ShiftZoneByPixel */
EIF[ ]	/* EndIf */";
};
width = 1233;
}
);
note = G;
unicode = 71;
},
{
glyphname = H;
layers = (
{
layerId = m01;
shapes = (
{
closed = 1;
nodes = (
(287,0,l),
(416,664,l),
(784,664,l),
(655,0,l),
(950,0,l),
(1241,1493,l),
(946,1493,l),
(836,924,l),
(467,924,l),
(578,1493,l),
(283,1493,l),
(-8,0,l)
);
}
);
userData = {
assembly = "NPUSHB[ ]	/* 63 values pushed */
8 17 6 5 7 17 6 6 5 4 17 6 5 3 17 5 6 5 10 17 0 11 9 17 11 0 11 2 17 0 11 1 17 0 0 11 52 8 86 2 83 4 0 57 10 6 10 9 8 7 4 3 2 1 8 0 6 0 5 0 0 11 12 
SRP0[ ]	/* SetRefPoint0 */
MDRP[10100]	/* MoveDirectRelPt */
MIRP[00100]	/* MoveIndirectRelPt */
MDRP[10100]	/* MoveDirectRelPt */
MIRP[00100]	/* MoveIndirectRelPt */
SRP1[ ]	/* SetRefPoint1 */
SLOOP[ ]	/* SetLoopVariable */
IP[ ]	/* InterpolatePts */
IUP[1]	/* InterpolateUntPts */
SVTCA[0]	/* SetFreedomAndProjectionVectorToAxis */
MDAP[1]	/* MoveDirectAbsPt */
ALIGNRP[ ]	/* AlignRelativePt */
MIRP[00100]	/* MoveIndirectRelPt */
SHP[0]	/* ShiftPointByLastPoint */
MIRP[10100]	/* MoveIndirectRelPt */
MIRP[01100]	/* MoveIndirectRelPt */
IUP[0]	/* InterpolateUntPts */
MPPEM[ ]	/* MeasurePixelPerEm */
GTEQ[ ]	/* GreaterThanOrEqual */
IF[ ]	/* If */
SPVTL[1]	/* SetPVectorToLine */
SRP0[ ]	/* SetRefPoint0 */
SFVTCA[1]	/* SetFVectorToAxis */
MIRP[01101]	/* MoveIndirectRelPt */
SPVTL[1]	/* SetPVectorToLine */
SFVTCA[1]	/* SetFVectorToAxis */
MIRP[01101]	/* MoveIndirectRelPt */
SPVTL[1]	/* SetPVectorToLine */
SRP0[ ]	/* SetRefPoint0 */
SFVTCA[1]	/* SetFVectorToAxis */
MIRP[01101]	/* MoveIndirectRelPt */
SPVTL[1]	/* SetPVectorToLine */
SFVTCA[1]	/* SetFVectorToAxis */
MIRP[01101]	/* MoveIndirectRelPt */
SPVTL[1]	/* SetPVectorToLine */
SRP0[ ]	/* SetRefPoint0 */
SFVTCA[1]	/* SetFVectorToAxis */
MIRP[01101]	/* MoveIndirectRelPt */
SPVTL[1]	/* SetPVectorToLine */
SFVTCA[1]	/* SetFVectorToAxis */
MIRP[01101]	/* MoveIndirectRelPt */
SPVTL[1]	/* SetPVectorToLine */
SRP0[ ]	/* SetRefPoint0 */
SFVTCA[1]	/* SetFVectorToAxis */
MIRP[01101]	/* MoveIndirectRelPt */
SPVTL[1]	/* SetPVectorToLine */
SFVTCA[1]	/* SetFVectorToAxis */
MIRP[01101]	/* MoveIndirectRelPt */
EIF[ ]	/* EndIf */
CLEAR[ ]	/* ClearStack */
PUSHB[ ]	/* 3 values pushed */
80 8 1 
SVTCA[1]	/* SetFreedomAndProjectionVectorToAxis */
DELTAP1[ ]	/* DeltaExceptionP1 */
NPUSHB[ ]	/* 11 values pushed */
80 3 80 4 80 5 80 6 80 7 5 
DELTAP1[ ]	/* DeltaExceptionP1 */";
};
width = 1233;
}
);
note = H;
unicode = 72;
},
{
glyphname = I;
layers = (
{
layerId = m01;
shapes = (
{
closed = 1;
nodes = (
(375,260,l),
(78,260,l),
(27,0,l),
(915,0,l),
(967,260,l),
(670,260,l),
(858,1233,l),
(1155,1233,l),
(1206,1493,l),
(317,1493,l),
(266,1233,l),
(563,1233,l)
);
}
);
userData = {
assembly = "NPUSHB[ ]	/* 38 values pushed */
5 17 10 11 10 4 17 11 11 10 52 3 0 86 1 57 9 5 86 7 9 0 1 3 10 8 7 6 5 4 3 5 2 11 11 8 10 12 
SRP0[ ]	/* SetRefPoint0 */
MDRP[10100]	/* MoveDirectRelPt */
MDRP[00100]	/* MoveDirectRelPt */
MDRP[00100]	/* MoveDirectRelPt */
SRP0[ ]	/* SetRefPoint0 */
MDRP[00000]	/* MoveDirectRelPt */
SLOOP[ ]	/* SetLoopVariable */
IP[ ]	/* InterpolatePts */
SRP1[ ]	/* SetRefPoint1 */
SRP2[ ]	/* SetRefPoint2 */
SLOOP[ ]	/* SetLoopVariable */
IP[ ]	/* InterpolatePts */
IUP[1]	/* InterpolateUntPts */
SVTCA[0]	/* SetFreedomAndProjectionVectorToAxis */
MDAP[1]	/* MoveDirectAbsPt */
MIRP[01100]	/* MoveIndirectRelPt */
SHP[0]	/* ShiftPointByLastPoint */
MIRP[10100]	/* MoveIndirectRelPt */
MIRP[01100]	/* MoveIndirectRelPt */
SHP[0]	/* ShiftPointByLastPoint */
IUP[0]	/* InterpolateUntPts */
MPPEM[ ]	/* MeasurePixelPerEm */
GTEQ[ ]	/* GreaterThanOrEqual */
IF[ ]	/* If */
SPVTL[1]	/* SetPVectorToLine */
SRP0[ ]	/* SetRefPoint0 */
SFVTCA[1]	/* SetFVectorToAxis */
MIRP[01101]	/* MoveIndirectRelPt */
SPVTL[1]	/* SetPVectorToLine */
SRP0[ ]	/* SetRefPoint0 */
SFVTCA[1]	/* SetFVectorToAxis */
MIRP[01101]	/* MoveIndirectRelPt */
EIF[ ]	/* EndIf */
CLEAR[ ]	/* ClearStack */";
};
width = 1233;
}
);
note = I;
unicode = 73;
},
{
glyphname = J;
layers = (
{
layerId = m01;
shapes = (
{
closed = 1;
nodes = (
(299,-29,o),
(410,-29,qs),
(523,-29,o),
(705,27,o),
(772,82,qs),
(839,137,o),
(921,309,o),
(954,479,qs),
(1153,1493,l),
(498,1493,l),
(446,1233,l),
(807,1233,l),
(659,479,ls),
(632,339,o),
(519,231,o),
(403,231,qs),
(300,231,o),
(123,326,o),
(45,422,q),
(-20,78,l),
(85,24,o)
);
}
);
userData = {
assembly = "NPUSHB[ ]	/* 43 values pushed */
8 17 11 12 11 5 6 2 4 7 17 12 12 11 52 12 7 8 1 85 0 67 4 86 18 8 86 10 57 18 69 21 10 9 8 7 1 5 21 12 11 0 21 
SRP0[ ]	/* SetRefPoint0 */
MDRP[10100]	/* MoveDirectRelPt */
MDRP[01100]	/* MoveDirectRelPt */
IP[ ]	/* InterpolatePts */
SRP1[ ]	/* SetRefPoint1 */
SLOOP[ ]	/* SetLoopVariable */
IP[ ]	/* InterpolatePts */
IUP[1]	/* InterpolateUntPts */
SVTCA[0]	/* SetFreedomAndProjectionVectorToAxis */
SRP0[ ]	/* SetRefPoint0 */
MIRP[00100]	/* MoveIndirectRelPt */
MIRP[10100]	/* MoveIndirectRelPt */
MIRP[01100]	/* MoveIndirectRelPt */
SRP0[ ]	/* SetRefPoint0 */
MIRP[01110]	/* MoveIndirectRelPt */
MIRP[10110]	/* MoveIndirectRelPt */
MIRP[01110]	/* MoveIndirectRelPt */
SRP1[ ]	/* SetRefPoint1 */
IP[ ]	/* InterpolatePts */
IP[ ]	/* InterpolatePts */
IUP[0]	/* InterpolateUntPts */
MPPEM[ ]	/* MeasurePixelPerEm */
GTEQ[ ]	/* GreaterThanOrEqual */
IF[ ]	/* If */
SPVTL[1]	/* SetPVectorToLine */
SRP0[ ]	/* SetRefPoint0 */
SFVTCA[1]	/* SetFVectorToAxis */
MIRP[01101]	/* MoveIndirectRelPt */
SRP1[ ]	/* SetRefPoint1 */
SLOOP[ ]	/* SetLoopVariable */
IP[ ]	/* InterpolatePts */
SPVTL[1]	/* SetPVectorToLine */
SRP0[ ]	/* SetRefPoint0 */
SFVTCA[1]	/* SetFVectorToAxis */
MIRP[01101]	/* MoveIndirectRelPt */
EIF[ ]	/* EndIf */
CLEAR[ ]	/* ClearStack */";
};
width = 1233;
}
);
note = J;
unicode = 74;
},
{
glyphname = K;
layers = (
{
layerId = m01;
shapes = (
{
closed = 1;
nodes = (
(276,0,l),
(371,500,l),
(543,670,l),
(797,0,l),
(1100,0,l),
(762,889,l),
(1368,1493,l),
(1020,1493,l),
(457,936,l),
(565,1493,l),
(270,1493,l),
(-18,0,l)
);
}
);
userData = {
assembly = "NPUSHB[ ]	/* 66 values pushed */
8 9 8 5 6 5 7 6 6 5 3 4 5 4 2 1 2 5 5 4 10 17 0 11 9 17 8 9 11 0 11 2 17 3 2 0 11 1 17 0 0 11 52 8 5 2 3 3 0 57 10 6 10 8 7 6 5 2 1 7 4 0 0 4 11 12 
SRP0[ ]	/* SetRefPoint0 */
MDRP[10100]	/* MoveDirectRelPt */
MDRP[00100]	/* MoveDirectRelPt */
MIRP[00100]	/* MoveIndirectRelPt */
SRP1[ ]	/* SetRefPoint1 */
SLOOP[ ]	/* SetLoopVariable */
IP[ ]	/* InterpolatePts */
IUP[1]	/* InterpolateUntPts */
SVTCA[0]	/* SetFreedomAndProjectionVectorToAxis */
MDAP[1]	/* MoveDirectAbsPt */
ALIGNRP[ ]	/* AlignRelativePt */
MIRP[00100]	/* MoveIndirectRelPt */
SHP[0]	/* ShiftPointByLastPoint */
SLOOP[ ]	/* SetLoopVariable */
IP[ ]	/* InterpolatePts */
IUP[0]	/* InterpolateUntPts */
MPPEM[ ]	/* MeasurePixelPerEm */
GTEQ[ ]	/* GreaterThanOrEqual */
IF[ ]	/* If */
SPVTL[1]	/* SetPVectorToLine */
SRP0[ ]	/* SetRefPoint0 */
SFVTCA[1]	/* SetFVectorToAxis */
MIRP[01101]	/* MoveIndirectRelPt */
SPVTL[1]	/* SetPVectorToLine */
SFVTL[0]	/* SetFVectorToLine */
MIRP[01101]	/* MoveIndirectRelPt */
SPVTL[1]	/* SetPVectorToLine */
SRP0[ ]	/* SetRefPoint0 */
SFVTL[0]	/* SetFVectorToLine */
MIRP[01101]	/* MoveIndirectRelPt */
SPVTL[1]	/* SetPVectorToLine */
SFVTCA[1]	/* SetFVectorToAxis */
MIRP[01101]	/* MoveIndirectRelPt */
SPVTL[1]	/* SetPVectorToLine */
SRP0[ ]	/* SetRefPoint0 */
SFVTL[0]	/* SetFVectorToLine */
MDRP[01001]	/* MoveDirectRelPt */
SPVTL[1]	/* SetPVectorToLine */
SRP0[ ]	/* SetRefPoint0 */
SFVTCA[1]	/* SetFVectorToAxis */
MDRP[01001]	/* MoveDirectRelPt */
SPVTL[1]	/* SetPVectorToLine */
SRP0[ ]	/* SetRefPoint0 */
SFVTCA[1]	/* SetFVectorToAxis */
MDRP[01001]	/* MoveDirectRelPt */
SPVTL[1]	/* SetPVectorToLine */
SRP0[ ]	/* SetRefPoint0 */
SFVTL[0]	/* SetFVectorToLine */
MDRP[01001]	/* MoveDirectRelPt */
EIF[ ]	/* EndIf */
CLEAR[ ]	/* ClearStack */";
};
width = 1233;
}
);
note = K;
unicode = 75;
},
{
glyphname = L;
layers = (
{
layerId = m01;
shapes = (
{
closed = 1;
nodes = (
(1057,260,l),
(426,260,l),
(666,1493,l),
(371,1493,l),
(80,0,l),
(1006,0,l)
);
}
);
userData = {
assembly = "NPUSHB[ ]	/* 26 values pushed */
3 17 0 1 0 2 17 1 1 0 52 3 86 1 57 0 5 3 2 3 4 1 0 4 0 6 
SRP0[ ]	/* SetRefPoint0 */
MDRP[10100]	/* MoveDirectRelPt */
MDRP[00100]	/* MoveDirectRelPt */
MIRP[00100]	/* MoveIndirectRelPt */
SRP1[ ]	/* SetRefPoint1 */
SLOOP[ ]	/* SetLoopVariable */
IP[ ]	/* InterpolatePts */
IUP[1]	/* InterpolateUntPts */
SVTCA[0]	/* SetFreedomAndProjectionVectorToAxis */
MDAP[1]	/* MoveDirectAbsPt */
MIRP[00100]	/* MoveIndirectRelPt */
MIRP[01100]	/* MoveIndirectRelPt */
IUP[0]	/* InterpolateUntPts */
MPPEM[ ]	/* MeasurePixelPerEm */
GTEQ[ ]	/* GreaterThanOrEqual */
IF[ ]	/* If */
SPVTL[1]	/* SetPVectorToLine */
SRP0[ ]	/* SetRefPoint0 */
SFVTCA[1]	/* SetFVectorToAxis */
MIRP[01101]	/* MoveIndirectRelPt */
SPVTL[1]	/* SetPVectorToLine */
SRP0[ ]	/* SetRefPoint0 */
SFVTCA[1]	/* SetFVectorToAxis */
MIRP[01101]	/* MoveIndirectRelPt */
EIF[ ]	/* EndIf */
CLEAR[ ]	/* ClearStack */";
};
width = 1233;
}
);
note = L;
unicode = 76;
},
{
glyphname = M;
layers = (
{
layerId = m01;
shapes = (
{
closed = 1;
nodes = (
(195,0,l),
(426,1198,l),
(473,543,l),
(692,543,l),
(985,1198,l),
(748,0,l),
(1001,0,l),
(1290,1493,l),
(930,1493,l),
(633,838,l),
(584,1493,l),
(231,1493,l),
(-57,0,l)
);
}
);
userData = {
assembly = "NPUSHB[ ]	/* 73 values pushed */
10 11 10 1 2 1 9 2 1 8 2 3 2 7 6 7 3 3 2 7 20 8 7 4 5 4 6 20 5 5 4 11 20 12 0 12 10 20 9 10 0 0 12 52 10 8 7 2 4 3 0 57 11 5 11 13 10 9 8 7 6 3 2 1 8 0 5 0 4 0 0 12 13 
SRP0[ ]	/* SetRefPoint0 */
MDRP[10100]	/* MoveDirectRelPt */
MIRP[00100]	/* MoveIndirectRelPt */
MDRP[10100]	/* MoveDirectRelPt */
MIRP[00100]	/* MoveIndirectRelPt */
SRP1[ ]	/* SetRefPoint1 */
SLOOP[ ]	/* SetLoopVariable */
IP[ ]	/* InterpolatePts */
SRP2[ ]	/* SetRefPoint2 */
IP[ ]	/* InterpolatePts */
IUP[1]	/* InterpolateUntPts */
SVTCA[0]	/* SetFreedomAndProjectionVectorToAxis */
MDAP[1]	/* MoveDirectAbsPt */
ALIGNRP[ ]	/* AlignRelativePt */
MIRP[00100]	/* MoveIndirectRelPt */
SHP[0]	/* ShiftPointByLastPoint */
SLOOP[ ]	/* SetLoopVariable */
IP[ ]	/* InterpolatePts */
IUP[0]	/* InterpolateUntPts */
MPPEM[ ]	/* MeasurePixelPerEm */
GTEQ[ ]	/* GreaterThanOrEqual */
IF[ ]	/* If */
SPVTL[1]	/* SetPVectorToLine */
SRP0[ ]	/* SetRefPoint0 */
SFVTL[0]	/* SetFVectorToLine */
MIRP[01101]	/* MoveIndirectRelPt */
SPVTL[1]	/* SetPVectorToLine */
SRP0[ ]	/* SetRefPoint0 */
SFVTCA[1]	/* SetFVectorToAxis */
MIRP[01101]	/* MoveIndirectRelPt */
SPVTL[1]	/* SetPVectorToLine */
SRP0[ ]	/* SetRefPoint0 */
SFVTCA[1]	/* SetFVectorToAxis */
MIRP[01101]	/* MoveIndirectRelPt */
SPVTL[1]	/* SetPVectorToLine */
SRP0[ ]	/* SetRefPoint0 */
SFVTL[0]	/* SetFVectorToLine */
MIRP[01101]	/* MoveIndirectRelPt */
SPVTL[1]	/* SetPVectorToLine */
SRP0[ ]	/* SetRefPoint0 */
SFVTL[0]	/* SetFVectorToLine */
MDRP[01001]	/* MoveDirectRelPt */
SPVTL[1]	/* SetPVectorToLine */
SRP0[ ]	/* SetRefPoint0 */
SFVTCA[1]	/* SetFVectorToAxis */
MDRP[01001]	/* MoveDirectRelPt */
SPVTL[1]	/* SetPVectorToLine */
SFVTCA[1]	/* SetFVectorToAxis */
MDRP[01001]	/* MoveDirectRelPt */
SPVTL[1]	/* SetPVectorToLine */
SRP0[ ]	/* SetRefPoint0 */
SFVTL[0]	/* SetFVectorToLine */
MDRP[01001]	/* MoveDirectRelPt */
EIF[ ]	/* EndIf */
CLEAR[ ]	/* ClearStack */
SVTCA[1]	/* SetFreedomAndProjectionVectorToAxis */
MPPEM[ ]	/* MeasurePixelPerEm */
PUSHB[ ]	/* 1 value pushed */
13 
EQ[ ]	/* Equal */
MPPEM[ ]	/* MeasurePixelPerEm */
PUSHB[ ]	/* 1 value pushed */
12 
EQ[ ]	/* Equal */
OR[ ]	/* LogicalOr */
IF[ ]	/* If */
PUSHW[ ]	/* 6 values pushed */
13 64 1 13 13 -64 
SHPIX[ ]	/* ShiftZoneByPixel */
SRP1[ ]	/* SetRefPoint1 */
SHZ[1]	/* ShiftZoneByLastPoint */
SHPIX[ ]	/* ShiftZoneByPixel */
EIF[ ]	/* EndIf */
NPUSHB[ ]	/* 62 values pushed */
23 2 22 7 22 8 22 9 17 10 47 7 47 7 47 7 47 7 47 7 10 18 1 16 2 21 3 16 4 23 5 16 5 16 6 20 7 16 7 23 8 16 8 20 9 20 10 39 2 47 3 47 3 41 7 47 7 59 3 56 8 20 
DELTAP1[ ]	/* DeltaExceptionP1 */
SVTCA[0]	/* SetFreedomAndProjectionVectorToAxis */
DELTAP1[ ]	/* DeltaExceptionP1 */";
};
width = 1233;
}
);
note = M;
unicode = 77;
},
{
glyphname = N;
layers = (
{
layerId = m01;
shapes = (
{
closed = 1;
nodes = (
(238,0,l),
(449,1085,l),
(674,0,l),
(967,0,l),
(1255,1493,l),
(995,1493,l),
(784,408,l),
(569,1493,l),
(266,1493,l),
(-25,0,l)
);
}
);
userData = {
assembly = "NPUSHB[ ]	/* 58 values pushed */
6 2 2 1 1 7 7 6 3 17 4 5 4 2 17 1 2 5 5 4 8 17 9 0 9 7 17 6 7 0 0 9 52 7 2 3 0 57 8 5 3 5 4 8 10 7 6 2 1 4 0 5 0 4 0 0 9 10 
SRP0[ ]	/* SetRefPoint0 */
MDRP[10100]	/* MoveDirectRelPt */
MIRP[00100]	/* MoveIndirectRelPt */
MDRP[10100]	/* MoveDirectRelPt */
MIRP[00100]	/* MoveIndirectRelPt */
SRP1[ ]	/* SetRefPoint1 */
SLOOP[ ]	/* SetLoopVariable */
IP[ ]	/* InterpolatePts */
SRP2[ ]	/* SetRefPoint2 */
IP[ ]	/* InterpolatePts */
SRP1[ ]	/* SetRefPoint1 */
SRP2[ ]	/* SetRefPoint2 */
IP[ ]	/* InterpolatePts */
IUP[1]	/* InterpolateUntPts */
SVTCA[0]	/* SetFreedomAndProjectionVectorToAxis */
MDAP[1]	/* MoveDirectAbsPt */
ALIGNRP[ ]	/* AlignRelativePt */
MIRP[00100]	/* MoveIndirectRelPt */
SHP[0]	/* ShiftPointByLastPoint */
IP[ ]	/* InterpolatePts */
IP[ ]	/* InterpolatePts */
IUP[0]	/* InterpolateUntPts */
MPPEM[ ]	/* MeasurePixelPerEm */
GTEQ[ ]	/* GreaterThanOrEqual */
IF[ ]	/* If */
SPVTL[1]	/* SetPVectorToLine */
SRP0[ ]	/* SetRefPoint0 */
SFVTL[0]	/* SetFVectorToLine */
MIRP[01101]	/* MoveIndirectRelPt */
SPVTL[1]	/* SetPVectorToLine */
SRP0[ ]	/* SetRefPoint0 */
SFVTCA[1]	/* SetFVectorToAxis */
MIRP[01101]	/* MoveIndirectRelPt */
SPVTL[1]	/* SetPVectorToLine */
SRP0[ ]	/* SetRefPoint0 */
SFVTL[0]	/* SetFVectorToLine */
MIRP[01101]	/* MoveIndirectRelPt */
SPVTL[1]	/* SetPVectorToLine */
SRP0[ ]	/* SetRefPoint0 */
SFVTCA[1]	/* SetFVectorToAxis */
MIRP[01101]	/* MoveIndirectRelPt */
SPVTL[1]	/* SetPVectorToLine */
SRP0[ ]	/* SetRefPoint0 */
SFVTCA[1]	/* SetFVectorToAxis */
MDRP[01001]	/* MoveDirectRelPt */
SPVTL[1]	/* SetPVectorToLine */
SRP0[ ]	/* SetRefPoint0 */
SFVTCA[1]	/* SetFVectorToAxis */
MDRP[01001]	/* MoveDirectRelPt */
EIF[ ]	/* EndIf */
CLEAR[ ]	/* ClearStack */
PUSHB[ ]	/* 3 values pushed */
40 6 1 
SVTCA[1]	/* SetFreedomAndProjectionVectorToAxis */
DELTAP1[ ]	/* DeltaExceptionP1 */
NPUSHB[ ]	/* 42 values pushed */
53 2 1 40 1 42 2 39 6 37 7 51 2 48 3 48 4 48 5 48 6 53 7 81 2 87 3 80 3 80 4 87 5 80 5 87 6 80 6 87 7 19 
DELTAP1[ ]	/* DeltaExceptionP1 */
SVTCA[0]	/* SetFreedomAndProjectionVectorToAxis */
DELTAP1[ ]	/* DeltaExceptionP1 */";
};
width = 1233;
}
);
note = N;
unicode = 78;
},
{
glyphname = O;
layers = (
{
layerId = m01;
shapes = (
{
closed = 1;
nodes = (
(838,746,o),
(809,631,qs),
(789,548,o),
(744,417,o),
(721,373,qs),
(684,304,o),
(585,233,o),
(526,233,qs),
(445,233,o),
(365,351,o),
(365,471,qs),
(365,546,o),
(395,745,o),
(424,860,qs),
(447,952,o),
(490,1081,o),
(512,1120,qs),
(548,1189,o),
(648,1260,o),
(707,1260,qs),
(788,1260,o),
(868,1140,o),
(868,1020,qs),
(868,945,o)
);
},
{
closed = 1;
nodes = (
(287,-29,o),
(504,-29,qs),
(660,-29,o),
(911,123,o),
(989,264,qs),
(1073,415,o),
(1171,828,o),
(1171,1030,qs),
(1171,1268,o),
(944,1520,o),
(729,1520,qs),
(573,1520,o),
(323,1369,o),
(246,1229,qs),
(161,1075,o),
(61,665,o),
(61,465,qs),
(61,224,o)
);
}
);
userData = {
assembly = "NPUSHB[ ]	/* 17 values pushed */
15 86 39 3 86 30 66 39 69 42 0 18 33 12 18 24 42 
SRP0[ ]	/* SetRefPoint0 */
MDRP[10100]	/* MoveDirectRelPt */
MIRP[01100]	/* MoveIndirectRelPt */
MDRP[10100]	/* MoveDirectRelPt */
MIRP[01100]	/* MoveIndirectRelPt */
IUP[1]	/* InterpolateUntPts */
SVTCA[0]	/* SetFreedomAndProjectionVectorToAxis */
SRP0[ ]	/* SetRefPoint0 */
MIRP[00100]	/* MoveIndirectRelPt */
MIRP[10100]	/* MoveIndirectRelPt */
MIRP[01100]	/* MoveIndirectRelPt */
SRP0[ ]	/* SetRefPoint0 */
MIRP[01110]	/* MoveIndirectRelPt */
IUP[0]	/* InterpolateUntPts */
NPUSHB[ ]	/* 43 values pushed */
48 0 48 1 52 2 52 3 53 4 53 14 51 15 51 16 48 17 48 18 48 19 48 20 48 21 48 22 48 23 48 32 48 33 48 34 48 35 48 36 48 37 21 
SVTCA[1]	/* SetFreedomAndProjectionVectorToAxis */
DELTAP1[ ]	/* DeltaExceptionP1 */";
};
width = 1233;
}
);
note = O;
unicode = 79;
},
{
glyphname = P;
layers = (
{
layerId = m01;
shapes = (
{
closed = 1;
nodes = (
(799,1245,o),
(903,1168,o),
(903,1077,qs),
(903,942,o),
(758,807,o),
(612,807,qs),
(469,807,l),
(553,1245,l),
(674,1245,ls)
);
},
{
closed = 1;
nodes = (
(311,0,l),
(420,559,l),
(584,559,ls),
(769,559,o),
(1001,640,o),
(1079,731,qs),
(1137,797,o),
(1210,1021,o),
(1210,1135,qs),
(1210,1310,o),
(963,1493,o),
(727,1493,qs),
(307,1493,l),
(16,0,l)
);
}
);
userData = {
assembly = "NPUSHB[ ]	/* 59 values pushed */
3 2 2 4 1 17 9 22 7 8 2 6 0 17 9 9 22 21 17 9 22 15 16 17 18 19 5 14 20 17 22 9 22 52 1 84 19 0 84 9 57 21 21 20 8 2 1 0 6 10 19 9 5 18 13 9 0 22 23 
SRP0[ ]	/* SetRefPoint0 */
MDRP[10100]	/* MoveDirectRelPt */
MIRP[00100]	/* MoveIndirectRelPt */
MDRP[10100]	/* MoveDirectRelPt */
MIRP[01100]	/* MoveIndirectRelPt */
SRP1[ ]	/* SetRefPoint1 */
IP[ ]	/* InterpolatePts */
IP[ ]	/* InterpolatePts */
SLOOP[ ]	/* SetLoopVariable */
IP[ ]	/* InterpolatePts */
IUP[1]	/* InterpolateUntPts */
SVTCA[0]	/* SetFreedomAndProjectionVectorToAxis */
MDAP[1]	/* MoveDirectAbsPt */
MIRP[10100]	/* MoveIndirectRelPt */
MIRP[01100]	/* MoveIndirectRelPt */
MDRP[10100]	/* MoveDirectRelPt */
MIRP[01100]	/* MoveIndirectRelPt */
IUP[0]	/* InterpolateUntPts */
MPPEM[ ]	/* MeasurePixelPerEm */
GTEQ[ ]	/* GreaterThanOrEqual */
IF[ ]	/* If */
SPVTL[1]	/* SetPVectorToLine */
SRP0[ ]	/* SetRefPoint0 */
SFVTCA[1]	/* SetFVectorToAxis */
MIRP[01101]	/* MoveIndirectRelPt */
SRP1[ ]	/* SetRefPoint1 */
SLOOP[ ]	/* SetLoopVariable */
IP[ ]	/* InterpolatePts */
SPVTL[1]	/* SetPVectorToLine */
SFVTCA[1]	/* SetFVectorToAxis */
MIRP[01101]	/* MoveIndirectRelPt */
SPVTL[1]	/* SetPVectorToLine */
SRP0[ ]	/* SetRefPoint0 */
SFVTCA[1]	/* SetFVectorToAxis */
MIRP[01101]	/* MoveIndirectRelPt */
SRP1[ ]	/* SetRefPoint1 */
SLOOP[ ]	/* SetLoopVariable */
IP[ ]	/* InterpolatePts */
SPVTL[1]	/* SetPVectorToLine */
SFVTCA[1]	/* SetFVectorToAxis */
MIRP[01101]	/* MoveIndirectRelPt */
SRP1[ ]	/* SetRefPoint1 */
SLOOP[ ]	/* SetLoopVariable */
IP[ ]	/* InterpolatePts */
EIF[ ]	/* EndIf */
CLEAR[ ]	/* ClearStack */";
};
width = 1233;
}
);
note = P;
unicode = 80;
},
{
glyphname = Q;
layers = (
{
layerId = m01;
shapes = (
{
closed = 1;
nodes = (
(924,-147,l),
(776,39,l),
(849,86,o),
(954,196,o),
(989,262,qs),
(1074,417,o),
(1171,836,o),
(1171,1049,qs),
(1171,1273,o),
(940,1520,o),
(729,1520,qs),
(573,1520,o),
(322,1368,o),
(244,1227,qs),
(160,1076,o),
(61,663,o),
(61,461,qs),
(61,221,o),
(290,-29,o),
(508,-29,qs),
(535,-29,l),
(713,-281,l)
);
},
{
closed = 1;
nodes = (
(838,746,o),
(809,631,qs),
(789,548,o),
(744,417,o),
(721,373,qs),
(684,304,o),
(585,233,o),
(526,233,qs),
(445,233,o),
(365,351,o),
(365,471,qs),
(365,546,o),
(395,745,o),
(424,860,qs),
(447,952,o),
(490,1081,o),
(512,1120,qs),
(548,1189,o),
(648,1260,o),
(707,1260,qs),
(788,1260,o),
(868,1140,o),
(868,1020,qs),
(868,945,o)
);
}
);
userData = {
assembly = "NPUSHB[ ]	/* 28 values pushed */
20 21 19 37 86 21 0 25 86 10 66 0 69 46 21 34 20 13 1 19 34 22 18 13 34 18 4 46 
SRP0[ ]	/* SetRefPoint0 */
MDRP[10100]	/* MoveDirectRelPt */
MIRP[01100]	/* MoveIndirectRelPt */
MDRP[10100]	/* MoveDirectRelPt */
MIRP[01100]	/* MoveIndirectRelPt */
SRP1[ ]	/* SetRefPoint1 */
IP[ ]	/* InterpolatePts */
IP[ ]	/* InterpolatePts */
SRP1[ ]	/* SetRefPoint1 */
IP[ ]	/* InterpolatePts */
SRP1[ ]	/* SetRefPoint1 */
IP[ ]	/* InterpolatePts */
IUP[1]	/* InterpolateUntPts */
SVTCA[0]	/* SetFreedomAndProjectionVectorToAxis */
SRP0[ ]	/* SetRefPoint0 */
MIRP[00100]	/* MoveIndirectRelPt */
MIRP[10100]	/* MoveIndirectRelPt */
MIRP[01100]	/* MoveIndirectRelPt */
SRP0[ ]	/* SetRefPoint0 */
MDRP[00100]	/* MoveDirectRelPt */
MIRP[01110]	/* MoveIndirectRelPt */
IP[ ]	/* InterpolatePts */
SRP2[ ]	/* SetRefPoint2 */
IP[ ]	/* InterpolatePts */
IUP[0]	/* InterpolateUntPts */
NPUSHB[ ]	/* 65 values pushed */
26 0 26 1 26 20 26 21 48 0 48 1 48 11 48 12 48 13 48 14 48 15 48 16 48 17 48 18 48 19 48 20 48 21 48 22 48 23 53 24 53 25 53 26 51 36 51 37 51 38 48 39 48 40 48 41 48 42 48 43 48 44 48 45 32 
SVTCA[1]	/* SetFreedomAndProjectionVectorToAxis */
DELTAP1[ ]	/* DeltaExceptionP1 */";
};
width = 1233;
}
);
note = Q;
unicode = 81;
},
{
glyphname = R;
layers = (
{
layerId = m01;
shapes = (
{
closed = 1;
nodes = (
(1165,950,o),
(1165,1137,qs),
(1165,1318,o),
(941,1493,o),
(709,1493,qs),
(299,1493,l),
(8,0,l),
(303,0,l),
(418,590,l),
(535,590,ls),
(640,590,o),
(693,403,qs),
(698,386,o),
(701,376,qs),
(807,0,l),
(1108,0,l),
(944,537,ls),
(917,624,o),
(849,696,o),
(788,705,q),
(969,725,o)
);
},
{
closed = 1;
nodes = (
(772,1245,o),
(864,1168,o),
(864,1090,qs),
(864,966,o),
(725,838,o),
(590,838,qs),
(467,838,l),
(547,1245,l),
(680,1245,ls)
);
}
);
userData = {
assembly = "NPUSHB[ ]	/* 81 values pushed */
10 9 8 7 4 11 6 3 4 3 5 4 4 3 24 23 2 25 22 17 14 13 28 29 2 27 21 17 14 14 13 12 17 14 13 11 17 13 14 13 52 6 4 0 22 3 4 22 84 10 21 84 14 57 12 4 4 18 29 23 22 21 12 11 10 6 5 9 14 3 18 15 0 14 26 18 18 14 0 13 30 
SRP0[ ]	/* SetRefPoint0 */
MDRP[10100]	/* MoveDirectRelPt */
MIRP[00100]	/* MoveIndirectRelPt */
MDRP[10100]	/* MoveDirectRelPt */
MIRP[01100]	/* MoveIndirectRelPt */
SRP1[ ]	/* SetRefPoint1 */
IP[ ]	/* InterpolatePts */
IP[ ]	/* InterpolatePts */
SRP1[ ]	/* SetRefPoint1 */
IP[ ]	/* InterpolatePts */
SRP1[ ]	/* SetRefPoint1 */
SLOOP[ ]	/* SetLoopVariable */
IP[ ]	/* InterpolatePts */
SRP1[ ]	/* SetRefPoint1 */
IP[ ]	/* InterpolatePts */
IUP[1]	/* InterpolateUntPts */
SVTCA[0]	/* SetFreedomAndProjectionVectorToAxis */
MDAP[1]	/* MoveDirectAbsPt */
ALIGNRP[ ]	/* AlignRelativePt */
MIRP[10100]	/* MoveIndirectRelPt */
MIRP[01100]	/* MoveIndirectRelPt */
MDRP[10100]	/* MoveDirectRelPt */
MIRP[01100]	/* MoveIndirectRelPt */
SRP2[ ]	/* SetRefPoint2 */
IP[ ]	/* InterpolatePts */
SRP2[ ]	/* SetRefPoint2 */
IP[ ]	/* InterpolatePts */
SRP2[ ]	/* SetRefPoint2 */
IP[ ]	/* InterpolatePts */
IUP[0]	/* InterpolateUntPts */
MPPEM[ ]	/* MeasurePixelPerEm */
GTEQ[ ]	/* GreaterThanOrEqual */
IF[ ]	/* If */
SPVTL[1]	/* SetPVectorToLine */
SRP0[ ]	/* SetRefPoint0 */
SFVTCA[1]	/* SetFVectorToAxis */
MIRP[01101]	/* MoveIndirectRelPt */
SPVTL[1]	/* SetPVectorToLine */
SFVTCA[1]	/* SetFVectorToAxis */
MIRP[01101]	/* MoveIndirectRelPt */
SPVTL[1]	/* SetPVectorToLine */
SRP0[ ]	/* SetRefPoint0 */
SFVTCA[1]	/* SetFVectorToAxis */
MIRP[01101]	/* MoveIndirectRelPt */
SRP1[ ]	/* SetRefPoint1 */
SLOOP[ ]	/* SetLoopVariable */
IP[ ]	/* InterpolatePts */
SPVTL[1]	/* SetPVectorToLine */
SFVTCA[1]	/* SetFVectorToAxis */
MIRP[01101]	/* MoveIndirectRelPt */
SRP1[ ]	/* SetRefPoint1 */
SLOOP[ ]	/* SetLoopVariable */
IP[ ]	/* InterpolatePts */
SPVTL[1]	/* SetPVectorToLine */
SRP0[ ]	/* SetRefPoint0 */
SFVTCA[1]	/* SetFVectorToAxis */
MDRP[01001]	/* MoveDirectRelPt */
SPVTL[1]	/* SetPVectorToLine */
SRP0[ ]	/* SetRefPoint0 */
SFVTCA[1]	/* SetFVectorToAxis */
MDRP[01001]	/* MoveDirectRelPt */
SRP1[ ]	/* SetRefPoint1 */
SLOOP[ ]	/* SetLoopVariable */
IP[ ]	/* InterpolatePts */
EIF[ ]	/* EndIf */
CLEAR[ ]	/* ClearStack */
PUSHB[ ]	/* 3 values pushed */
40 4 1 
SVTCA[1]	/* SetFreedomAndProjectionVectorToAxis */
DELTAP1[ ]	/* DeltaExceptionP1 */
PUSHB[ ]	/* 3 values pushed */
40 4 1 
DELTAP1[ ]	/* DeltaExceptionP1 */";
};
width = 1233;
}
);
note = R;
unicode = 82;
},
{
glyphname = S;
layers = (
{
layerId = m01;
shapes = (
{
closed = 1;
nodes = (
(694,585,o),
(764,494,o),
(764,432,qs),
(764,332,o),
(612,215,o),
(479,215,qs),
(372,215,o),
(160,300,o),
(63,381,q),
(4,76,l),
(128,23,o),
(357,-29,o),
(467,-29,qs),
(741,-29,o),
(1063,245,o),
(1063,475,qs),
(1063,608,o),
(928,791,o),
(782,856,qs),
(666,907,l),
(659,910,ls),
(475,993,o),
(475,1077,qs),
(475,1165,o),
(623,1278,o),
(741,1278,qs),
(852,1278,o),
(1034,1215,o),
(1102,1153,q),
(1159,1438,l),
(1068,1479,o),
(873,1520,o),
(770,1520,qs),
(513,1520,o),
(190,1240,o),
(190,1020,qs),
(190,894,o),
(314,744,o),
(506,664,qs),
(625,614,ls)
);
}
);
userData = {
assembly = "NPUSHB[ ]	/* 59 values pushed */
21 1 22 20 39 0 39 17 18 2 16 19 0 0 39 52 18 19 13 19 20 39 0 4 10 30 85 29 67 33 86 26 10 85 9 67 13 86 6 66 26 69 40 20 23 39 18 0 36 16 10 9 36 15 23 16 15 3 40 
SRP0[ ]	/* SetRefPoint0 */
MDRP[10100]	/* MoveDirectRelPt */
MIRP[01100]	/* MoveIndirectRelPt */
MDRP[10100]	/* MoveDirectRelPt */
MIRP[01100]	/* MoveIndirectRelPt */
MDRP[00000]	/* MoveDirectRelPt */
MDRP[00000]	/* MoveDirectRelPt */
SRP1[ ]	/* SetRefPoint1 */
SRP2[ ]	/* SetRefPoint2 */
IP[ ]	/* InterpolatePts */
IP[ ]	/* InterpolatePts */
IP[ ]	/* InterpolatePts */
SRP1[ ]	/* SetRefPoint1 */
IP[ ]	/* InterpolatePts */
IUP[1]	/* InterpolateUntPts */
SVTCA[0]	/* SetFreedomAndProjectionVectorToAxis */
SRP0[ ]	/* SetRefPoint0 */
MIRP[00100]	/* MoveIndirectRelPt */
MIRP[10100]	/* MoveIndirectRelPt */
MIRP[01100]	/* MoveIndirectRelPt */
MIRP[10100]	/* MoveIndirectRelPt */
MIRP[01100]	/* MoveIndirectRelPt */
SRP0[ ]	/* SetRefPoint0 */
MIRP[01110]	/* MoveIndirectRelPt */
MIRP[10110]	/* MoveIndirectRelPt */
MIRP[01110]	/* MoveIndirectRelPt */
SRP1[ ]	/* SetRefPoint1 */
SLOOP[ ]	/* SetLoopVariable */
IP[ ]	/* InterpolatePts */
SRP1[ ]	/* SetRefPoint1 */
SRP2[ ]	/* SetRefPoint2 */
IP[ ]	/* InterpolatePts */
IUP[0]	/* InterpolateUntPts */
MPPEM[ ]	/* MeasurePixelPerEm */
GTEQ[ ]	/* GreaterThanOrEqual */
IF[ ]	/* If */
SPVTL[1]	/* SetPVectorToLine */
SRP0[ ]	/* SetRefPoint0 */
SFVTPV[ ]	/* SetFVectorToPVector */
MDRP[01001]	/* MoveDirectRelPt */
SRP1[ ]	/* SetRefPoint1 */
SLOOP[ ]	/* SetLoopVariable */
IP[ ]	/* InterpolatePts */
SPVTL[1]	/* SetPVectorToLine */
SRP0[ ]	/* SetRefPoint0 */
SFVTPV[ ]	/* SetFVectorToPVector */
MDRP[01001]	/* MoveDirectRelPt */
SRP1[ ]	/* SetRefPoint1 */
SLOOP[ ]	/* SetLoopVariable */
IP[ ]	/* InterpolatePts */
EIF[ ]	/* EndIf */
CLEAR[ ]	/* ClearStack */
PUSHB[ ]	/* 7 values pushed */
22 9 22 10 22 11 3 
DELTAP1[ ]	/* DeltaExceptionP1 */
NPUSHB[ ]	/* 10 values pushed */
22 9 22 10 22 11 3 40 11 1 
SVTCA[1]	/* SetFreedomAndProjectionVectorToAxis */
DELTAP1[ ]	/* DeltaExceptionP1 */
SVTCA[0]	/* SetFreedomAndProjectionVectorToAxis */
DELTAP1[ ]	/* DeltaExceptionP1 */
NPUSHB[ ]	/* 40 values pushed */
41 9 40 10 40 11 57 9 57 10 57 11 73 9 73 10 73 11 89 9 89 10 89 11 104 9 104 10 104 11 121 9 121 10 121 11 18 40 10 1 
DELTAP1[ ]	/* DeltaExceptionP1 */
SVTCA[1]	/* SetFreedomAndProjectionVectorToAxis */
DELTAP1[ ]	/* DeltaExceptionP1 */";
};
width = 1233;
}
);
note = S;
unicode = 83;
},
{
glyphname = T;
layers = (
{
layerId = m01;
shapes = (
{
closed = 1;
nodes = (
(1237,1235,l),
(1288,1493,l),
(229,1493,l),
(180,1235,l),
(563,1235,l),
(324,0,l),
(618,0,l),
(858,1235,l)
);
}
);
userData = {
assembly = "NPUSHB[ ]	/* 31 values pushed */
0 17 1 2 1 7 17 2 2 1 52 6 2 86 4 57 0 7 6 0 3 5 2 4 1 5 3 2 0 1 8 
SRP0[ ]	/* SetRefPoint0 */
MDRP[10100]	/* MoveDirectRelPt */
MIRP[10100]	/* MoveIndirectRelPt */
MDRP[10100]	/* MoveDirectRelPt */
MDRP[00100]	/* MoveDirectRelPt */
SRP2[ ]	/* SetRefPoint2 */
IP[ ]	/* InterpolatePts */
SRP1[ ]	/* SetRefPoint1 */
SRP2[ ]	/* SetRefPoint2 */
SLOOP[ ]	/* SetLoopVariable */
IP[ ]	/* InterpolatePts */
IUP[1]	/* InterpolateUntPts */
SVTCA[0]	/* SetFreedomAndProjectionVectorToAxis */
MDAP[1]	/* MoveDirectAbsPt */
MIRP[10100]	/* MoveIndirectRelPt */
MIRP[01100]	/* MoveIndirectRelPt */
SHP[0]	/* ShiftPointByLastPoint */
IUP[0]	/* InterpolateUntPts */
MPPEM[ ]	/* MeasurePixelPerEm */
GTEQ[ ]	/* GreaterThanOrEqual */
IF[ ]	/* If */
SPVTL[1]	/* SetPVectorToLine */
SRP0[ ]	/* SetRefPoint0 */
SFVTCA[1]	/* SetFVectorToAxis */
MIRP[01101]	/* MoveIndirectRelPt */
SPVTL[1]	/* SetPVectorToLine */
SRP0[ ]	/* SetRefPoint0 */
SFVTCA[1]	/* SetFVectorToAxis */
MIRP[01101]	/* MoveIndirectRelPt */
EIF[ ]	/* EndIf */
CLEAR[ ]	/* ClearStack */
SVTCA[1]	/* SetFreedomAndProjectionVectorToAxis */
MPPEM[ ]	/* MeasurePixelPerEm */
PUSHB[ ]	/* 1 value pushed */
10 
EQ[ ]	/* Equal */
MPPEM[ ]	/* MeasurePixelPerEm */
PUSHB[ ]	/* 1 value pushed */
15 
EQ[ ]	/* Equal */
OR[ ]	/* LogicalOr */
MPPEM[ ]	/* MeasurePixelPerEm */
PUSHB[ ]	/* 1 value pushed */
16 
EQ[ ]	/* Equal */
OR[ ]	/* LogicalOr */
MPPEM[ ]	/* MeasurePixelPerEm */
PUSHB[ ]	/* 1 value pushed */
17 
EQ[ ]	/* Equal */
OR[ ]	/* LogicalOr */
MPPEM[ ]	/* MeasurePixelPerEm */
PUSHB[ ]	/* 1 value pushed */
18 
EQ[ ]	/* Equal */
OR[ ]	/* LogicalOr */
MPPEM[ ]	/* MeasurePixelPerEm */
PUSHB[ ]	/* 1 value pushed */
19 
EQ[ ]	/* Equal */
OR[ ]	/* LogicalOr */
IF[ ]	/* If */
PUSHW[ ]	/* 6 values pushed */
8 64 1 8 8 -64 
SHPIX[ ]	/* ShiftZoneByPixel */
SRP1[ ]	/* SetRefPoint1 */
SHZ[1]	/* ShiftZoneByLastPoint */
SHPIX[ ]	/* ShiftZoneByPixel */
EIF[ ]	/* EndIf */
NPUSHB[ ]	/* 9 values pushed */
31 5 31 6 175 5 175 6 4 
DELTAP1[ ]	/* DeltaExceptionP1 */";
};
width = 1233;
}
);
note = T;
unicode = 84;
},
{
glyphname = U;
layers = (
{
layerId = m01;
shapes = (
{
closed = 1;
nodes = (
(45,394,o),
(45,352,qs),
(45,169,o),
(281,-29,o),
(500,-29,qs),
(625,-29,o),
(833,49,o),
(909,123,qs),
(972,186,o),
(1052,371,o),
(1087,551,qs),
(1272,1493,l),
(977,1493,l),
(778,477,ls),
(753,353,o),
(624,231,o),
(516,231,qs),
(432,231,o),
(340,321,o),
(340,403,qs),
(340,424,o),
(347,471,qs),
(348,475,o),
(348,477,q),
(547,1493,l),
(252,1493,l),
(68,551,ls),
(56,494,o)
);
}
);
userData = {
assembly = "NPUSHB[ ]	/* 61 values pushed */
14 17 15 16 15 12 1 11 13 17 16 16 15 8 7 6 5 4 5 9 3 17 0 1 0 2 17 1 1 0 52 13 3 16 0 1 10 86 22 69 14 1 57 28 0 1 25 14 13 5 3 2 5 15 16 15 7 7 17 25 28 
SRP0[ ]	/* SetRefPoint0 */
MDRP[10100]	/* MoveDirectRelPt */
MIRP[01100]	/* MoveIndirectRelPt */
SRP0[ ]	/* SetRefPoint0 */
MDRP[00000]	/* MoveDirectRelPt */
MDRP[00000]	/* MoveDirectRelPt */
SRP2[ ]	/* SetRefPoint2 */
SLOOP[ ]	/* SetLoopVariable */
IP[ ]	/* InterpolatePts */
SRP2[ ]	/* SetRefPoint2 */
IP[ ]	/* InterpolatePts */
IP[ ]	/* InterpolatePts */
IUP[1]	/* InterpolateUntPts */
SVTCA[0]	/* SetFreedomAndProjectionVectorToAxis */
SRP0[ ]	/* SetRefPoint0 */
MIRP[00100]	/* MoveIndirectRelPt */
SHP[0]	/* ShiftPointByLastPoint */
MIRP[10100]	/* MoveIndirectRelPt */
MIRP[01100]	/* MoveIndirectRelPt */
SRP1[ ]	/* SetRefPoint1 */
IP[ ]	/* InterpolatePts */
IP[ ]	/* InterpolatePts */
IP[ ]	/* InterpolatePts */
IP[ ]	/* InterpolatePts */
IUP[0]	/* InterpolateUntPts */
MPPEM[ ]	/* MeasurePixelPerEm */
GTEQ[ ]	/* GreaterThanOrEqual */
IF[ ]	/* If */
SPVTL[1]	/* SetPVectorToLine */
SRP0[ ]	/* SetRefPoint0 */
SFVTCA[1]	/* SetFVectorToAxis */
MIRP[01101]	/* MoveIndirectRelPt */
SPVTL[1]	/* SetPVectorToLine */
SRP0[ ]	/* SetRefPoint0 */
SFVTCA[1]	/* SetFVectorToAxis */
MIRP[01101]	/* MoveIndirectRelPt */
SRP1[ ]	/* SetRefPoint1 */
SLOOP[ ]	/* SetLoopVariable */
IP[ ]	/* InterpolatePts */
SPVTL[1]	/* SetPVectorToLine */
SRP0[ ]	/* SetRefPoint0 */
SFVTCA[1]	/* SetFVectorToAxis */
MIRP[01101]	/* MoveIndirectRelPt */
SRP1[ ]	/* SetRefPoint1 */
SLOOP[ ]	/* SetLoopVariable */
IP[ ]	/* InterpolatePts */
SPVTL[1]	/* SetPVectorToLine */
SRP0[ ]	/* SetRefPoint0 */
SFVTCA[1]	/* SetFVectorToAxis */
MIRP[01101]	/* MoveIndirectRelPt */
EIF[ ]	/* EndIf */
CLEAR[ ]	/* ClearStack */";
};
width = 1233;
}
);
note = U;
unicode = 85;
},
{
glyphname = V;
layers = (
{
layerId = m01;
shapes = (
{
closed = 1;
nodes = (
(203,1493,l),
(268,0,l),
(680,0,l),
(1325,1493,l),
(1024,1493,l),
(518,242,l),
(494,1493,l)
);
}
);
userData = {
assembly = "NPUSHB[ ]	/* 35 values pushed */
1 2 3 2 0 6 0 3 3 2 0 1 0 4 5 4 6 5 5 4 52 0 5 1 57 3 6 4 3 1 0 5 2 5 7 
SRP0[ ]	/* SetRefPoint0 */
MDRP[10100]	/* MoveDirectRelPt */
MDRP[01100]	/* MoveDirectRelPt */
SLOOP[ ]	/* SetLoopVariable */
IP[ ]	/* InterpolatePts */
IUP[1]	/* InterpolateUntPts */
SVTCA[0]	/* SetFreedomAndProjectionVectorToAxis */
MDAP[1]	/* MoveDirectAbsPt */
MIRP[00100]	/* MoveIndirectRelPt */
SHP[0]	/* ShiftPointByLastPoint */
IP[ ]	/* InterpolatePts */
IUP[0]	/* InterpolateUntPts */
MPPEM[ ]	/* MeasurePixelPerEm */
GTEQ[ ]	/* GreaterThanOrEqual */
IF[ ]	/* If */
SPVTL[1]	/* SetPVectorToLine */
SRP0[ ]	/* SetRefPoint0 */
SFVTCA[1]	/* SetFVectorToAxis */
MDRP[01001]	/* MoveDirectRelPt */
SPVTL[1]	/* SetPVectorToLine */
SRP0[ ]	/* SetRefPoint0 */
SFVTL[0]	/* SetFVectorToLine */
MDRP[01001]	/* MoveDirectRelPt */
SPVTL[1]	/* SetPVectorToLine */
SRP0[ ]	/* SetRefPoint0 */
SFVTL[0]	/* SetFVectorToLine */
MDRP[01001]	/* MoveDirectRelPt */
SPVTL[1]	/* SetPVectorToLine */
SRP0[ ]	/* SetRefPoint0 */
SFVTCA[1]	/* SetFVectorToAxis */
MDRP[01001]	/* MoveDirectRelPt */
EIF[ ]	/* EndIf */
CLEAR[ ]	/* ClearStack */";
};
width = 1233;
}
);
note = V;
unicode = 86;
},
{
glyphname = W;
layers = (
{
layerId = m01;
shapes = (
{
closed = 1;
nodes = (
(309,0,l),
(627,784,l),
(639,0,l),
(909,0,l),
(1370,1493,l),
(1108,1493,l),
(811,397,l),
(799,1106,l),
(561,1106,l),
(289,397,l),
(397,1493,l),
(143,1493,l),
(41,0,l)
);
}
);
userData = {
assembly = "NPUSHB[ ]	/* 65 values pushed */
3 10 11 10 2 1 2 11 11 10 5 6 5 10 9 4 10 10 9 6 7 8 7 5 4 5 8 8 7 2 3 2 12 0 12 1 0 0 12 52 10 5 3 2 4 6 0 57 11 8 11 10 9 8 6 5 4 3 2 1 0 11 7 12 13 
SRP0[ ]	/* SetRefPoint0 */
MDRP[10100]	/* MoveDirectRelPt */
MDRP[01100]	/* MoveDirectRelPt */
SLOOP[ ]	/* SetLoopVariable */
IP[ ]	/* InterpolatePts */
IUP[1]	/* InterpolateUntPts */
SVTCA[0]	/* SetFreedomAndProjectionVectorToAxis */
MDAP[1]	/* MoveDirectAbsPt */
ALIGNRP[ ]	/* AlignRelativePt */
MIRP[00100]	/* MoveIndirectRelPt */
SHP[0]	/* ShiftPointByLastPoint */
SLOOP[ ]	/* SetLoopVariable */
IP[ ]	/* InterpolatePts */
IUP[0]	/* InterpolateUntPts */
MPPEM[ ]	/* MeasurePixelPerEm */
GTEQ[ ]	/* GreaterThanOrEqual */
IF[ ]	/* If */
SPVTL[1]	/* SetPVectorToLine */
SRP0[ ]	/* SetRefPoint0 */
SFVTCA[1]	/* SetFVectorToAxis */
MDRP[01001]	/* MoveDirectRelPt */
SPVTL[1]	/* SetPVectorToLine */
SRP0[ ]	/* SetRefPoint0 */
SFVTL[0]	/* SetFVectorToLine */
MDRP[01001]	/* MoveDirectRelPt */
SPVTL[1]	/* SetPVectorToLine */
SRP0[ ]	/* SetRefPoint0 */
SFVTL[0]	/* SetFVectorToLine */
MDRP[01001]	/* MoveDirectRelPt */
SPVTL[1]	/* SetPVectorToLine */
SRP0[ ]	/* SetRefPoint0 */
SFVTCA[1]	/* SetFVectorToAxis */
MDRP[01001]	/* MoveDirectRelPt */
SPVTL[1]	/* SetPVectorToLine */
SRP0[ ]	/* SetRefPoint0 */
SFVTCA[1]	/* SetFVectorToAxis */
MDRP[01001]	/* MoveDirectRelPt */
SPVTL[1]	/* SetPVectorToLine */
SFVTL[0]	/* SetFVectorToLine */
MDRP[01001]	/* MoveDirectRelPt */
SPVTL[1]	/* SetPVectorToLine */
SRP0[ ]	/* SetRefPoint0 */
SFVTL[0]	/* SetFVectorToLine */
MDRP[01001]	/* MoveDirectRelPt */
SPVTL[1]	/* SetPVectorToLine */
SRP0[ ]	/* SetRefPoint0 */
SFVTCA[1]	/* SetFVectorToAxis */
MDRP[01001]	/* MoveDirectRelPt */
EIF[ ]	/* EndIf */
CLEAR[ ]	/* ClearStack */
PUSHB[ ]	/* 3 values pushed */
24 2 1 
SVTCA[1]	/* SetFreedomAndProjectionVectorToAxis */
DELTAP1[ ]	/* DeltaExceptionP1 */
NPUSHB[ ]	/* 17 values pushed */
25 2 30 3 42 2 42 3 53 0 56 2 56 3 56 5 8 
DELTAP1[ ]	/* DeltaExceptionP1 */";
};
width = 1233;
}
);
note = W;
unicode = 87;
},
{
glyphname = X;
layers = (
{
layerId = m01;
shapes = (
{
closed = 1;
nodes = (
(1343,1493,l),
(1022,1493,l),
(662,1030,l),
(475,1493,l),
(184,1493,l),
(471,782,l),
(-143,0,l),
(180,0,l),
(580,512,l),
(780,0,l),
(1071,0,l),
(770,756,l)
);
}
);
userData = {
assembly = "NPUSHB[ ]	/* 63 values pushed */
3 4 5 4 2 1 2 5 5 4 2 3 2 11 0 11 1 0 0 11 9 10 11 10 8 7 8 11 11 10 8 9 8 5 6 5 7 6 6 5 52 8 5 2 3 9 6 57 3 0 11 8 7 6 5 2 1 0 8 12 10 4 12 
SRP0[ ]	/* SetRefPoint0 */
MDRP[10100]	/* MoveDirectRelPt */
MDRP[01100]	/* MoveDirectRelPt */
SRP1[ ]	/* SetRefPoint1 */
SLOOP[ ]	/* SetLoopVariable */
IP[ ]	/* InterpolatePts */
IUP[1]	/* InterpolateUntPts */
SVTCA[0]	/* SetFreedomAndProjectionVectorToAxis */
MDAP[1]	/* MoveDirectAbsPt */
ALIGNRP[ ]	/* AlignRelativePt */
MIRP[00100]	/* MoveIndirectRelPt */
SHP[0]	/* ShiftPointByLastPoint */
SLOOP[ ]	/* SetLoopVariable */
IP[ ]	/* InterpolatePts */
IUP[0]	/* InterpolateUntPts */
MPPEM[ ]	/* MeasurePixelPerEm */
GTEQ[ ]	/* GreaterThanOrEqual */
IF[ ]	/* If */
SPVTL[1]	/* SetPVectorToLine */
SRP0[ ]	/* SetRefPoint0 */
SFVTCA[1]	/* SetFVectorToAxis */
MDRP[01001]	/* MoveDirectRelPt */
SPVTL[1]	/* SetPVectorToLine */
SRP0[ ]	/* SetRefPoint0 */
SFVTL[0]	/* SetFVectorToLine */
MDRP[01001]	/* MoveDirectRelPt */
SPVTL[1]	/* SetPVectorToLine */
SRP0[ ]	/* SetRefPoint0 */
SFVTL[0]	/* SetFVectorToLine */
MDRP[01001]	/* MoveDirectRelPt */
SPVTL[1]	/* SetPVectorToLine */
SRP0[ ]	/* SetRefPoint0 */
SFVTCA[1]	/* SetFVectorToAxis */
MDRP[01001]	/* MoveDirectRelPt */
SPVTL[1]	/* SetPVectorToLine */
SRP0[ ]	/* SetRefPoint0 */
SFVTCA[1]	/* SetFVectorToAxis */
MDRP[01001]	/* MoveDirectRelPt */
SPVTL[1]	/* SetPVectorToLine */
SRP0[ ]	/* SetRefPoint0 */
SFVTL[0]	/* SetFVectorToLine */
MDRP[01001]	/* MoveDirectRelPt */
SPVTL[1]	/* SetPVectorToLine */
SRP0[ ]	/* SetRefPoint0 */
SFVTL[0]	/* SetFVectorToLine */
MDRP[01001]	/* MoveDirectRelPt */
SPVTL[1]	/* SetPVectorToLine */
SRP0[ ]	/* SetRefPoint0 */
SFVTCA[1]	/* SetFVectorToAxis */
MDRP[01001]	/* MoveDirectRelPt */
EIF[ ]	/* EndIf */
CLEAR[ ]	/* ClearStack */";
};
width = 1233;
}
);
note = X;
unicode = 88;
},
{
glyphname = Y;
layers = (
{
layerId = m01;
shapes = (
{
closed = 1;
nodes = (
(317,0,l),
(610,0,l),
(725,588,l),
(1358,1493,l),
(1036,1493,l),
(625,844,l),
(438,1493,l),
(145,1493,l),
(432,588,l)
);
}
);
userData = {
assembly = "NPUSHB[ ]	/* 49 values pushed */
3 4 5 4 2 1 2 5 5 4 2 3 2 8 0 8 1 0 0 8 6 17 7 8 7 5 17 4 5 8 8 7 52 2 3 0 57 6 6 2 1 3 8 4 0 8 4 7 9 
SRP0[ ]	/* SetRefPoint0 */
MDRP[10100]	/* MoveDirectRelPt */
MDRP[00100]	/* MoveDirectRelPt */
MDRP[00100]	/* MoveDirectRelPt */
MDRP[00100]	/* MoveDirectRelPt */
SRP1[ ]	/* SetRefPoint1 */
SRP2[ ]	/* SetRefPoint2 */
SLOOP[ ]	/* SetLoopVariable */
IP[ ]	/* InterpolatePts */
IUP[1]	/* InterpolateUntPts */
SVTCA[0]	/* SetFreedomAndProjectionVectorToAxis */
MDAP[1]	/* MoveDirectAbsPt */
MIRP[00100]	/* MoveIndirectRelPt */
SHP[0]	/* ShiftPointByLastPoint */
IP[ ]	/* InterpolatePts */
IUP[0]	/* InterpolateUntPts */
MPPEM[ ]	/* MeasurePixelPerEm */
GTEQ[ ]	/* GreaterThanOrEqual */
IF[ ]	/* If */
SPVTL[1]	/* SetPVectorToLine */
SRP0[ ]	/* SetRefPoint0 */
SFVTL[0]	/* SetFVectorToLine */
MIRP[01101]	/* MoveIndirectRelPt */
SPVTL[1]	/* SetPVectorToLine */
SRP0[ ]	/* SetRefPoint0 */
SFVTCA[1]	/* SetFVectorToAxis */
MIRP[01101]	/* MoveIndirectRelPt */
SPVTL[1]	/* SetPVectorToLine */
SRP0[ ]	/* SetRefPoint0 */
SFVTCA[1]	/* SetFVectorToAxis */
MDRP[01001]	/* MoveDirectRelPt */
SPVTL[1]	/* SetPVectorToLine */
SRP0[ ]	/* SetRefPoint0 */
SFVTL[0]	/* SetFVectorToLine */
MDRP[01001]	/* MoveDirectRelPt */
SPVTL[1]	/* SetPVectorToLine */
SRP0[ ]	/* SetRefPoint0 */
SFVTL[0]	/* SetFVectorToLine */
MDRP[01001]	/* MoveDirectRelPt */
SPVTL[1]	/* SetPVectorToLine */
SRP0[ ]	/* SetRefPoint0 */
SFVTCA[1]	/* SetFVectorToAxis */
MDRP[01001]	/* MoveDirectRelPt */
EIF[ ]	/* EndIf */
CLEAR[ ]	/* ClearStack */";
};
width = 1233;
}
);
note = Y;
unicode = 89;
},
{
glyphname = Z;
layers = (
{
layerId = m01;
shapes = (
{
closed = 1;
nodes = (
(872,1233,l),
(14,244,l),
(-33,0,l),
(1014,0,l),
(1065,260,l),
(365,260,l),
(1241,1249,l),
(1290,1493,l),
(281,1493,l),
(229,1233,l)
);
}
);
userData = {
assembly = "NPUSHB[ ]	/* 27 values pushed */
3 7 8 7 8 2 3 2 52 8 86 0 57 3 86 5 9 8 5 4 3 0 6 10 1 6 10 
SRP0[ ]	/* SetRefPoint0 */
MDRP[10100]	/* MoveDirectRelPt */
MDRP[01100]	/* MoveDirectRelPt */
SRP1[ ]	/* SetRefPoint1 */
SLOOP[ ]	/* SetLoopVariable */
IP[ ]	/* InterpolatePts */
IUP[1]	/* InterpolateUntPts */
SVTCA[0]	/* SetFreedomAndProjectionVectorToAxis */
MDAP[1]	/* MoveDirectAbsPt */
MIRP[01100]	/* MoveIndirectRelPt */
MIRP[10100]	/* MoveIndirectRelPt */
MIRP[01100]	/* MoveIndirectRelPt */
IUP[0]	/* InterpolateUntPts */
MPPEM[ ]	/* MeasurePixelPerEm */
GTEQ[ ]	/* GreaterThanOrEqual */
IF[ ]	/* If */
SPVTL[1]	/* SetPVectorToLine */
SRP0[ ]	/* SetRefPoint0 */
SFVTCA[1]	/* SetFVectorToAxis */
MDRP[01001]	/* MoveDirectRelPt */
SPVTL[1]	/* SetPVectorToLine */
SRP0[ ]	/* SetRefPoint0 */
SFVTCA[1]	/* SetFVectorToAxis */
MDRP[01001]	/* MoveDirectRelPt */
EIF[ ]	/* EndIf */
CLEAR[ ]	/* ClearStack */";
};
width = 1233;
}
);
note = Z;
unicode = 90;
},
{
glyphname = bracketleft;
layers = (
{
layerId = m01;
shapes = (
{
closed = 1;
nodes = (
(731,-270,l),
(768,-80,l),
(526,-80,l),
(807,1366,l),
(1049,1366,l),
(1087,1556,l),
(580,1556,l),
(223,-270,l)
);
}
);
userData = {
assembly = "NPUSHB[ ]	/* 33 values pushed */
4 17 7 0 7 3 17 0 0 7 52 4 87 6 2 87 0 71 8 3 5 2 4 7 0 2 1 0 5 6 0 7 8 
SRP0[ ]	/* SetRefPoint0 */
MDRP[10100]	/* MoveDirectRelPt */
MDRP[00100]	/* MoveDirectRelPt */
MDRP[10100]	/* MoveDirectRelPt */
MDRP[00100]	/* MoveDirectRelPt */
SRP0[ ]	/* SetRefPoint0 */
MDRP[10110]	/* MoveDirectRelPt */
MDRP[00110]	/* MoveDirectRelPt */
SRP1[ ]	/* SetRefPoint1 */
SRP2[ ]	/* SetRefPoint2 */
IP[ ]	/* InterpolatePts */
SRP1[ ]	/* SetRefPoint1 */
SRP2[ ]	/* SetRefPoint2 */
IP[ ]	/* InterpolatePts */
IUP[1]	/* InterpolateUntPts */
SVTCA[0]	/* SetFreedomAndProjectionVectorToAxis */
SRP0[ ]	/* SetRefPoint0 */
MIRP[11100]	/* MoveIndirectRelPt */
MIRP[01100]	/* MoveIndirectRelPt */
MDRP[10100]	/* MoveDirectRelPt */
MIRP[01100]	/* MoveIndirectRelPt */
IUP[0]	/* InterpolateUntPts */
MPPEM[ ]	/* MeasurePixelPerEm */
GTEQ[ ]	/* GreaterThanOrEqual */
IF[ ]	/* If */
SPVTL[1]	/* SetPVectorToLine */
SRP0[ ]	/* SetRefPoint0 */
SFVTCA[1]	/* SetFVectorToAxis */
MIRP[01101]	/* MoveIndirectRelPt */
SPVTL[1]	/* SetPVectorToLine */
SRP0[ ]	/* SetRefPoint0 */
SFVTCA[1]	/* SetFVectorToAxis */
MIRP[01101]	/* MoveIndirectRelPt */
EIF[ ]	/* EndIf */
CLEAR[ ]	/* ClearStack */";
};
width = 1233;
}
);
note = bracketleft;
unicode = 91;
},
{
glyphname = backslash;
layers = (
{
layerId = m01;
shapes = (
{
closed = 1;
nodes = (
(539,-190,l),
(741,-190,l),
(543,1493,l),
(340,1493,l)
);
}
);
userData = {
assembly = "NPUSHB[ ]	/* 19 values pushed */
1 2 3 2 0 3 3 2 52 1 0 57 4 0 1 2 2 3 4 
SRP0[ ]	/* SetRefPoint0 */
MDRP[10100]	/* MoveDirectRelPt */
MDRP[00100]	/* MoveDirectRelPt */
SRP0[ ]	/* SetRefPoint0 */
MDRP[00000]	/* MoveDirectRelPt */
IP[ ]	/* InterpolatePts */
IUP[1]	/* InterpolateUntPts */
SVTCA[0]	/* SetFreedomAndProjectionVectorToAxis */
SRP0[ ]	/* SetRefPoint0 */
MIRP[10100]	/* MoveIndirectRelPt */
MDRP[01100]	/* MoveDirectRelPt */
IUP[0]	/* InterpolateUntPts */
MPPEM[ ]	/* MeasurePixelPerEm */
GTEQ[ ]	/* GreaterThanOrEqual */
IF[ ]	/* If */
SPVTL[1]	/* SetPVectorToLine */
SRP0[ ]	/* SetRefPoint0 */
SFVTCA[1]	/* SetFVectorToAxis */
MDRP[01001]	/* MoveDirectRelPt */
SPVTL[1]	/* SetPVectorToLine */
SRP0[ ]	/* SetRefPoint0 */
SFVTCA[1]	/* SetFVectorToAxis */
MDRP[01001]	/* MoveDirectRelPt */
EIF[ ]	/* EndIf */
CLEAR[ ]	/* ClearStack */";
};
width = 1233;
}
);
note = backslash;
unicode = 92;
},
{
glyphname = bracketright;
layers = (
{
layerId = m01;
shapes = (
{
closed = 1;
nodes = (
(461,1556,l),
(424,1366,l),
(666,1366,l),
(385,-80,l),
(143,-80,l),
(106,-270,l),
(612,-270,l),
(969,1556,l)
);
}
);
userData = {
assembly = "NPUSHB[ ]	/* 31 values pushed */
4 17 7 0 7 3 17 0 7 52 2 87 0 4 87 6 71 8 3 5 2 4 7 0 5 6 7 0 2 1 8 
SRP0[ ]	/* SetRefPoint0 */
MDRP[10100]	/* MoveDirectRelPt */
MDRP[00100]	/* MoveDirectRelPt */
MDRP[10100]	/* MoveDirectRelPt */
MDRP[10100]	/* MoveDirectRelPt */
MDRP[10100]	/* MoveDirectRelPt */
MDRP[00100]	/* MoveDirectRelPt */
SRP1[ ]	/* SetRefPoint1 */
SRP2[ ]	/* SetRefPoint2 */
IP[ ]	/* InterpolatePts */
SRP1[ ]	/* SetRefPoint1 */
SRP2[ ]	/* SetRefPoint2 */
IP[ ]	/* InterpolatePts */
IUP[1]	/* InterpolateUntPts */
SVTCA[0]	/* SetFreedomAndProjectionVectorToAxis */
SRP0[ ]	/* SetRefPoint0 */
MIRP[11100]	/* MoveIndirectRelPt */
MIRP[01100]	/* MoveIndirectRelPt */
MDRP[10100]	/* MoveDirectRelPt */
MIRP[01100]	/* MoveIndirectRelPt */
IUP[0]	/* InterpolateUntPts */
MPPEM[ ]	/* MeasurePixelPerEm */
GTEQ[ ]	/* GreaterThanOrEqual */
IF[ ]	/* If */
SPVTL[1]	/* SetPVectorToLine */
SFVTCA[1]	/* SetFVectorToAxis */
MIRP[01101]	/* MoveIndirectRelPt */
SPVTL[1]	/* SetPVectorToLine */
SRP0[ ]	/* SetRefPoint0 */
SFVTCA[1]	/* SetFVectorToAxis */
MIRP[01101]	/* MoveIndirectRelPt */
EIF[ ]	/* EndIf */
CLEAR[ ]	/* ClearStack */";
};
width = 1233;
}
);
note = bracketright;
unicode = 93;
},
{
glyphname = asciicircum;
layers = (
{
layerId = m01;
shapes = (
{
closed = 1;
nodes = (
(57,936,l),
(299,936,l),
(616,1237,l),
(934,936,l),
(1176,936,l),
(739,1493,l),
(494,1493,l)
);
}
);
userData = {
assembly = "NPUSHB[ ]	/* 10 values pushed */
3 4 1 0 57 7 3 1 5 7 
SRP0[ ]	/* SetRefPoint0 */
MDRP[10100]	/* MoveDirectRelPt */
MDRP[01100]	/* MoveDirectRelPt */
IP[ ]	/* InterpolatePts */
IUP[1]	/* InterpolateUntPts */
SVTCA[0]	/* SetFreedomAndProjectionVectorToAxis */
SRP0[ ]	/* SetRefPoint0 */
MIRP[10100]	/* MoveIndirectRelPt */
MDRP[01100]	/* MoveDirectRelPt */
SHP[0]	/* ShiftPointByLastPoint */
IP[ ]	/* InterpolatePts */
IUP[0]	/* InterpolateUntPts */";
};
width = 1233;
}
);
note = asciicircum;
unicode = 94;
},
{
glyphname = underscore;
lastChange = "2023-02-03 09:16:59 +0000";
layers = (
{
layerId = m01;
shapes = (
{
closed = 1;
nodes = (
(217,-483,l),
(1017,-483,l),
(1017,-293,l),
(217,-293,l)
);
}
);
userData = {
assembly = "PUSHB[ ]	/* 6 values pushed */
0 87 1 4 0 2 
MDAP[1]	/* MoveDirectAbsPt */
MDRP[01100]	/* MoveDirectRelPt */
IUP[1]	/* InterpolateUntPts */
SVTCA[0]	/* SetFreedomAndProjectionVectorToAxis */
SRP0[ ]	/* SetRefPoint0 */
MDRP[10100]	/* MoveDirectRelPt */
MIRP[01100]	/* MoveIndirectRelPt */
IUP[0]	/* InterpolateUntPts */";
};
width = 1233;
}
);
note = underscore;
unicode = 95;
},
{
glyphname = grave;
layers = (
{
layerId = m01;
shapes = (
{
closed = 1;
nodes = (
(666,1262,l),
(864,1262,l),
(655,1638,l),
(371,1638,l)
);
}
);
userData = {
assembly = "PUSHB[ ]	/* 7 values pushed */
1 0 4 0 1 3 4 
SRP0[ ]	/* SetRefPoint0 */
MDRP[10100]	/* MoveDirectRelPt */
MDRP[01100]	/* MoveDirectRelPt */
IP[ ]	/* InterpolatePts */
IUP[1]	/* InterpolateUntPts */
SVTCA[0]	/* SetFreedomAndProjectionVectorToAxis */
SRP0[ ]	/* SetRefPoint0 */
MDRP[10100]	/* MoveDirectRelPt */
MDRP[01100]	/* MoveDirectRelPt */
IUP[0]	/* InterpolateUntPts */
SVTCA[0]	/* SetFreedomAndProjectionVectorToAxis */
MPPEM[ ]	/* MeasurePixelPerEm */
PUSHB[ ]	/* 1 value pushed */
9 
EQ[ ]	/* Equal */
MPPEM[ ]	/* MeasurePixelPerEm */
PUSHB[ ]	/* 1 value pushed */
14 
EQ[ ]	/* Equal */
OR[ ]	/* LogicalOr */
IF[ ]	/* If */
PUSHW[ ]	/* 6 values pushed */
4 -64 1 4 4 64 
SHPIX[ ]	/* ShiftZoneByPixel */
SRP1[ ]	/* SetRefPoint1 */
SHZ[1]	/* ShiftZoneByLastPoint */
SHPIX[ ]	/* ShiftZoneByPixel */
EIF[ ]	/* EndIf */";
};
width = 1233;
}
);
note = grave;
unicode = 96;
},
{
glyphname = a;
layers = (
{
layerId = m01;
shapes = (
{
closed = 1;
nodes = (
(774,358,o),
(614,172,o),
(496,172,qs),
(433,172,o),
(352,254,o),
(352,317,qs),
(352,426,o),
(518,530,o),
(690,530,qs),
(803,530,l)
);
},
{
closed = 1;
nodes = (
(1141,809,o),
(1141,848,qs),
(1141,995,o),
(917,1147,o),
(700,1147,qs),
(609,1147,o),
(408,1108,o),
(295,1069,q),
(248,819,l),
(366,875,o),
(573,932,o),
(655,932,qs),
(752,932,o),
(854,872,o),
(854,815,qs),
(854,803,o),
(853,792,o),
(852,786,qs),
(844,737,l),
(651,737,ls),
(358,737,o),
(47,510,o),
(47,295,qs),
(47,146,o),
(224,-29,o),
(375,-29,qs),
(485,-29,o),
(658,48,o),
(725,125,q),
(700,0,l),
(991,0,l),
(1114,639,ls),
(1127,703,o)
);
}
);
userData = {
assembly = "NPUSHB[ ]	/* 79 values pushed */
1 0 2 2 9 15 10 11 10 7 1 6 8 15 11 10 15 14 2 16 13 15 11 10 12 15 11 11 10 52 24 33 22 13 11 6 10 0 93 22 6 93 16 33 60 34 92 30 93 37 91 16 69 22 95 11 10 11 40 24 23 12 9 0 5 13 22 27 33 34 19 3 27 15 40 3 15 19 43 
SRP0[ ]	/* SetRefPoint0 */
MDRP[10100]	/* MoveDirectRelPt */
MIRP[01100]	/* MoveIndirectRelPt */
MDRP[10100]	/* MoveDirectRelPt */
MIRP[01100]	/* MoveIndirectRelPt */
SRP1[ ]	/* SetRefPoint1 */
SRP2[ ]	/* SetRefPoint2 */
IP[ ]	/* InterpolatePts */
IP[ ]	/* InterpolatePts */
SRP2[ ]	/* SetRefPoint2 */
IP[ ]	/* InterpolatePts */
IP[ ]	/* InterpolatePts */
SLOOP[ ]	/* SetLoopVariable */
IP[ ]	/* InterpolatePts */
SRP1[ ]	/* SetRefPoint1 */
IP[ ]	/* InterpolatePts */
IP[ ]	/* InterpolatePts */
IUP[1]	/* InterpolateUntPts */
SVTCA[0]	/* SetFreedomAndProjectionVectorToAxis */
MDAP[1]	/* MoveDirectAbsPt */
MIRP[00100]	/* MoveIndirectRelPt */
MIRP[00100]	/* MoveIndirectRelPt */
MIRP[10100]	/* MoveIndirectRelPt */
MIRP[01100]	/* MoveIndirectRelPt */
MIRP[10100]	/* MoveIndirectRelPt */
MIRP[01100]	/* MoveIndirectRelPt */
SRP0[ ]	/* SetRefPoint0 */
MIRP[01110]	/* MoveIndirectRelPt */
SRP0[ ]	/* SetRefPoint0 */
MIRP[01110]	/* MoveIndirectRelPt */
IP[ ]	/* InterpolatePts */
SRP1[ ]	/* SetRefPoint1 */
SRP2[ ]	/* SetRefPoint2 */
IP[ ]	/* InterpolatePts */
SRP1[ ]	/* SetRefPoint1 */
SRP2[ ]	/* SetRefPoint2 */
IP[ ]	/* InterpolatePts */
IUP[0]	/* InterpolateUntPts */
MPPEM[ ]	/* MeasurePixelPerEm */
GTEQ[ ]	/* GreaterThanOrEqual */
IF[ ]	/* If */
SPVTL[1]	/* SetPVectorToLine */
SRP0[ ]	/* SetRefPoint0 */
SFVTCA[1]	/* SetFVectorToAxis */
MIRP[01101]	/* MoveIndirectRelPt */
SPVTL[1]	/* SetPVectorToLine */
SFVTCA[1]	/* SetFVectorToAxis */
MIRP[01101]	/* MoveIndirectRelPt */
SRP1[ ]	/* SetRefPoint1 */
SLOOP[ ]	/* SetLoopVariable */
IP[ ]	/* InterpolatePts */
SPVTL[1]	/* SetPVectorToLine */
SFVTCA[1]	/* SetFVectorToAxis */
MIRP[01101]	/* MoveIndirectRelPt */
SRP1[ ]	/* SetRefPoint1 */
SLOOP[ ]	/* SetLoopVariable */
IP[ ]	/* InterpolatePts */
SPVTL[1]	/* SetPVectorToLine */
SRP0[ ]	/* SetRefPoint0 */
SFVTCA[1]	/* SetFVectorToAxis */
MIRP[01101]	/* MoveIndirectRelPt */
SRP1[ ]	/* SetRefPoint1 */
SLOOP[ ]	/* SetLoopVariable */
IP[ ]	/* InterpolatePts */
EIF[ ]	/* EndIf */
CLEAR[ ]	/* ClearStack */
SVTCA[1]	/* SetFreedomAndProjectionVectorToAxis */
MPPEM[ ]	/* MeasurePixelPerEm */
PUSHB[ ]	/* 1 value pushed */
12 
EQ[ ]	/* Equal */
MPPEM[ ]	/* MeasurePixelPerEm */
PUSHB[ ]	/* 1 value pushed */
13 
EQ[ ]	/* Equal */
OR[ ]	/* LogicalOr */
MPPEM[ ]	/* MeasurePixelPerEm */
PUSHB[ ]	/* 1 value pushed */
14 
EQ[ ]	/* Equal */
OR[ ]	/* LogicalOr */
MPPEM[ ]	/* MeasurePixelPerEm */
PUSHB[ ]	/* 1 value pushed */
15 
EQ[ ]	/* Equal */
OR[ ]	/* LogicalOr */
MPPEM[ ]	/* MeasurePixelPerEm */
PUSHB[ ]	/* 1 value pushed */
16 
EQ[ ]	/* Equal */
OR[ ]	/* LogicalOr */
MPPEM[ ]	/* MeasurePixelPerEm */
PUSHB[ ]	/* 1 value pushed */
17 
EQ[ ]	/* Equal */
OR[ ]	/* LogicalOr */
MPPEM[ ]	/* MeasurePixelPerEm */
PUSHB[ ]	/* 1 value pushed */
19 
EQ[ ]	/* Equal */
OR[ ]	/* LogicalOr */
IF[ ]	/* If */
PUSHW[ ]	/* 6 values pushed */
43 -64 1 43 43 64 
SHPIX[ ]	/* ShiftZoneByPixel */
SRP1[ ]	/* SetRefPoint1 */
SHZ[1]	/* ShiftZoneByLastPoint */
SHPIX[ ]	/* ShiftZoneByPixel */
EIF[ ]	/* EndIf */
NPUSHB[ ]	/* 50 values pushed */
51 32 48 33 48 34 51 35 118 21 118 22 133 21 134 22 160 0 160 1 160 9 160 21 160 22 160 23 14 16 2 16 3 16 4 120 2 166 0 166 1 166 9 166 21 166 22 166 23 10 
DELTAP1[ ]	/* DeltaExceptionP1 */
SVTCA[0]	/* SetFreedomAndProjectionVectorToAxis */
DELTAP1[ ]	/* DeltaExceptionP1 */";
};
width = 1233;
}
);
note = a;
unicode = 97;
},
{
glyphname = b;
layers = (
{
layerId = m01;
shapes = (
{
closed = 1;
nodes = (
(434,328,o),
(434,432,qs),
(434,630,o),
(599,907,o),
(713,907,qs),
(787,907,o),
(870,795,o),
(870,694,qs),
(870,492,o),
(711,209,o),
(600,209,qs),
(524,209,o)
);
},
{
closed = 1;
nodes = (
(542,-29,o),
(653,-29,qs),
(770,-29,o),
(980,115,o),
(1049,244,qs),
(1104,349,o),
(1165,608,o),
(1165,739,qs),
(1165,928,o),
(994,1147,o),
(848,1147,qs),
(753,1147,o),
(587,1048,o),
(524,952,q),
(643,1556,l),
(350,1556,l),
(47,0,l),
(340,0,l),
(381,207,l),
(398,96,o)
);
}
);
userData = {
assembly = "NPUSHB[ ]	/* 74 values pushed */
11 10 2 0 9 15 15 14 7 1 6 8 15 15 14 13 15 15 14 30 31 2 29 12 15 14 15 14 19 18 2 20 17 15 15 14 16 15 15 15 14 52 17 20 6 12 13 0 6 60 20 0 60 29 69 20 91 15 71 13 13 14 16 9 17 12 15 3 15 23 15 22 14 32 
SRP0[ ]	/* SetRefPoint0 */
MDRP[10100]	/* MoveDirectRelPt */
MIRP[00100]	/* MoveIndirectRelPt */
MDRP[10100]	/* MoveDirectRelPt */
MIRP[01100]	/* MoveIndirectRelPt */
SRP1[ ]	/* SetRefPoint1 */
IP[ ]	/* InterpolatePts */
IP[ ]	/* InterpolatePts */
IP[ ]	/* InterpolatePts */
IP[ ]	/* InterpolatePts */
SRP2[ ]	/* SetRefPoint2 */
IP[ ]	/* InterpolatePts */
IUP[1]	/* InterpolateUntPts */
SVTCA[0]	/* SetFreedomAndProjectionVectorToAxis */
MDAP[1]	/* MoveDirectAbsPt */
MIRP[01100]	/* MoveIndirectRelPt */
MIRP[00100]	/* MoveIndirectRelPt */
MIRP[10100]	/* MoveIndirectRelPt */
MIRP[01100]	/* MoveIndirectRelPt */
SRP0[ ]	/* SetRefPoint0 */
MIRP[01110]	/* MoveIndirectRelPt */
SRP1[ ]	/* SetRefPoint1 */
SRP2[ ]	/* SetRefPoint2 */
IP[ ]	/* InterpolatePts */
SRP1[ ]	/* SetRefPoint1 */
SRP2[ ]	/* SetRefPoint2 */
IP[ ]	/* InterpolatePts */
IUP[0]	/* InterpolateUntPts */
MPPEM[ ]	/* MeasurePixelPerEm */
GTEQ[ ]	/* GreaterThanOrEqual */
IF[ ]	/* If */
SPVTL[1]	/* SetPVectorToLine */
SRP0[ ]	/* SetRefPoint0 */
SFVTCA[1]	/* SetFVectorToAxis */
MIRP[01101]	/* MoveIndirectRelPt */
SPVTL[1]	/* SetPVectorToLine */
SFVTCA[1]	/* SetFVectorToAxis */
MIRP[01101]	/* MoveIndirectRelPt */
SRP1[ ]	/* SetRefPoint1 */
SLOOP[ ]	/* SetLoopVariable */
IP[ ]	/* InterpolatePts */
SPVTL[1]	/* SetPVectorToLine */
SRP0[ ]	/* SetRefPoint0 */
SFVTCA[1]	/* SetFVectorToAxis */
MIRP[01101]	/* MoveIndirectRelPt */
SRP1[ ]	/* SetRefPoint1 */
SLOOP[ ]	/* SetLoopVariable */
IP[ ]	/* InterpolatePts */
SPVTL[1]	/* SetPVectorToLine */
SFVTCA[1]	/* SetFVectorToAxis */
MIRP[01101]	/* MoveIndirectRelPt */
SPVTL[1]	/* SetPVectorToLine */
SFVTCA[1]	/* SetFVectorToAxis */
MIRP[01101]	/* MoveIndirectRelPt */
SRP1[ ]	/* SetRefPoint1 */
SLOOP[ ]	/* SetLoopVariable */
IP[ ]	/* InterpolatePts */
SPVTL[1]	/* SetPVectorToLine */
SFVTCA[1]	/* SetFVectorToAxis */
MIRP[01101]	/* MoveIndirectRelPt */
SRP1[ ]	/* SetRefPoint1 */
SLOOP[ ]	/* SetLoopVariable */
IP[ ]	/* InterpolatePts */
EIF[ ]	/* EndIf */
CLEAR[ ]	/* ClearStack */
SVTCA[1]	/* SetFreedomAndProjectionVectorToAxis */
MPPEM[ ]	/* MeasurePixelPerEm */
PUSHB[ ]	/* 1 value pushed */
13 
EQ[ ]	/* Equal */
MPPEM[ ]	/* MeasurePixelPerEm */
PUSHB[ ]	/* 1 value pushed */
15 
EQ[ ]	/* Equal */
OR[ ]	/* LogicalOr */
MPPEM[ ]	/* MeasurePixelPerEm */
PUSHB[ ]	/* 1 value pushed */
16 
EQ[ ]	/* Equal */
OR[ ]	/* LogicalOr */
MPPEM[ ]	/* MeasurePixelPerEm */
PUSHB[ ]	/* 1 value pushed */
17 
EQ[ ]	/* Equal */
OR[ ]	/* LogicalOr */
IF[ ]	/* If */
PUSHW[ ]	/* 6 values pushed */
32 -64 1 32 32 64 
SHPIX[ ]	/* ShiftZoneByPixel */
SRP1[ ]	/* SetRefPoint1 */
SHZ[1]	/* ShiftZoneByLastPoint */
SHPIX[ ]	/* ShiftZoneByPixel */
EIF[ ]	/* EndIf */";
};
width = 1233;
}
);
note = b;
unicode = 98;
},
{
glyphname = c;
layers = (
{
layerId = m01;
shapes = (
{
closed = 1;
nodes = (
(921,261,o),
(762,209,o),
(692,209,qs),
(568,209,o),
(446,335,o),
(446,463,qs),
(446,661,o),
(659,909,o),
(829,909,qs),
(907,909,o),
(1043,853,o),
(1104,795,q),
(1157,1063,l),
(1081,1106,o),
(911,1147,o),
(813,1147,qs),
(517,1147,o),
(150,751,o),
(150,434,qs),
(150,219,o),
(407,-29,o),
(633,-29,qs),
(716,-29,o),
(879,4,o),
(956,37,q),
(1012,313,l)
);
}
);
userData = {
assembly = "NPUSHB[ ]	/* 28 values pushed */
25 0 13 96 12 22 60 0 75 3 16 60 12 75 9 91 3 69 26 25 13 0 12 19 15 12 6 26 
SRP0[ ]	/* SetRefPoint0 */
MDRP[10100]	/* MoveDirectRelPt */
MDRP[00100]	/* MoveDirectRelPt */
MIRP[01100]	/* MoveIndirectRelPt */
SRP1[ ]	/* SetRefPoint1 */
IP[ ]	/* InterpolatePts */
IP[ ]	/* InterpolatePts */
IP[ ]	/* InterpolatePts */
IUP[1]	/* InterpolateUntPts */
SVTCA[0]	/* SetFreedomAndProjectionVectorToAxis */
SRP0[ ]	/* SetRefPoint0 */
MIRP[00100]	/* MoveIndirectRelPt */
MIRP[10100]	/* MoveIndirectRelPt */
MIRP[00100]	/* MoveIndirectRelPt */
MIRP[01100]	/* MoveIndirectRelPt */
SRP0[ ]	/* SetRefPoint0 */
MIRP[00110]	/* MoveIndirectRelPt */
MIRP[01110]	/* MoveIndirectRelPt */
SRP0[ ]	/* SetRefPoint0 */
MIRP[01110]	/* MoveIndirectRelPt */
SRP0[ ]	/* SetRefPoint0 */
MDRP[00110]	/* MoveDirectRelPt */
IUP[0]	/* InterpolateUntPts */
SVTCA[1]	/* SetFreedomAndProjectionVectorToAxis */
MPPEM[ ]	/* MeasurePixelPerEm */
PUSHB[ ]	/* 1 value pushed */
13 
EQ[ ]	/* Equal */
MPPEM[ ]	/* MeasurePixelPerEm */
PUSHB[ ]	/* 1 value pushed */
15 
EQ[ ]	/* Equal */
OR[ ]	/* LogicalOr */
MPPEM[ ]	/* MeasurePixelPerEm */
PUSHB[ ]	/* 1 value pushed */
17 
EQ[ ]	/* Equal */
OR[ ]	/* LogicalOr */
IF[ ]	/* If */
PUSHW[ ]	/* 6 values pushed */
26 -64 1 26 26 64 
SHPIX[ ]	/* ShiftZoneByPixel */
SRP1[ ]	/* SetRefPoint1 */
SHZ[1]	/* ShiftZoneByLastPoint */
SHPIX[ ]	/* ShiftZoneByPixel */
EIF[ ]	/* EndIf */";
};
width = 1233;
}
);
note = c;
unicode = 99;
},
{
glyphname = d;
layers = (
{
layerId = m01;
shapes = (
{
closed = 1;
nodes = (
(799,790,o),
(799,686,qs),
(799,488,o),
(632,211,o),
(518,211,qs),
(445,211,o),
(362,323,o),
(362,424,qs),
(362,626,o),
(522,909,o),
(633,909,qs),
(709,909,o)
);
},
{
closed = 1;
nodes = (
(692,1149,o),
(580,1149,qs),
(463,1149,o),
(253,1003,o),
(184,874,qs),
(128,767,o),
(66,510,o),
(66,381,qs),
(66,191,o),
(237,-29,o),
(383,-29,qs),
(478,-29,o),
(643,70,o),
(709,166,q),
(678,0,l),
(969,0,l),
(1272,1556,l),
(979,1556,l),
(854,911,l),
(839,1022,o)
);
}
);
userData = {
assembly = "NPUSHB[ ]	/* 74 values pushed */
11 10 2 0 9 15 15 14 7 1 6 8 15 15 14 19 18 2 20 17 15 15 14 16 15 15 15 14 13 15 15 14 30 31 2 29 12 15 14 15 14 52 12 29 0 17 15 6 0 60 29 6 60 20 69 29 91 13 71 15 13 14 16 9 17 12 3 15 22 14 3 15 23 32 
SRP0[ ]	/* SetRefPoint0 */
MDRP[10100]	/* MoveDirectRelPt */
MIRP[01100]	/* MoveIndirectRelPt */
MDRP[10100]	/* MoveDirectRelPt */
MIRP[00100]	/* MoveIndirectRelPt */
SRP1[ ]	/* SetRefPoint1 */
IP[ ]	/* InterpolatePts */
IP[ ]	/* InterpolatePts */
IP[ ]	/* InterpolatePts */
IP[ ]	/* InterpolatePts */
SRP1[ ]	/* SetRefPoint1 */
IP[ ]	/* InterpolatePts */
IUP[1]	/* InterpolateUntPts */
SVTCA[0]	/* SetFreedomAndProjectionVectorToAxis */
MDAP[1]	/* MoveDirectAbsPt */
MIRP[01100]	/* MoveIndirectRelPt */
MIRP[00100]	/* MoveIndirectRelPt */
MIRP[10100]	/* MoveIndirectRelPt */
MIRP[01100]	/* MoveIndirectRelPt */
SRP0[ ]	/* SetRefPoint0 */
MIRP[01110]	/* MoveIndirectRelPt */
SRP1[ ]	/* SetRefPoint1 */
SRP2[ ]	/* SetRefPoint2 */
IP[ ]	/* InterpolatePts */
SRP1[ ]	/* SetRefPoint1 */
SRP2[ ]	/* SetRefPoint2 */
IP[ ]	/* InterpolatePts */
IUP[0]	/* InterpolateUntPts */
MPPEM[ ]	/* MeasurePixelPerEm */
GTEQ[ ]	/* GreaterThanOrEqual */
IF[ ]	/* If */
SPVTL[1]	/* SetPVectorToLine */
SRP0[ ]	/* SetRefPoint0 */
SFVTCA[1]	/* SetFVectorToAxis */
MIRP[01101]	/* MoveIndirectRelPt */
SRP1[ ]	/* SetRefPoint1 */
SLOOP[ ]	/* SetLoopVariable */
IP[ ]	/* InterpolatePts */
SPVTL[1]	/* SetPVectorToLine */
SFVTCA[1]	/* SetFVectorToAxis */
MIRP[01101]	/* MoveIndirectRelPt */
SPVTL[1]	/* SetPVectorToLine */
SRP0[ ]	/* SetRefPoint0 */
SFVTCA[1]	/* SetFVectorToAxis */
MIRP[01101]	/* MoveIndirectRelPt */
SPVTL[1]	/* SetPVectorToLine */
SFVTCA[1]	/* SetFVectorToAxis */
MIRP[01101]	/* MoveIndirectRelPt */
SRP1[ ]	/* SetRefPoint1 */
SLOOP[ ]	/* SetLoopVariable */
IP[ ]	/* InterpolatePts */
SPVTL[1]	/* SetPVectorToLine */
SFVTCA[1]	/* SetFVectorToAxis */
MIRP[01101]	/* MoveIndirectRelPt */
SRP1[ ]	/* SetRefPoint1 */
SLOOP[ ]	/* SetLoopVariable */
IP[ ]	/* InterpolatePts */
SPVTL[1]	/* SetPVectorToLine */
SFVTCA[1]	/* SetFVectorToAxis */
MIRP[01101]	/* MoveIndirectRelPt */
SRP1[ ]	/* SetRefPoint1 */
SLOOP[ ]	/* SetLoopVariable */
IP[ ]	/* InterpolatePts */
EIF[ ]	/* EndIf */
CLEAR[ ]	/* ClearStack */
SVTCA[1]	/* SetFreedomAndProjectionVectorToAxis */
MPPEM[ ]	/* MeasurePixelPerEm */
PUSHB[ ]	/* 1 value pushed */
12 
EQ[ ]	/* Equal */
MPPEM[ ]	/* MeasurePixelPerEm */
PUSHB[ ]	/* 1 value pushed */
13 
EQ[ ]	/* Equal */
OR[ ]	/* LogicalOr */
MPPEM[ ]	/* MeasurePixelPerEm */
PUSHB[ ]	/* 1 value pushed */
14 
EQ[ ]	/* Equal */
OR[ ]	/* LogicalOr */
MPPEM[ ]	/* MeasurePixelPerEm */
PUSHB[ ]	/* 1 value pushed */
15 
EQ[ ]	/* Equal */
OR[ ]	/* LogicalOr */
IF[ ]	/* If */
PUSHW[ ]	/* 6 values pushed */
32 -64 1 32 32 64 
SHPIX[ ]	/* ShiftZoneByPixel */
SRP1[ ]	/* SetRefPoint1 */
SHZ[1]	/* ShiftZoneByLastPoint */
SHPIX[ ]	/* ShiftZoneByPixel */
EIF[ ]	/* EndIf */";
};
width = 1233;
}
);
note = d;
unicode = 100;
},
{
glyphname = e;
layers = (
{
layerId = m01;
shapes = (
{
closed = 1;
nodes = (
(951,265,o),
(735,203,o),
(627,203,qs),
(496,203,o),
(362,304,o),
(362,403,qs),
(363,418,o),
(366,448,o),
(369,465,q),
(1128,465,l),
(1142,548,o),
(1155,666,o),
(1155,711,qs),
(1155,909,o),
(903,1149,o),
(694,1149,qs),
(560,1149,o),
(328,1040,o),
(244,938,qs),
(164,841,o),
(76,577,o),
(76,436,qs),
(76,208,o),
(334,-29,o),
(582,-29,qs),
(692,-29,o),
(898,13,o),
(993,55,q),
(1044,324,l)
);
},
{
closed = 1;
nodes = (
(450,802,o),
(592,920,o),
(692,920,qs),
(781,920,o),
(883,822,o),
(883,737,qs),
(883,725,o),
(880,698,o),
(876,684,q),
(410,684,l)
);
}
);
userData = {
assembly = "NPUSHB[ ]	/* 35 values pushed */
28 96 0 29 100 18 25 60 0 75 3 18 99 35 60 12 91 3 69 39 38 29 19 3 22 18 28 0 32 3 15 22 15 6 39 
SRP0[ ]	/* SetRefPoint0 */
MDRP[10100]	/* MoveDirectRelPt */
MIRP[01100]	/* MoveIndirectRelPt */
MDRP[10100]	/* MoveDirectRelPt */
MIRP[01100]	/* MoveIndirectRelPt */
IP[ ]	/* InterpolatePts */
IP[ ]	/* InterpolatePts */
IP[ ]	/* InterpolatePts */
SRP1[ ]	/* SetRefPoint1 */
SLOOP[ ]	/* SetLoopVariable */
IP[ ]	/* InterpolatePts */
IUP[1]	/* InterpolateUntPts */
SVTCA[0]	/* SetFreedomAndProjectionVectorToAxis */
SRP0[ ]	/* SetRefPoint0 */
MIRP[00100]	/* MoveIndirectRelPt */
MIRP[10100]	/* MoveIndirectRelPt */
MIRP[01100]	/* MoveIndirectRelPt */
MIRP[01100]	/* MoveIndirectRelPt */
SRP0[ ]	/* SetRefPoint0 */
MIRP[00110]	/* MoveIndirectRelPt */
MIRP[01110]	/* MoveIndirectRelPt */
SRP0[ ]	/* SetRefPoint0 */
MIRP[01110]	/* MoveIndirectRelPt */
SRP0[ ]	/* SetRefPoint0 */
MIRP[01110]	/* MoveIndirectRelPt */
IUP[0]	/* InterpolateUntPts */
SVTCA[1]	/* SetFreedomAndProjectionVectorToAxis */
MPPEM[ ]	/* MeasurePixelPerEm */
PUSHB[ ]	/* 1 value pushed */
12 
EQ[ ]	/* Equal */
MPPEM[ ]	/* MeasurePixelPerEm */
PUSHB[ ]	/* 1 value pushed */
13 
EQ[ ]	/* Equal */
OR[ ]	/* LogicalOr */
IF[ ]	/* If */
PUSHW[ ]	/* 6 values pushed */
39 -64 1 39 39 64 
SHPIX[ ]	/* ShiftZoneByPixel */
SRP1[ ]	/* SetRefPoint1 */
SHZ[1]	/* ShiftZoneByLastPoint */
SHPIX[ ]	/* ShiftZoneByPixel */
EIF[ ]	/* EndIf */
NPUSHB[ ]	/* 23 values pushed */
207 15 207 16 207 17 207 18 207 19 207 20 207 29 207 30 207 31 207 32 207 38 11 
SVTCA[0]	/* SetFreedomAndProjectionVectorToAxis */
DELTAP1[ ]	/* DeltaExceptionP1 */";
};
width = 1233;
}
);
note = e;
unicode = 101;
},
{
glyphname = f;
layers = (
{
layerId = m01;
shapes = (
{
closed = 1;
nodes = (
(930,1331,o),
(995,1331,qs),
(1225,1331,l),
(1268,1556,l),
(1028,1556,ls),
(789,1556,o),
(605,1409,o),
(563,1198,qs),
(547,1120,l),
(274,1120,l),
(231,895,l),
(504,895,l),
(330,0,l),
(623,0,l),
(797,895,l),
(1141,895,l),
(1184,1120,l),
(840,1120,l),
(856,1196,ls),
(872,1276,o)
);
}
);
userData = {
assembly = "NPUSHB[ ]	/* 61 values pushed */
5 15 6 10 6 4 15 10 6 1 15 10 6 17 18 19 3 16 0 15 10 10 6 52 0 11 16 7 3 100 1 16 100 14 71 9 1 101 5 17 16 14 11 2 1 0 5 4 3 10 15 10 9 8 20 7 10 12 15 6 20 
SRP0[ ]	/* SetRefPoint0 */
MDRP[10100]	/* MoveDirectRelPt */
MDRP[00100]	/* MoveDirectRelPt */
MIRP[00100]	/* MoveIndirectRelPt */
IP[ ]	/* InterpolatePts */
SRP2[ ]	/* SetRefPoint2 */
IP[ ]	/* InterpolatePts */
IP[ ]	/* InterpolatePts */
SRP1[ ]	/* SetRefPoint1 */
SRP2[ ]	/* SetRefPoint2 */
SLOOP[ ]	/* SetLoopVariable */
IP[ ]	/* InterpolatePts */
IUP[1]	/* InterpolateUntPts */
SVTCA[0]	/* SetFreedomAndProjectionVectorToAxis */
MDAP[1]	/* MoveDirectAbsPt */
MIRP[00100]	/* MoveIndirectRelPt */
SHP[0]	/* ShiftPointByLastPoint */
MIRP[11100]	/* MoveIndirectRelPt */
MIRP[01100]	/* MoveIndirectRelPt */
SRP0[ ]	/* SetRefPoint0 */
MIRP[01110]	/* MoveIndirectRelPt */
SHP[0]	/* ShiftPointByLastPoint */
SRP2[ ]	/* SetRefPoint2 */
IP[ ]	/* InterpolatePts */
IP[ ]	/* InterpolatePts */
IUP[0]	/* InterpolateUntPts */
MPPEM[ ]	/* MeasurePixelPerEm */
GTEQ[ ]	/* GreaterThanOrEqual */
IF[ ]	/* If */
SPVTL[1]	/* SetPVectorToLine */
SRP0[ ]	/* SetRefPoint0 */
SFVTCA[1]	/* SetFVectorToAxis */
MIRP[01101]	/* MoveIndirectRelPt */
SRP1[ ]	/* SetRefPoint1 */
SLOOP[ ]	/* SetLoopVariable */
IP[ ]	/* InterpolatePts */
SPVTL[1]	/* SetPVectorToLine */
SFVTCA[1]	/* SetFVectorToAxis */
MIRP[01101]	/* MoveIndirectRelPt */
SPVTL[1]	/* SetPVectorToLine */
SFVTCA[1]	/* SetFVectorToAxis */
MIRP[01101]	/* MoveIndirectRelPt */
SPVTL[1]	/* SetPVectorToLine */
SRP0[ ]	/* SetRefPoint0 */
SFVTCA[1]	/* SetFVectorToAxis */
MIRP[01101]	/* MoveIndirectRelPt */
EIF[ ]	/* EndIf */
CLEAR[ ]	/* ClearStack */
SVTCA[1]	/* SetFreedomAndProjectionVectorToAxis */
MPPEM[ ]	/* MeasurePixelPerEm */
PUSHB[ ]	/* 1 value pushed */
10 
EQ[ ]	/* Equal */
IF[ ]	/* If */
PUSHW[ ]	/* 6 values pushed */
20 64 1 20 20 -64 
SHPIX[ ]	/* ShiftZoneByPixel */
SRP1[ ]	/* SetRefPoint1 */
SHZ[1]	/* ShiftZoneByLastPoint */
SHPIX[ ]	/* ShiftZoneByPixel */
EIF[ ]	/* EndIf */
SVTCA[1]	/* SetFreedomAndProjectionVectorToAxis */
MPPEM[ ]	/* MeasurePixelPerEm */
PUSHB[ ]	/* 1 value pushed */
13 
EQ[ ]	/* Equal */
MPPEM[ ]	/* MeasurePixelPerEm */
PUSHB[ ]	/* 1 value pushed */
14 
EQ[ ]	/* Equal */
OR[ ]	/* LogicalOr */
MPPEM[ ]	/* MeasurePixelPerEm */
PUSHB[ ]	/* 1 value pushed */
15 
EQ[ ]	/* Equal */
OR[ ]	/* LogicalOr */
IF[ ]	/* If */
PUSHW[ ]	/* 6 values pushed */
20 -64 1 20 20 64 
SHPIX[ ]	/* ShiftZoneByPixel */
SRP1[ ]	/* SetRefPoint1 */
SHZ[1]	/* ShiftZoneByLastPoint */
SHPIX[ ]	/* ShiftZoneByPixel */
EIF[ ]	/* EndIf */";
};
width = 1233;
}
);
note = f;
unicode = 102;
},
{
glyphname = g;
layers = (
{
layerId = m01;
shapes = (
{
closed = 1;
nodes = (
(367,357,o),
(367,459,qs),
(367,644,o),
(535,909,o),
(649,909,qs),
(721,909,o),
(803,798,o),
(803,698,qs),
(803,511,o),
(635,246,o),
(520,246,qs),
(447,246,o)
);
},
{
closed = 1;
nodes = (
(897,1120,l),
(862,938,l),
(841,1041,o),
(706,1151,o),
(602,1151,qs),
(496,1151,o),
(295,1035,o),
(225,932,qs),
(152,824,o),
(68,542,o),
(68,403,qs),
(68,225,o),
(253,16,o),
(410,16,qs),
(506,16,o),
(661,101,o),
(715,184,q),
(688,51,ls),
(665,-73,o),
(524,-190,o),
(399,-190,qs),
(312,-190,o),
(147,-145,o),
(72,-100,q),
(18,-365,l),
(105,-394,o),
(287,-424,o),
(385,-424,qs),
(658,-424,o),
(934,-193,o),
(987,84,qs),
(1190,1120,l)
);
}
);
userData = {
assembly = "NPUSHB[ ]	/* 92 values pushed */
5 4 2 6 3 15 43 12 43 1 1 0 2 15 12 43 28 27 2 29 26 15 12 43 23 24 2 22 25 15 12 12 43 42 15 12 43 39 40 2 38 41 15 43 12 43 52 26 29 0 41 42 6 25 12 29 0 19 96 18 0 60 29 22 60 18 75 15 6 60 38 91 42 101 15 102 29 44 42 3 25 12 26 41 4 43 19 9 15 43 32 44 
SRP0[ ]	/* SetRefPoint0 */
MDRP[10100]	/* MoveDirectRelPt */
MDRP[00100]	/* MoveDirectRelPt */
MIRP[01100]	/* MoveIndirectRelPt */
IP[ ]	/* InterpolatePts */
SRP1[ ]	/* SetRefPoint1 */
SLOOP[ ]	/* SetLoopVariable */
IP[ ]	/* InterpolatePts */
IP[ ]	/* InterpolatePts */
IP[ ]	/* InterpolatePts */
IUP[1]	/* InterpolateUntPts */
SVTCA[0]	/* SetFreedomAndProjectionVectorToAxis */
SRP0[ ]	/* SetRefPoint0 */
MDRP[00100]	/* MoveDirectRelPt */
MIRP[00100]	/* MoveIndirectRelPt */
MIRP[00100]	/* MoveIndirectRelPt */
MIRP[10100]	/* MoveIndirectRelPt */
MIRP[01100]	/* MoveIndirectRelPt */
SRP0[ ]	/* SetRefPoint0 */
MIRP[00110]	/* MoveIndirectRelPt */
MIRP[01110]	/* MoveIndirectRelPt */
SRP0[ ]	/* SetRefPoint0 */
MIRP[01110]	/* MoveIndirectRelPt */
SRP0[ ]	/* SetRefPoint0 */
MIRP[01110]	/* MoveIndirectRelPt */
SRP1[ ]	/* SetRefPoint1 */
SRP2[ ]	/* SetRefPoint2 */
IP[ ]	/* InterpolatePts */
IP[ ]	/* InterpolatePts */
SRP1[ ]	/* SetRefPoint1 */
SRP2[ ]	/* SetRefPoint2 */
IP[ ]	/* InterpolatePts */
SRP1[ ]	/* SetRefPoint1 */
SRP2[ ]	/* SetRefPoint2 */
IP[ ]	/* InterpolatePts */
IUP[0]	/* InterpolateUntPts */
MPPEM[ ]	/* MeasurePixelPerEm */
GTEQ[ ]	/* GreaterThanOrEqual */
IF[ ]	/* If */
SPVTL[1]	/* SetPVectorToLine */
SRP0[ ]	/* SetRefPoint0 */
SFVTCA[1]	/* SetFVectorToAxis */
MIRP[01101]	/* MoveIndirectRelPt */
SRP1[ ]	/* SetRefPoint1 */
SLOOP[ ]	/* SetLoopVariable */
IP[ ]	/* InterpolatePts */
SPVTL[1]	/* SetPVectorToLine */
SFVTCA[1]	/* SetFVectorToAxis */
MIRP[01101]	/* MoveIndirectRelPt */
SPVTL[1]	/* SetPVectorToLine */
SRP0[ ]	/* SetRefPoint0 */
SFVTCA[1]	/* SetFVectorToAxis */
MIRP[01101]	/* MoveIndirectRelPt */
SRP1[ ]	/* SetRefPoint1 */
SLOOP[ ]	/* SetLoopVariable */
IP[ ]	/* InterpolatePts */
SPVTL[1]	/* SetPVectorToLine */
SFVTCA[1]	/* SetFVectorToAxis */
MIRP[01101]	/* MoveIndirectRelPt */
SRP1[ ]	/* SetRefPoint1 */
SLOOP[ ]	/* SetLoopVariable */
IP[ ]	/* InterpolatePts */
SPVTL[1]	/* SetPVectorToLine */
SFVTCA[1]	/* SetFVectorToAxis */
MIRP[01101]	/* MoveIndirectRelPt */
SRP1[ ]	/* SetRefPoint1 */
SLOOP[ ]	/* SetLoopVariable */
IP[ ]	/* InterpolatePts */
SPVTL[1]	/* SetPVectorToLine */
SRP0[ ]	/* SetRefPoint0 */
SFVTCA[1]	/* SetFVectorToAxis */
MIRP[01101]	/* MoveIndirectRelPt */
SRP1[ ]	/* SetRefPoint1 */
SLOOP[ ]	/* SetLoopVariable */
IP[ ]	/* InterpolatePts */
EIF[ ]	/* EndIf */
CLEAR[ ]	/* ClearStack */
SVTCA[1]	/* SetFreedomAndProjectionVectorToAxis */
MPPEM[ ]	/* MeasurePixelPerEm */
PUSHB[ ]	/* 1 value pushed */
12 
EQ[ ]	/* Equal */
MPPEM[ ]	/* MeasurePixelPerEm */
PUSHB[ ]	/* 1 value pushed */
13 
EQ[ ]	/* Equal */
OR[ ]	/* LogicalOr */
MPPEM[ ]	/* MeasurePixelPerEm */
PUSHB[ ]	/* 1 value pushed */
14 
EQ[ ]	/* Equal */
OR[ ]	/* LogicalOr */
IF[ ]	/* If */
PUSHW[ ]	/* 6 values pushed */
44 -64 1 44 44 64 
SHPIX[ ]	/* ShiftZoneByPixel */
SRP1[ ]	/* SetRefPoint1 */
SHZ[1]	/* ShiftZoneByLastPoint */
SHPIX[ ]	/* ShiftZoneByPixel */
EIF[ ]	/* EndIf */
PUSHB[ ]	/* 3 values pushed */
25 2 1 
DELTAP1[ ]	/* DeltaExceptionP1 */";
};
width = 1233;
}
);
note = g;
unicode = 103;
},
{
glyphname = h;
layers = (
{
layerId = m01;
shapes = (
{
closed = 1;
nodes = (
(1120,851,o),
(1120,881,qs),
(1120,1008,o),
(982,1147,o),
(854,1147,qs),
(753,1147,o),
(585,1044,o),
(537,952,q),
(653,1556,l),
(362,1556,l),
(59,0,l),
(352,0,l),
(473,629,ls),
(499,764,o),
(615,907,o),
(698,907,qs),
(753,907,o),
(811,846,o),
(811,788,qs),
(811,761,o),
(806,708,o),
(801,682,qs),
(668,0,l),
(961,0,l),
(1102,728,ls),
(1111,775,o)
);
}
);
userData = {
assembly = "NPUSHB[ ]	/* 76 values pushed */
8 7 6 5 4 5 3 15 0 1 0 2 15 1 1 0 13 15 15 14 10 11 2 9 12 15 14 15 14 19 18 2 17 15 15 14 16 15 15 15 14 52 17 20 12 3 0 1 9 60 20 91 15 71 13 1 13 15 14 0 23 16 12 6 3 2 5 17 15 1 24 23 15 22 14 26 
SRP0[ ]	/* SetRefPoint0 */
MDRP[10100]	/* MoveDirectRelPt */
MIRP[00100]	/* MoveIndirectRelPt */
MDRP[10100]	/* MoveDirectRelPt */
MIRP[01100]	/* MoveIndirectRelPt */
SRP1[ ]	/* SetRefPoint1 */
IP[ ]	/* InterpolatePts */
SLOOP[ ]	/* SetLoopVariable */
IP[ ]	/* InterpolatePts */
SRP1[ ]	/* SetRefPoint1 */
IP[ ]	/* InterpolatePts */
SRP1[ ]	/* SetRefPoint1 */
SRP2[ ]	/* SetRefPoint2 */
IP[ ]	/* InterpolatePts */
IUP[1]	/* InterpolateUntPts */
SVTCA[0]	/* SetFreedomAndProjectionVectorToAxis */
MDAP[1]	/* MoveDirectAbsPt */
ALIGNRP[ ]	/* AlignRelativePt */
MIRP[01100]	/* MoveIndirectRelPt */
MIRP[10100]	/* MoveIndirectRelPt */
MIRP[01100]	/* MoveIndirectRelPt */
SRP1[ ]	/* SetRefPoint1 */
IP[ ]	/* InterpolatePts */
IP[ ]	/* InterpolatePts */
IP[ ]	/* InterpolatePts */
SRP1[ ]	/* SetRefPoint1 */
IP[ ]	/* InterpolatePts */
IUP[0]	/* InterpolateUntPts */
MPPEM[ ]	/* MeasurePixelPerEm */
GTEQ[ ]	/* GreaterThanOrEqual */
IF[ ]	/* If */
SPVTL[1]	/* SetPVectorToLine */
SRP0[ ]	/* SetRefPoint0 */
SFVTCA[1]	/* SetFVectorToAxis */
MIRP[01101]	/* MoveIndirectRelPt */
SPVTL[1]	/* SetPVectorToLine */
SFVTCA[1]	/* SetFVectorToAxis */
MIRP[01101]	/* MoveIndirectRelPt */
SLOOP[ ]	/* SetLoopVariable */
IP[ ]	/* InterpolatePts */
SPVTL[1]	/* SetPVectorToLine */
SRP0[ ]	/* SetRefPoint0 */
SFVTCA[1]	/* SetFVectorToAxis */
MIRP[01101]	/* MoveIndirectRelPt */
SRP1[ ]	/* SetRefPoint1 */
SLOOP[ ]	/* SetLoopVariable */
IP[ ]	/* InterpolatePts */
SPVTL[1]	/* SetPVectorToLine */
SFVTCA[1]	/* SetFVectorToAxis */
MIRP[01101]	/* MoveIndirectRelPt */
SPVTL[1]	/* SetPVectorToLine */
SRP0[ ]	/* SetRefPoint0 */
SFVTCA[1]	/* SetFVectorToAxis */
MIRP[01101]	/* MoveIndirectRelPt */
SPVTL[1]	/* SetPVectorToLine */
SRP0[ ]	/* SetRefPoint0 */
SFVTCA[1]	/* SetFVectorToAxis */
MIRP[01101]	/* MoveIndirectRelPt */
SLOOP[ ]	/* SetLoopVariable */
IP[ ]	/* InterpolatePts */
EIF[ ]	/* EndIf */
CLEAR[ ]	/* ClearStack */
SVTCA[1]	/* SetFreedomAndProjectionVectorToAxis */
MPPEM[ ]	/* MeasurePixelPerEm */
PUSHB[ ]	/* 1 value pushed */
12 
EQ[ ]	/* Equal */
MPPEM[ ]	/* MeasurePixelPerEm */
PUSHB[ ]	/* 1 value pushed */
13 
EQ[ ]	/* Equal */
OR[ ]	/* LogicalOr */
MPPEM[ ]	/* MeasurePixelPerEm */
PUSHB[ ]	/* 1 value pushed */
14 
EQ[ ]	/* Equal */
OR[ ]	/* LogicalOr */
MPPEM[ ]	/* MeasurePixelPerEm */
PUSHB[ ]	/* 1 value pushed */
15 
EQ[ ]	/* Equal */
OR[ ]	/* LogicalOr */
MPPEM[ ]	/* MeasurePixelPerEm */
PUSHB[ ]	/* 1 value pushed */
16 
EQ[ ]	/* Equal */
OR[ ]	/* LogicalOr */
MPPEM[ ]	/* MeasurePixelPerEm */
PUSHB[ ]	/* 1 value pushed */
17 
EQ[ ]	/* Equal */
OR[ ]	/* LogicalOr */
IF[ ]	/* If */
PUSHW[ ]	/* 6 values pushed */
26 -64 1 26 26 64 
SHPIX[ ]	/* ShiftZoneByPixel */
SRP1[ ]	/* SetRefPoint1 */
SHZ[1]	/* ShiftZoneByLastPoint */
SHPIX[ ]	/* ShiftZoneByPixel */
EIF[ ]	/* EndIf */
NPUSHB[ ]	/* 27 values pushed */
31 2 31 3 31 4 31 5 31 6 31 7 31 8 25 9 25 10 25 11 25 12 25 14 55 13 13 
DELTAP1[ ]	/* DeltaExceptionP1 */";
};
width = 1233;
}
);
note = h;
unicode = 104;
},
{
glyphname = i;
layers = (
{
layerId = m01;
shapes = (
{
closed = 1;
nodes = (
(553,895,l),
(422,225,l),
(57,225,l),
(14,0,l),
(1036,0,l),
(1079,225,l),
(715,225,l),
(889,1120,l),
(309,1120,l),
(266,895,l)
);
},
{
closed = 1;
nodes = (
(928,1323,l),
(995,1665,l),
(702,1665,l),
(635,1323,l)
);
}
);
userData = {
assembly = "NPUSHB[ ]	/* 53 values pushed */
10 15 11 12 11 13 15 12 12 11 8 15 1 2 1 7 15 2 2 1 52 10 105 12 104 8 100 0 101 6 2 100 4 4 11 3 13 10 9 8 7 6 5 0 8 14 3 2 1 12 25 11 14 
SRP0[ ]	/* SetRefPoint0 */
MDRP[10100]	/* MoveDirectRelPt */
MIRP[00100]	/* MoveIndirectRelPt */
MDRP[10100]	/* MoveDirectRelPt */
MDRP[10100]	/* MoveDirectRelPt */
MDRP[00100]	/* MoveDirectRelPt */
SRP2[ ]	/* SetRefPoint2 */
SLOOP[ ]	/* SetLoopVariable */
IP[ ]	/* InterpolatePts */
SRP1[ ]	/* SetRefPoint1 */
SRP2[ ]	/* SetRefPoint2 */
IP[ ]	/* InterpolatePts */
IUP[1]	/* InterpolateUntPts */
SVTCA[0]	/* SetFreedomAndProjectionVectorToAxis */
MDAP[1]	/* MoveDirectAbsPt */
MIRP[01100]	/* MoveIndirectRelPt */
SHP[0]	/* ShiftPointByLastPoint */
MIRP[10100]	/* MoveIndirectRelPt */
MIRP[01100]	/* MoveIndirectRelPt */
MIRP[11100]	/* MoveIndirectRelPt */
MIRP[01100]	/* MoveIndirectRelPt */
IUP[0]	/* InterpolateUntPts */
MPPEM[ ]	/* MeasurePixelPerEm */
GTEQ[ ]	/* GreaterThanOrEqual */
IF[ ]	/* If */
SPVTL[1]	/* SetPVectorToLine */
SRP0[ ]	/* SetRefPoint0 */
SFVTCA[1]	/* SetFVectorToAxis */
MIRP[01101]	/* MoveIndirectRelPt */
SPVTL[1]	/* SetPVectorToLine */
SRP0[ ]	/* SetRefPoint0 */
SFVTCA[1]	/* SetFVectorToAxis */
MIRP[01101]	/* MoveIndirectRelPt */
SPVTL[1]	/* SetPVectorToLine */
SRP0[ ]	/* SetRefPoint0 */
SFVTCA[1]	/* SetFVectorToAxis */
MIRP[01101]	/* MoveIndirectRelPt */
SPVTL[1]	/* SetPVectorToLine */
SRP0[ ]	/* SetRefPoint0 */
SFVTCA[1]	/* SetFVectorToAxis */
MIRP[01101]	/* MoveIndirectRelPt */
EIF[ ]	/* EndIf */
CLEAR[ ]	/* ClearStack */
SVTCA[1]	/* SetFreedomAndProjectionVectorToAxis */
MPPEM[ ]	/* MeasurePixelPerEm */
PUSHB[ ]	/* 1 value pushed */
12 
EQ[ ]	/* Equal */
MPPEM[ ]	/* MeasurePixelPerEm */
PUSHB[ ]	/* 1 value pushed */
13 
EQ[ ]	/* Equal */
OR[ ]	/* LogicalOr */
MPPEM[ ]	/* MeasurePixelPerEm */
PUSHB[ ]	/* 1 value pushed */
15 
EQ[ ]	/* Equal */
OR[ ]	/* LogicalOr */
MPPEM[ ]	/* MeasurePixelPerEm */
PUSHB[ ]	/* 1 value pushed */
17 
EQ[ ]	/* Equal */
OR[ ]	/* LogicalOr */
MPPEM[ ]	/* MeasurePixelPerEm */
PUSHB[ ]	/* 1 value pushed */
18 
EQ[ ]	/* Equal */
OR[ ]	/* LogicalOr */
MPPEM[ ]	/* MeasurePixelPerEm */
PUSHB[ ]	/* 1 value pushed */
19 
EQ[ ]	/* Equal */
OR[ ]	/* LogicalOr */
IF[ ]	/* If */
PUSHW[ ]	/* 6 values pushed */
14 -64 1 14 14 64 
SHPIX[ ]	/* ShiftZoneByPixel */
SRP1[ ]	/* SetRefPoint1 */
SHZ[1]	/* ShiftZoneByLastPoint */
SHPIX[ ]	/* ShiftZoneByPixel */
EIF[ ]	/* EndIf */";
};
width = 1233;
}
);
note = i;
unicode = 105;
},
{
glyphname = j;
layers = (
{
layerId = m01;
shapes = (
{
closed = 1;
nodes = (
(352,1120,l),
(309,895,l),
(606,895,l),
(440,43,ls),
(415,-92,o),
(313,-199,o),
(213,-199,qs),
(-18,-199,l),
(-63,-424,l),
(244,-424,ls),
(371,-424,o),
(533,-372,o),
(592,-313,qs),
(639,-267,o),
(700,-124,o),
(733,43,qs),
(942,1120,l)
);
},
{
closed = 1;
nodes = (
(756,1665,l),
(690,1323,l),
(983,1323,l),
(1049,1665,l)
);
}
);
userData = {
assembly = "NPUSHB[ ]	/* 63 values pushed */
19 15 20 17 20 18 15 17 17 20 13 15 16 0 16 9 10 11 3 12 15 0 0 16 52 12 0 13 8 19 105 17 8 100 6 13 100 17 104 15 101 6 102 21 19 18 15 14 13 12 9 0 6 9 16 8 21 7 17 25 16 20 21 
SRP0[ ]	/* SetRefPoint0 */
MDRP[10100]	/* MoveDirectRelPt */
MDRP[00100]	/* MoveDirectRelPt */
MIRP[00100]	/* MoveIndirectRelPt */
MDAP[0]	/* MoveDirectAbsPt */
SRP2[ ]	/* SetRefPoint2 */
IP[ ]	/* InterpolatePts */
SRP1[ ]	/* SetRefPoint1 */
SLOOP[ ]	/* SetLoopVariable */
IP[ ]	/* InterpolatePts */
IUP[1]	/* InterpolateUntPts */
SVTCA[0]	/* SetFreedomAndProjectionVectorToAxis */
SRP0[ ]	/* SetRefPoint0 */
MIRP[00100]	/* MoveIndirectRelPt */
MIRP[10100]	/* MoveIndirectRelPt */
MIRP[01100]	/* MoveIndirectRelPt */
MIRP[01100]	/* MoveIndirectRelPt */
SRP0[ ]	/* SetRefPoint0 */
MIRP[01110]	/* MoveIndirectRelPt */
SRP0[ ]	/* SetRefPoint0 */
MIRP[01110]	/* MoveIndirectRelPt */
SRP1[ ]	/* SetRefPoint1 */
SRP2[ ]	/* SetRefPoint2 */
IP[ ]	/* InterpolatePts */
IP[ ]	/* InterpolatePts */
IUP[0]	/* InterpolateUntPts */
MPPEM[ ]	/* MeasurePixelPerEm */
GTEQ[ ]	/* GreaterThanOrEqual */
IF[ ]	/* If */
SPVTL[1]	/* SetPVectorToLine */
SRP0[ ]	/* SetRefPoint0 */
SFVTCA[1]	/* SetFVectorToAxis */
MIRP[01101]	/* MoveIndirectRelPt */
SLOOP[ ]	/* SetLoopVariable */
IP[ ]	/* InterpolatePts */
SPVTL[1]	/* SetPVectorToLine */
SRP0[ ]	/* SetRefPoint0 */
SFVTCA[1]	/* SetFVectorToAxis */
MIRP[01101]	/* MoveIndirectRelPt */
SPVTL[1]	/* SetPVectorToLine */
SRP0[ ]	/* SetRefPoint0 */
SFVTCA[1]	/* SetFVectorToAxis */
MIRP[01101]	/* MoveIndirectRelPt */
SPVTL[1]	/* SetPVectorToLine */
SRP0[ ]	/* SetRefPoint0 */
SFVTCA[1]	/* SetFVectorToAxis */
MIRP[01101]	/* MoveIndirectRelPt */
EIF[ ]	/* EndIf */
CLEAR[ ]	/* ClearStack */
SVTCA[1]	/* SetFreedomAndProjectionVectorToAxis */
MPPEM[ ]	/* MeasurePixelPerEm */
PUSHB[ ]	/* 1 value pushed */
9 
EQ[ ]	/* Equal */
IF[ ]	/* If */
PUSHW[ ]	/* 6 values pushed */
21 64 1 21 21 -64 
SHPIX[ ]	/* ShiftZoneByPixel */
SRP1[ ]	/* SetRefPoint1 */
SHZ[1]	/* ShiftZoneByLastPoint */
SHPIX[ ]	/* ShiftZoneByPixel */
EIF[ ]	/* EndIf */
SVTCA[1]	/* SetFreedomAndProjectionVectorToAxis */
MPPEM[ ]	/* MeasurePixelPerEm */
PUSHB[ ]	/* 1 value pushed */
12 
EQ[ ]	/* Equal */
MPPEM[ ]	/* MeasurePixelPerEm */
PUSHB[ ]	/* 1 value pushed */
13 
EQ[ ]	/* Equal */
OR[ ]	/* LogicalOr */
MPPEM[ ]	/* MeasurePixelPerEm */
PUSHB[ ]	/* 1 value pushed */
14 
EQ[ ]	/* Equal */
OR[ ]	/* LogicalOr */
MPPEM[ ]	/* MeasurePixelPerEm */
PUSHB[ ]	/* 1 value pushed */
17 
EQ[ ]	/* Equal */
OR[ ]	/* LogicalOr */
IF[ ]	/* If */
PUSHW[ ]	/* 6 values pushed */
21 -64 1 21 21 64 
SHPIX[ ]	/* ShiftZoneByPixel */
SRP1[ ]	/* SetRefPoint1 */
SHZ[1]	/* ShiftZoneByLastPoint */
SHPIX[ ]	/* ShiftZoneByPixel */
EIF[ ]	/* EndIf */
PUSHB[ ]	/* 5 values pushed */
16 7 16 8 2 
DELTAP1[ ]	/* DeltaExceptionP1 */";
};
width = 1233;
}
);
note = j;
unicode = 106;
},
{
glyphname = k;
layers = (
{
layerId = m01;
shapes = (
{
closed = 1;
nodes = (
(375,0,l),
(457,428,l),
(573,524,l),
(795,0,l),
(1106,0,l),
(793,702,l),
(1298,1120,l),
(928,1120,l),
(524,774,l),
(676,1556,l),
(383,1556,l),
(82,0,l)
);
}
);
userData = {
assembly = "NPUSHB[ ]	/* 68 values pushed */
8 9 8 5 6 5 7 6 6 5 3 4 5 4 2 1 2 5 5 4 10 15 0 11 9 15 8 9 11 0 11 2 15 3 2 0 11 1 15 0 0 11 52 8 5 2 3 3 101 0 71 10 6 10 11 8 7 6 5 2 1 6 4 0 22 4 11 12 
SRP0[ ]	/* SetRefPoint0 */
MDRP[10100]	/* MoveDirectRelPt */
MDRP[00100]	/* MoveDirectRelPt */
MIRP[00100]	/* MoveIndirectRelPt */
SRP1[ ]	/* SetRefPoint1 */
SLOOP[ ]	/* SetLoopVariable */
IP[ ]	/* InterpolatePts */
SRP1[ ]	/* SetRefPoint1 */
IP[ ]	/* InterpolatePts */
IUP[1]	/* InterpolateUntPts */
SVTCA[0]	/* SetFreedomAndProjectionVectorToAxis */
MDAP[1]	/* MoveDirectAbsPt */
ALIGNRP[ ]	/* AlignRelativePt */
MIRP[01100]	/* MoveIndirectRelPt */
MIRP[00100]	/* MoveIndirectRelPt */
SLOOP[ ]	/* SetLoopVariable */
IP[ ]	/* InterpolatePts */
IUP[0]	/* InterpolateUntPts */
MPPEM[ ]	/* MeasurePixelPerEm */
GTEQ[ ]	/* GreaterThanOrEqual */
IF[ ]	/* If */
SPVTL[1]	/* SetPVectorToLine */
SRP0[ ]	/* SetRefPoint0 */
SFVTCA[1]	/* SetFVectorToAxis */
MIRP[01101]	/* MoveIndirectRelPt */
SPVTL[1]	/* SetPVectorToLine */
SFVTL[0]	/* SetFVectorToLine */
MIRP[01101]	/* MoveIndirectRelPt */
SPVTL[1]	/* SetPVectorToLine */
SRP0[ ]	/* SetRefPoint0 */
SFVTL[0]	/* SetFVectorToLine */
MIRP[01101]	/* MoveIndirectRelPt */
SPVTL[1]	/* SetPVectorToLine */
SFVTCA[1]	/* SetFVectorToAxis */
MIRP[01101]	/* MoveIndirectRelPt */
SPVTL[1]	/* SetPVectorToLine */
SRP0[ ]	/* SetRefPoint0 */
SFVTL[0]	/* SetFVectorToLine */
MDRP[01001]	/* MoveDirectRelPt */
SPVTL[1]	/* SetPVectorToLine */
SRP0[ ]	/* SetRefPoint0 */
SFVTCA[1]	/* SetFVectorToAxis */
MDRP[01001]	/* MoveDirectRelPt */
SPVTL[1]	/* SetPVectorToLine */
SRP0[ ]	/* SetRefPoint0 */
SFVTCA[1]	/* SetFVectorToAxis */
MDRP[01001]	/* MoveDirectRelPt */
SPVTL[1]	/* SetPVectorToLine */
SRP0[ ]	/* SetRefPoint0 */
SFVTL[0]	/* SetFVectorToLine */
MDRP[01001]	/* MoveDirectRelPt */
EIF[ ]	/* EndIf */
CLEAR[ ]	/* ClearStack */
SVTCA[1]	/* SetFreedomAndProjectionVectorToAxis */
MPPEM[ ]	/* MeasurePixelPerEm */
PUSHB[ ]	/* 1 value pushed */
12 
EQ[ ]	/* Equal */
IF[ ]	/* If */
PUSHW[ ]	/* 6 values pushed */
12 -64 1 12 12 64 
SHPIX[ ]	/* ShiftZoneByPixel */
SRP1[ ]	/* SetRefPoint1 */
SHZ[1]	/* ShiftZoneByLastPoint */
SHPIX[ ]	/* ShiftZoneByPixel */
EIF[ ]	/* EndIf */";
};
width = 1233;
}
);
note = k;
unicode = 107;
},
{
glyphname = l;
layers = (
{
layerId = m01;
shapes = (
{
closed = 1;
nodes = (
(276,1556,l),
(233,1331,l),
(539,1331,l),
(336,379,ls),
(327,335,o),
(317,265,o),
(317,242,qs),
(317,112,o),
(487,0,o),
(692,0,qs),
(989,0,l),
(1034,225,l),
(756,225,ls),
(678,225,o),
(616,262,o),
(616,307,qs),
(616,312,o),
(621,345,o),
(625,365,qs),
(874,1556,l)
);
}
);
userData = {
assembly = "NPUSHB[ ]	/* 47 values pushed */
16 15 19 0 19 9 10 11 12 13 14 6 8 15 15 0 0 19 52 0 15 6 16 100 18 71 6 100 8 8 19 7 18 17 16 15 12 5 20 6 0 9 3 7 3 19 20 
SRP0[ ]	/* SetRefPoint0 */
MDRP[10100]	/* MoveDirectRelPt */
MDRP[00100]	/* MoveDirectRelPt */
MDRP[00000]	/* MoveDirectRelPt */
SRP2[ ]	/* SetRefPoint2 */
IP[ ]	/* InterpolatePts */
IP[ ]	/* InterpolatePts */
IP[ ]	/* InterpolatePts */
SRP1[ ]	/* SetRefPoint1 */
SLOOP[ ]	/* SetLoopVariable */
IP[ ]	/* InterpolatePts */
SRP1[ ]	/* SetRefPoint1 */
SRP2[ ]	/* SetRefPoint2 */
IP[ ]	/* InterpolatePts */
IUP[1]	/* InterpolateUntPts */
SVTCA[0]	/* SetFreedomAndProjectionVectorToAxis */
MDAP[1]	/* MoveDirectAbsPt */
MIRP[01100]	/* MoveIndirectRelPt */
MIRP[11100]	/* MoveIndirectRelPt */
MIRP[01100]	/* MoveIndirectRelPt */
SRP1[ ]	/* SetRefPoint1 */
IP[ ]	/* InterpolatePts */
IP[ ]	/* InterpolatePts */
IUP[0]	/* InterpolateUntPts */
MPPEM[ ]	/* MeasurePixelPerEm */
GTEQ[ ]	/* GreaterThanOrEqual */
IF[ ]	/* If */
SPVTL[1]	/* SetPVectorToLine */
SRP0[ ]	/* SetRefPoint0 */
SFVTCA[1]	/* SetFVectorToAxis */
MIRP[01101]	/* MoveIndirectRelPt */
SRP1[ ]	/* SetRefPoint1 */
SLOOP[ ]	/* SetLoopVariable */
IP[ ]	/* InterpolatePts */
SPVTL[1]	/* SetPVectorToLine */
SRP0[ ]	/* SetRefPoint0 */
SFVTCA[1]	/* SetFVectorToAxis */
MIRP[01101]	/* MoveIndirectRelPt */
EIF[ ]	/* EndIf */
CLEAR[ ]	/* ClearStack */
SVTCA[1]	/* SetFreedomAndProjectionVectorToAxis */
MPPEM[ ]	/* MeasurePixelPerEm */
PUSHB[ ]	/* 1 value pushed */
12 
EQ[ ]	/* Equal */
MPPEM[ ]	/* MeasurePixelPerEm */
PUSHB[ ]	/* 1 value pushed */
14 
EQ[ ]	/* Equal */
OR[ ]	/* LogicalOr */
MPPEM[ ]	/* MeasurePixelPerEm */
PUSHB[ ]	/* 1 value pushed */
15 
EQ[ ]	/* Equal */
OR[ ]	/* LogicalOr */
MPPEM[ ]	/* MeasurePixelPerEm */
PUSHB[ ]	/* 1 value pushed */
17 
EQ[ ]	/* Equal */
OR[ ]	/* LogicalOr */
IF[ ]	/* If */
PUSHW[ ]	/* 6 values pushed */
20 -64 1 20 20 64 
SHPIX[ ]	/* ShiftZoneByPixel */
SRP1[ ]	/* SetRefPoint1 */
SHZ[1]	/* ShiftZoneByLastPoint */
SHPIX[ ]	/* ShiftZoneByPixel */
EIF[ ]	/* EndIf */
NPUSHB[ ]	/* 9 values pushed */
137 16 137 17 137 18 137 19 4 
DELTAP1[ ]	/* DeltaExceptionP1 */";
};
width = 1233;
}
);
note = l;
unicode = 108;
},
{
glyphname = m;
layers = (
{
layerId = m01;
shapes = (
{
closed = 1;
nodes = (
(675,1147,o),
(606,1147,qs),
(537,1147,o),
(416,1072,o),
(375,1004,q),
(397,1120,l),
(184,1120,l),
(-33,0,l),
(207,0,l),
(346,719,ls),
(369,841,o),
(424,928,o),
(471,928,qs),
(505,928,o),
(541,886,o),
(541,846,qs),
(541,827,o),
(532,761,o),
(524,719,qs),
(383,0,l),
(623,0,l),
(762,719,ls),
(784,838,o),
(841,928,o),
(889,928,qs),
(923,928,o),
(958,886,o),
(958,846,qs),
(958,831,o),
(950,770,o),
(940,719,qs),
(801,0,l),
(1040,0,l),
(1180,719,ls),
(1195,794,o),
(1206,891,o),
(1206,938,qs),
(1206,1035,o),
(1098,1147,o),
(1006,1147,qs),
(930,1147,o),
(802,1072,o),
(770,1008,q),
(762,1072,o)
);
}
);
userData = {
assembly = "NPUSHB[ ]	/* 107 values pushed */
32 31 30 29 28 27 26 25 8 33 24 28 21 22 21 23 28 22 22 21 20 19 18 17 16 15 14 13 8 21 12 28 9 10 9 11 28 10 10 9 36 28 33 34 33 35 28 34 34 33 52 0 38 36 33 24 21 12 9 5 10 30 18 60 41 3 91 36 101 34 22 10 36 44 23 34 24 37 22 9 6 12 11 10 0 38 33 34 27 37 21 22 15 10 0 35 6 24 10 37 12 34 0 24 10 22 44 
SRP0[ ]	/* SetRefPoint0 */
MDRP[10100]	/* MoveDirectRelPt */
MDRP[00100]	/* MoveDirectRelPt */
MIRP[01100]	/* MoveIndirectRelPt */
MDRP[10100]	/* MoveDirectRelPt */
MIRP[00100]	/* MoveIndirectRelPt */
SRP0[ ]	/* SetRefPoint0 */
MIRP[01110]	/* MoveIndirectRelPt */
MDAP[0]	/* MoveDirectAbsPt */
SRP1[ ]	/* SetRefPoint1 */
SRP2[ ]	/* SetRefPoint2 */
IP[ ]	/* InterpolatePts */
SRP2[ ]	/* SetRefPoint2 */
IP[ ]	/* InterpolatePts */
SRP1[ ]	/* SetRefPoint1 */
IP[ ]	/* InterpolatePts */
SRP2[ ]	/* SetRefPoint2 */
IP[ ]	/* InterpolatePts */
IP[ ]	/* InterpolatePts */
SRP1[ ]	/* SetRefPoint1 */
SRP2[ ]	/* SetRefPoint2 */
IP[ ]	/* InterpolatePts */
IP[ ]	/* InterpolatePts */
SRP1[ ]	/* SetRefPoint1 */
IP[ ]	/* InterpolatePts */
SRP1[ ]	/* SetRefPoint1 */
SRP2[ ]	/* SetRefPoint2 */
IP[ ]	/* InterpolatePts */
SRP1[ ]	/* SetRefPoint1 */
IP[ ]	/* InterpolatePts */
SRP2[ ]	/* SetRefPoint2 */
IP[ ]	/* InterpolatePts */
IUP[1]	/* InterpolateUntPts */
SVTCA[0]	/* SetFreedomAndProjectionVectorToAxis */
MDAP[1]	/* MoveDirectAbsPt */
ALIGNRP[ ]	/* AlignRelativePt */
ALIGNRP[ ]	/* AlignRelativePt */
MIRP[00110]	/* MoveIndirectRelPt */
MIRP[10110]	/* MoveIndirectRelPt */
ALIGNRP[ ]	/* AlignRelativePt */
MIRP[01110]	/* MoveIndirectRelPt */
SHP[0]	/* ShiftPointByLastPoint */
SRP1[ ]	/* SetRefPoint1 */
SLOOP[ ]	/* SetLoopVariable */
IP[ ]	/* InterpolatePts */
SRP1[ ]	/* SetRefPoint1 */
IP[ ]	/* InterpolatePts */
IP[ ]	/* InterpolatePts */
IUP[0]	/* InterpolateUntPts */
MPPEM[ ]	/* MeasurePixelPerEm */
GTEQ[ ]	/* GreaterThanOrEqual */
IF[ ]	/* If */
SPVTL[1]	/* SetPVectorToLine */
SRP0[ ]	/* SetRefPoint0 */
SFVTCA[1]	/* SetFVectorToAxis */
MIRP[01101]	/* MoveIndirectRelPt */
SPVTL[1]	/* SetPVectorToLine */
SRP0[ ]	/* SetRefPoint0 */
SFVTCA[1]	/* SetFVectorToAxis */
MIRP[01101]	/* MoveIndirectRelPt */
SPVTL[1]	/* SetPVectorToLine */
SRP0[ ]	/* SetRefPoint0 */
SFVTCA[1]	/* SetFVectorToAxis */
MIRP[01101]	/* MoveIndirectRelPt */
SPVTL[1]	/* SetPVectorToLine */
SRP0[ ]	/* SetRefPoint0 */
SFVTCA[1]	/* SetFVectorToAxis */
MIRP[01101]	/* MoveIndirectRelPt */
SRP1[ ]	/* SetRefPoint1 */
SLOOP[ ]	/* SetLoopVariable */
IP[ ]	/* InterpolatePts */
SPVTL[1]	/* SetPVectorToLine */
SRP0[ ]	/* SetRefPoint0 */
SFVTCA[1]	/* SetFVectorToAxis */
MIRP[01101]	/* MoveIndirectRelPt */
SPVTL[1]	/* SetPVectorToLine */
SRP0[ ]	/* SetRefPoint0 */
SFVTCA[1]	/* SetFVectorToAxis */
MIRP[01101]	/* MoveIndirectRelPt */
SRP1[ ]	/* SetRefPoint1 */
SLOOP[ ]	/* SetLoopVariable */
IP[ ]	/* InterpolatePts */
EIF[ ]	/* EndIf */
CLEAR[ ]	/* ClearStack */
SVTCA[1]	/* SetFreedomAndProjectionVectorToAxis */
MPPEM[ ]	/* MeasurePixelPerEm */
PUSHB[ ]	/* 1 value pushed */
14 
EQ[ ]	/* Equal */
MPPEM[ ]	/* MeasurePixelPerEm */
PUSHB[ ]	/* 1 value pushed */
13 
EQ[ ]	/* Equal */
OR[ ]	/* LogicalOr */
MPPEM[ ]	/* MeasurePixelPerEm */
PUSHB[ ]	/* 1 value pushed */
16 
EQ[ ]	/* Equal */
OR[ ]	/* LogicalOr */
MPPEM[ ]	/* MeasurePixelPerEm */
PUSHB[ ]	/* 1 value pushed */
17 
EQ[ ]	/* Equal */
OR[ ]	/* LogicalOr */
MPPEM[ ]	/* MeasurePixelPerEm */
PUSHB[ ]	/* 1 value pushed */
18 
EQ[ ]	/* Equal */
OR[ ]	/* LogicalOr */
IF[ ]	/* If */
PUSHW[ ]	/* 6 values pushed */
44 -64 1 44 44 64 
SHPIX[ ]	/* ShiftZoneByPixel */
SRP1[ ]	/* SetRefPoint1 */
SHZ[1]	/* ShiftZoneByLastPoint */
SHPIX[ ]	/* ShiftZoneByPixel */
EIF[ ]	/* EndIf */
NPUSHB[ ]	/* 153 values pushed */
63 11 63 12 63 13 63 14 63 15 63 16 63 17 63 18 55 22 63 23 63 24 63 25 63 26 63 27 63 28 63 29 64 3 64 4 64 5 64 6 64 7 64 8 64 9 64 10 71 22 79 23 79 24 79 25 79 26 79 27 79 28 79 29 79 30 79 31 79 32 79 33 79 34 79 35 79 36 79 37 79 38 79 39 79 40 80 4 80 5 80 6 80 7 80 8 80 9 80 10 95 23 95 24 95 25 95 26 95 27 95 28 95 29 95 30 95 31 95 32 95 33 95 34 95 35 95 36 95 37 95 38 95 39 95 40 133 31 133 32 133 33 135 34 132 36 132 37 132 38 132 39 76 
DELTAP1[ ]	/* DeltaExceptionP1 */";
};
width = 1233;
}
);
note = m;
unicode = 109;
},
{
glyphname = n;
layers = (
{
layerId = m01;
shapes = (
{
closed = 1;
nodes = (
(1120,851,o),
(1120,881,qs),
(1120,1008,o),
(982,1147,o),
(854,1147,qs),
(753,1147,o),
(585,1044,o),
(537,952,q),
(569,1120,l),
(276,1120,l),
(59,0,l),
(352,0,l),
(473,629,ls),
(499,763,o),
(616,907,o),
(698,907,qs),
(753,907,o),
(811,846,o),
(811,788,qs),
(811,761,o),
(806,708,o),
(801,682,qs),
(668,0,l),
(961,0,l),
(1102,728,ls),
(1111,775,o)
);
}
);
userData = {
assembly = "NPUSHB[ ]	/* 76 values pushed */
8 7 6 5 4 5 3 15 0 1 0 2 15 1 1 0 13 15 14 15 14 10 11 2 9 12 15 15 14 19 18 2 20 17 15 15 14 16 15 15 15 14 52 12 3 1 17 15 0 1 9 60 20 91 15 101 13 1 0 23 16 13 12 6 3 2 6 17 15 1 24 23 15 12 14 26 
SRP0[ ]	/* SetRefPoint0 */
MDRP[10100]	/* MoveDirectRelPt */
MIRP[00100]	/* MoveIndirectRelPt */
MDRP[10100]	/* MoveDirectRelPt */
MIRP[01100]	/* MoveIndirectRelPt */
SRP1[ ]	/* SetRefPoint1 */
IP[ ]	/* InterpolatePts */
SLOOP[ ]	/* SetLoopVariable */
IP[ ]	/* InterpolatePts */
SRP1[ ]	/* SetRefPoint1 */
IP[ ]	/* InterpolatePts */
IUP[1]	/* InterpolateUntPts */
SVTCA[0]	/* SetFreedomAndProjectionVectorToAxis */
MDAP[1]	/* MoveDirectAbsPt */
ALIGNRP[ ]	/* AlignRelativePt */
MIRP[00100]	/* MoveIndirectRelPt */
MIRP[10100]	/* MoveIndirectRelPt */
MIRP[01100]	/* MoveIndirectRelPt */
SRP1[ ]	/* SetRefPoint1 */
IP[ ]	/* InterpolatePts */
SRP1[ ]	/* SetRefPoint1 */
IP[ ]	/* InterpolatePts */
SRP1[ ]	/* SetRefPoint1 */
IP[ ]	/* InterpolatePts */
IP[ ]	/* InterpolatePts */
IUP[0]	/* InterpolateUntPts */
MPPEM[ ]	/* MeasurePixelPerEm */
GTEQ[ ]	/* GreaterThanOrEqual */
IF[ ]	/* If */
SPVTL[1]	/* SetPVectorToLine */
SRP0[ ]	/* SetRefPoint0 */
SFVTCA[1]	/* SetFVectorToAxis */
MIRP[01101]	/* MoveIndirectRelPt */
SPVTL[1]	/* SetPVectorToLine */
SFVTCA[1]	/* SetFVectorToAxis */
MIRP[01101]	/* MoveIndirectRelPt */
SRP1[ ]	/* SetRefPoint1 */
SLOOP[ ]	/* SetLoopVariable */
IP[ ]	/* InterpolatePts */
SPVTL[1]	/* SetPVectorToLine */
SFVTCA[1]	/* SetFVectorToAxis */
MIRP[01101]	/* MoveIndirectRelPt */
SRP1[ ]	/* SetRefPoint1 */
SLOOP[ ]	/* SetLoopVariable */
IP[ ]	/* InterpolatePts */
SPVTL[1]	/* SetPVectorToLine */
SRP0[ ]	/* SetRefPoint0 */
SFVTCA[1]	/* SetFVectorToAxis */
MIRP[01101]	/* MoveIndirectRelPt */
SPVTL[1]	/* SetPVectorToLine */
SRP0[ ]	/* SetRefPoint0 */
SFVTCA[1]	/* SetFVectorToAxis */
MIRP[01101]	/* MoveIndirectRelPt */
SPVTL[1]	/* SetPVectorToLine */
SRP0[ ]	/* SetRefPoint0 */
SFVTCA[1]	/* SetFVectorToAxis */
MIRP[01101]	/* MoveIndirectRelPt */
SLOOP[ ]	/* SetLoopVariable */
IP[ ]	/* InterpolatePts */
EIF[ ]	/* EndIf */
CLEAR[ ]	/* ClearStack */
SVTCA[1]	/* SetFreedomAndProjectionVectorToAxis */
MPPEM[ ]	/* MeasurePixelPerEm */
PUSHB[ ]	/* 1 value pushed */
12 
EQ[ ]	/* Equal */
MPPEM[ ]	/* MeasurePixelPerEm */
PUSHB[ ]	/* 1 value pushed */
13 
EQ[ ]	/* Equal */
OR[ ]	/* LogicalOr */
MPPEM[ ]	/* MeasurePixelPerEm */
PUSHB[ ]	/* 1 value pushed */
14 
EQ[ ]	/* Equal */
OR[ ]	/* LogicalOr */
MPPEM[ ]	/* MeasurePixelPerEm */
PUSHB[ ]	/* 1 value pushed */
15 
EQ[ ]	/* Equal */
OR[ ]	/* LogicalOr */
MPPEM[ ]	/* MeasurePixelPerEm */
PUSHB[ ]	/* 1 value pushed */
16 
EQ[ ]	/* Equal */
OR[ ]	/* LogicalOr */
MPPEM[ ]	/* MeasurePixelPerEm */
PUSHB[ ]	/* 1 value pushed */
17 
EQ[ ]	/* Equal */
OR[ ]	/* LogicalOr */
IF[ ]	/* If */
PUSHW[ ]	/* 6 values pushed */
26 -64 1 26 26 64 
SHPIX[ ]	/* ShiftZoneByPixel */
SRP1[ ]	/* SetRefPoint1 */
SHZ[1]	/* ShiftZoneByLastPoint */
SHPIX[ ]	/* ShiftZoneByPixel */
EIF[ ]	/* EndIf */
NPUSHB[ ]	/* 15 values pushed */
31 2 31 3 31 4 31 5 31 6 31 7 31 9 7 
DELTAP1[ ]	/* DeltaExceptionP1 */";
};
width = 1233;
}
);
note = n;
unicode = 110;
},
{
glyphname = o;
layers = (
{
layerId = m01;
shapes = (
{
closed = 1;
nodes = (
(684,207,o),
(563,207,qs),
(480,207,o),
(383,328,o),
(383,434,qs),
(383,639,o),
(549,911,o),
(672,911,qs),
(757,911,o),
(850,793,o),
(850,684,qs),
(850,480,o)
);
},
{
closed = 1;
nodes = (
(330,-29,o),
(545,-29,qs),
(812,-29,o),
(1145,371,o),
(1145,694,qs),
(1145,908,o),
(903,1149,o),
(688,1149,qs),
(421,1149,o),
(88,748,o),
(88,426,qs),
(88,212,o)
);
}
);
userData = {
assembly = "NPUSHB[ ]	/* 17 values pushed */
9 60 21 3 60 15 91 21 69 24 0 15 18 6 15 12 24 
SRP0[ ]	/* SetRefPoint0 */
MDRP[10100]	/* MoveDirectRelPt */
MIRP[01100]	/* MoveIndirectRelPt */
MDRP[10100]	/* MoveDirectRelPt */
MIRP[01100]	/* MoveIndirectRelPt */
IUP[1]	/* InterpolateUntPts */
SVTCA[0]	/* SetFreedomAndProjectionVectorToAxis */
SRP0[ ]	/* SetRefPoint0 */
MIRP[00100]	/* MoveIndirectRelPt */
MIRP[10100]	/* MoveIndirectRelPt */
MIRP[01100]	/* MoveIndirectRelPt */
SRP0[ ]	/* SetRefPoint0 */
MIRP[01110]	/* MoveIndirectRelPt */
IUP[0]	/* InterpolateUntPts */";
};
width = 1233;
}
);
note = o;
unicode = 111;
},
{
glyphname = p;
layers = (
{
layerId = m01;
shapes = (
{
closed = 1;
nodes = (
(543,-29,o),
(655,-29,qs),
(772,-29,o),
(982,115,o),
(1051,244,qs),
(1107,350,o),
(1169,610,o),
(1169,739,qs),
(1169,928,o),
(999,1147,o),
(852,1147,qs),
(759,1147,o),
(595,1050,o),
(524,952,q),
(557,1120,l),
(264,1120,l),
(-37,-426,l),
(256,-426,l),
(379,207,l),
(399,95,o)
);
},
{
closed = 1;
nodes = (
(436,328,o),
(436,432,qs),
(436,630,o),
(603,907,o),
(717,907,qs),
(791,907,o),
(874,795,o),
(874,694,qs),
(874,493,o),
(713,209,o),
(602,209,qs),
(526,209,o)
);
}
);
userData = {
assembly = "NPUSHB[ ]	/* 77 values pushed */
31 30 2 20 29 15 3 2 27 1 26 28 15 3 3 2 1 15 3 2 18 19 2 17 0 15 2 3 2 7 6 2 8 5 15 3 2 4 15 3 3 2 52 0 20 17 5 26 3 20 60 17 26 60 8 91 17 69 1 102 3 101 32 1 32 29 4 5 0 3 23 15 11 3 22 2 32 
SRP0[ ]	/* SetRefPoint0 */
MDRP[10100]	/* MoveDirectRelPt */
MIRP[00100]	/* MoveIndirectRelPt */
MDRP[10100]	/* MoveDirectRelPt */
MIRP[01100]	/* MoveIndirectRelPt */
SRP1[ ]	/* SetRefPoint1 */
IP[ ]	/* InterpolatePts */
IP[ ]	/* InterpolatePts */
IP[ ]	/* InterpolatePts */
IP[ ]	/* InterpolatePts */
SRP2[ ]	/* SetRefPoint2 */
IP[ ]	/* InterpolatePts */
IUP[1]	/* InterpolateUntPts */
SVTCA[0]	/* SetFreedomAndProjectionVectorToAxis */
SRP0[ ]	/* SetRefPoint0 */
MIRP[00100]	/* MoveIndirectRelPt */
MIRP[00100]	/* MoveIndirectRelPt */
MIRP[00100]	/* MoveIndirectRelPt */
MIRP[10100]	/* MoveIndirectRelPt */
MIRP[01100]	/* MoveIndirectRelPt */
SRP0[ ]	/* SetRefPoint0 */
MIRP[01110]	/* MoveIndirectRelPt */
SRP1[ ]	/* SetRefPoint1 */
SRP2[ ]	/* SetRefPoint2 */
IP[ ]	/* InterpolatePts */
SRP1[ ]	/* SetRefPoint1 */
SRP2[ ]	/* SetRefPoint2 */
IP[ ]	/* InterpolatePts */
IUP[0]	/* InterpolateUntPts */
MPPEM[ ]	/* MeasurePixelPerEm */
GTEQ[ ]	/* GreaterThanOrEqual */
IF[ ]	/* If */
SPVTL[1]	/* SetPVectorToLine */
SRP0[ ]	/* SetRefPoint0 */
SFVTCA[1]	/* SetFVectorToAxis */
MIRP[01101]	/* MoveIndirectRelPt */
SPVTL[1]	/* SetPVectorToLine */
SFVTCA[1]	/* SetFVectorToAxis */
MIRP[01101]	/* MoveIndirectRelPt */
SRP1[ ]	/* SetRefPoint1 */
SLOOP[ ]	/* SetLoopVariable */
IP[ ]	/* InterpolatePts */
SPVTL[1]	/* SetPVectorToLine */
SRP0[ ]	/* SetRefPoint0 */
SFVTCA[1]	/* SetFVectorToAxis */
MIRP[01101]	/* MoveIndirectRelPt */
SRP1[ ]	/* SetRefPoint1 */
SLOOP[ ]	/* SetLoopVariable */
IP[ ]	/* InterpolatePts */
SPVTL[1]	/* SetPVectorToLine */
SFVTCA[1]	/* SetFVectorToAxis */
MIRP[01101]	/* MoveIndirectRelPt */
SPVTL[1]	/* SetPVectorToLine */
SRP0[ ]	/* SetRefPoint0 */
SFVTCA[1]	/* SetFVectorToAxis */
MIRP[01101]	/* MoveIndirectRelPt */
SRP1[ ]	/* SetRefPoint1 */
SLOOP[ ]	/* SetLoopVariable */
IP[ ]	/* InterpolatePts */
SPVTL[1]	/* SetPVectorToLine */
SFVTCA[1]	/* SetFVectorToAxis */
MIRP[01101]	/* MoveIndirectRelPt */
SRP1[ ]	/* SetRefPoint1 */
SLOOP[ ]	/* SetLoopVariable */
IP[ ]	/* InterpolatePts */
EIF[ ]	/* EndIf */
CLEAR[ ]	/* ClearStack */
SVTCA[1]	/* SetFreedomAndProjectionVectorToAxis */
MPPEM[ ]	/* MeasurePixelPerEm */
PUSHB[ ]	/* 1 value pushed */
10 
EQ[ ]	/* Equal */
IF[ ]	/* If */
PUSHW[ ]	/* 6 values pushed */
32 64 1 32 32 -64 
SHPIX[ ]	/* ShiftZoneByPixel */
SRP1[ ]	/* SetRefPoint1 */
SHZ[1]	/* ShiftZoneByLastPoint */
SHPIX[ ]	/* ShiftZoneByPixel */
EIF[ ]	/* EndIf */";
};
width = 1233;
}
);
note = p;
unicode = 112;
},
{
glyphname = q;
layers = (
{
layerId = m01;
shapes = (
{
closed = 1;
nodes = (
(691,1149,o),
(580,1149,qs),
(464,1149,o),
(256,1004,o),
(186,874,qs),
(130,767,o),
(68,510,o),
(68,381,qs),
(68,191,o),
(239,-29,o),
(385,-29,qs),
(480,-29,o),
(646,71,o),
(709,166,q),
(594,-426,l),
(885,-426,l),
(1186,1120,l),
(893,1120,l),
(854,911,l),
(836,1024,o)
);
},
{
closed = 1;
nodes = (
(799,790,o),
(799,686,qs),
(799,488,o),
(634,211,o),
(520,211,qs),
(446,211,o),
(362,324,o),
(362,424,qs),
(362,626,o),
(522,909,o),
(633,909,qs),
(709,909,o)
);
}
);
userData = {
assembly = "NPUSHB[ ]	/* 78 values pushed */
31 30 2 20 29 15 3 2 27 1 26 28 15 2 3 2 7 6 2 8 5 15 3 2 4 15 3 3 2 1 15 3 2 18 19 2 17 0 15 2 3 2 52 5 26 8 0 20 1 26 60 8 20 60 17 91 8 69 3 102 1 101 32 29 4 23 1 2 5 0 23 3 22 2 23 15 11 32 
SRP0[ ]	/* SetRefPoint0 */
MDRP[10100]	/* MoveDirectRelPt */
MIRP[01100]	/* MoveIndirectRelPt */
MDRP[10100]	/* MoveDirectRelPt */
MIRP[00100]	/* MoveIndirectRelPt */
SRP1[ ]	/* SetRefPoint1 */
IP[ ]	/* InterpolatePts */
IP[ ]	/* InterpolatePts */
SRP1[ ]	/* SetRefPoint1 */
IP[ ]	/* InterpolatePts */
SRP1[ ]	/* SetRefPoint1 */
IP[ ]	/* InterpolatePts */
IP[ ]	/* InterpolatePts */
IUP[1]	/* InterpolateUntPts */
SVTCA[0]	/* SetFreedomAndProjectionVectorToAxis */
SRP0[ ]	/* SetRefPoint0 */
MIRP[00100]	/* MoveIndirectRelPt */
MIRP[00100]	/* MoveIndirectRelPt */
MIRP[00100]	/* MoveIndirectRelPt */
MIRP[10100]	/* MoveIndirectRelPt */
MIRP[01100]	/* MoveIndirectRelPt */
SRP0[ ]	/* SetRefPoint0 */
MIRP[01110]	/* MoveIndirectRelPt */
SRP1[ ]	/* SetRefPoint1 */
SRP2[ ]	/* SetRefPoint2 */
IP[ ]	/* InterpolatePts */
SRP1[ ]	/* SetRefPoint1 */
SRP2[ ]	/* SetRefPoint2 */
IP[ ]	/* InterpolatePts */
IUP[0]	/* InterpolateUntPts */
MPPEM[ ]	/* MeasurePixelPerEm */
GTEQ[ ]	/* GreaterThanOrEqual */
IF[ ]	/* If */
SPVTL[1]	/* SetPVectorToLine */
SRP0[ ]	/* SetRefPoint0 */
SFVTCA[1]	/* SetFVectorToAxis */
MIRP[01101]	/* MoveIndirectRelPt */
SRP1[ ]	/* SetRefPoint1 */
SLOOP[ ]	/* SetLoopVariable */
IP[ ]	/* InterpolatePts */
SPVTL[1]	/* SetPVectorToLine */
SFVTCA[1]	/* SetFVectorToAxis */
MIRP[01101]	/* MoveIndirectRelPt */
SPVTL[1]	/* SetPVectorToLine */
SRP0[ ]	/* SetRefPoint0 */
SFVTCA[1]	/* SetFVectorToAxis */
MIRP[01101]	/* MoveIndirectRelPt */
SPVTL[1]	/* SetPVectorToLine */
SFVTCA[1]	/* SetFVectorToAxis */
MIRP[01101]	/* MoveIndirectRelPt */
SRP1[ ]	/* SetRefPoint1 */
SLOOP[ ]	/* SetLoopVariable */
IP[ ]	/* InterpolatePts */
SPVTL[1]	/* SetPVectorToLine */
SRP0[ ]	/* SetRefPoint0 */
SFVTCA[1]	/* SetFVectorToAxis */
MIRP[01101]	/* MoveIndirectRelPt */
SRP1[ ]	/* SetRefPoint1 */
SLOOP[ ]	/* SetLoopVariable */
IP[ ]	/* InterpolatePts */
SPVTL[1]	/* SetPVectorToLine */
SFVTCA[1]	/* SetFVectorToAxis */
MIRP[01101]	/* MoveIndirectRelPt */
SRP1[ ]	/* SetRefPoint1 */
SLOOP[ ]	/* SetLoopVariable */
IP[ ]	/* InterpolatePts */
EIF[ ]	/* EndIf */
CLEAR[ ]	/* ClearStack */
SVTCA[1]	/* SetFreedomAndProjectionVectorToAxis */
MPPEM[ ]	/* MeasurePixelPerEm */
PUSHB[ ]	/* 1 value pushed */
12 
EQ[ ]	/* Equal */
MPPEM[ ]	/* MeasurePixelPerEm */
PUSHB[ ]	/* 1 value pushed */
13 
EQ[ ]	/* Equal */
OR[ ]	/* LogicalOr */
MPPEM[ ]	/* MeasurePixelPerEm */
PUSHB[ ]	/* 1 value pushed */
14 
EQ[ ]	/* Equal */
OR[ ]	/* LogicalOr */
IF[ ]	/* If */
PUSHW[ ]	/* 6 values pushed */
32 -64 1 32 32 64 
SHPIX[ ]	/* ShiftZoneByPixel */
SRP1[ ]	/* SetRefPoint1 */
SHZ[1]	/* ShiftZoneByLastPoint */
SHPIX[ ]	/* ShiftZoneByPixel */
EIF[ ]	/* EndIf */";
};
width = 1233;
}
);
note = q;
unicode = 113;
},
{
glyphname = r;
layers = (
{
layerId = m01;
shapes = (
{
closed = 1;
nodes = (
(1183,1117,o),
(1072,1147,o),
(1010,1147,qs),
(891,1147,o),
(693,1042,o),
(631,946,q),
(666,1120,l),
(373,1120,l),
(154,0,l),
(449,0,l),
(549,516,ls),
(589,723,o),
(768,899,o),
(934,899,qs),
(1008,899,o),
(1126,858,o),
(1174,815,q),
(1227,1090,l)
);
}
);
userData = {
assembly = "NPUSHB[ ]	/* 53 values pushed */
7 15 8 9 8 4 5 2 3 6 15 9 8 13 12 2 14 11 15 9 8 10 15 9 9 8 52 11 17 3 6 7 0 17 3 60 14 91 9 101 7 11 10 7 6 0 5 9 17 9 12 8 18 
SRP0[ ]	/* SetRefPoint0 */
MDRP[10100]	/* MoveDirectRelPt */
MIRP[00100]	/* MoveIndirectRelPt */
MDRP[01100]	/* MoveDirectRelPt */
SRP1[ ]	/* SetRefPoint1 */
SLOOP[ ]	/* SetLoopVariable */
IP[ ]	/* InterpolatePts */
IUP[1]	/* InterpolateUntPts */
SVTCA[0]	/* SetFreedomAndProjectionVectorToAxis */
MDAP[1]	/* MoveDirectAbsPt */
MIRP[00100]	/* MoveIndirectRelPt */
MIRP[10100]	/* MoveIndirectRelPt */
MIRP[01100]	/* MoveIndirectRelPt */
MDRP[10100]	/* MoveDirectRelPt */
MDRP[00100]	/* MoveDirectRelPt */
SRP1[ ]	/* SetRefPoint1 */
IP[ ]	/* InterpolatePts */
SRP1[ ]	/* SetRefPoint1 */
SRP2[ ]	/* SetRefPoint2 */
IP[ ]	/* InterpolatePts */
IUP[0]	/* InterpolateUntPts */
MPPEM[ ]	/* MeasurePixelPerEm */
GTEQ[ ]	/* GreaterThanOrEqual */
IF[ ]	/* If */
SPVTL[1]	/* SetPVectorToLine */
SRP0[ ]	/* SetRefPoint0 */
SFVTCA[1]	/* SetFVectorToAxis */
MIRP[01101]	/* MoveIndirectRelPt */
SPVTL[1]	/* SetPVectorToLine */
SFVTCA[1]	/* SetFVectorToAxis */
MIRP[01101]	/* MoveIndirectRelPt */
SRP1[ ]	/* SetRefPoint1 */
SLOOP[ ]	/* SetLoopVariable */
IP[ ]	/* InterpolatePts */
SPVTL[1]	/* SetPVectorToLine */
SFVTCA[1]	/* SetFVectorToAxis */
MIRP[01101]	/* MoveIndirectRelPt */
SRP1[ ]	/* SetRefPoint1 */
SLOOP[ ]	/* SetLoopVariable */
IP[ ]	/* InterpolatePts */
SPVTL[1]	/* SetPVectorToLine */
SRP0[ ]	/* SetRefPoint0 */
SFVTCA[1]	/* SetFVectorToAxis */
MIRP[01101]	/* MoveIndirectRelPt */
EIF[ ]	/* EndIf */
CLEAR[ ]	/* ClearStack */
SVTCA[1]	/* SetFreedomAndProjectionVectorToAxis */
MPPEM[ ]	/* MeasurePixelPerEm */
PUSHB[ ]	/* 1 value pushed */
17 
EQ[ ]	/* Equal */
IF[ ]	/* If */
PUSHW[ ]	/* 6 values pushed */
18 -64 1 18 18 64 
SHPIX[ ]	/* ShiftZoneByPixel */
SRP1[ ]	/* SetRefPoint1 */
SHZ[1]	/* ShiftZoneByLastPoint */
SHPIX[ ]	/* ShiftZoneByPixel */
EIF[ ]	/* EndIf */";
};
width = 1233;
}
);
note = r;
unicode = 114;
},
{
glyphname = s;
layers = (
{
layerId = m01;
shapes = (
{
closed = 1;
nodes = (
(816,1147,o),
(723,1147,qs),
(497,1147,o),
(225,940,o),
(225,772,qs),
(225,660,o),
(339,521,o),
(461,485,qs),
(549,461,ls),
(682,422,o),
(743,370,o),
(743,324,qs),
(743,257,o),
(620,182,o),
(510,182,qs),
(417,182,o),
(227,241,o),
(141,297,q),
(90,41,l),
(189,6,o),
(396,-29,o),
(500,-29,qs),
(745,-29,o),
(1020,178,o),
(1020,360,qs),
(1020,474,o),
(902,614,o),
(774,651,qs),
(700,672,ls),
(571,709,o),
(498,764,o),
(498,809,qs),
(498,868,o),
(608,938,o),
(702,938,qs),
(795,938,o),
(969,884,o),
(1044,831,q),
(1094,1085,l),
(1002,1116,o)
);
}
);
userData = {
assembly = "NPUSHB[ ]	/* 60 values pushed */
13 12 2 14 11 31 30 8 9 2 7 10 30 31 30 52 10 11 30 31 4 1 21 96 20 1 96 0 24 60 20 75 17 4 60 0 75 37 91 17 69 40 11 27 14 31 34 30 10 27 7 1 0 27 15 14 7 15 34 40 
SRP0[ ]	/* SetRefPoint0 */
MDRP[10100]	/* MoveDirectRelPt */
MIRP[01100]	/* MoveIndirectRelPt */
MDRP[10100]	/* MoveDirectRelPt */
MIRP[01100]	/* MoveIndirectRelPt */
MDRP[00000]	/* MoveDirectRelPt */
MDRP[00000]	/* MoveDirectRelPt */
SRP1[ ]	/* SetRefPoint1 */
SRP2[ ]	/* SetRefPoint2 */
IP[ ]	/* InterpolatePts */
IP[ ]	/* InterpolatePts */
SRP2[ ]	/* SetRefPoint2 */
IP[ ]	/* InterpolatePts */
SRP1[ ]	/* SetRefPoint1 */
SRP2[ ]	/* SetRefPoint2 */
IP[ ]	/* InterpolatePts */
IUP[1]	/* InterpolateUntPts */
SVTCA[0]	/* SetFreedomAndProjectionVectorToAxis */
SRP0[ ]	/* SetRefPoint0 */
MIRP[00100]	/* MoveIndirectRelPt */
MIRP[10100]	/* MoveIndirectRelPt */
MIRP[00100]	/* MoveIndirectRelPt */
MIRP[01100]	/* MoveIndirectRelPt */
SRP0[ ]	/* SetRefPoint0 */
MIRP[00110]	/* MoveIndirectRelPt */
MIRP[01110]	/* MoveIndirectRelPt */
SRP0[ ]	/* SetRefPoint0 */
MIRP[01110]	/* MoveIndirectRelPt */
SRP0[ ]	/* SetRefPoint0 */
MIRP[01110]	/* MoveIndirectRelPt */
SRP1[ ]	/* SetRefPoint1 */
SLOOP[ ]	/* SetLoopVariable */
IP[ ]	/* InterpolatePts */
IUP[0]	/* InterpolateUntPts */
MPPEM[ ]	/* MeasurePixelPerEm */
GTEQ[ ]	/* GreaterThanOrEqual */
IF[ ]	/* If */
SPVTL[1]	/* SetPVectorToLine */
SRP0[ ]	/* SetRefPoint0 */
SFVTPV[ ]	/* SetFVectorToPVector */
MDRP[01001]	/* MoveDirectRelPt */
SRP1[ ]	/* SetRefPoint1 */
SLOOP[ ]	/* SetLoopVariable */
IP[ ]	/* InterpolatePts */
SPVTL[1]	/* SetPVectorToLine */
SFVTPV[ ]	/* SetFVectorToPVector */
MDRP[01001]	/* MoveDirectRelPt */
SRP1[ ]	/* SetRefPoint1 */
SLOOP[ ]	/* SetLoopVariable */
IP[ ]	/* InterpolatePts */
EIF[ ]	/* EndIf */
CLEAR[ ]	/* ClearStack */
SVTCA[1]	/* SetFreedomAndProjectionVectorToAxis */
MPPEM[ ]	/* MeasurePixelPerEm */
PUSHB[ ]	/* 1 value pushed */
12 
EQ[ ]	/* Equal */
MPPEM[ ]	/* MeasurePixelPerEm */
PUSHB[ ]	/* 1 value pushed */
13 
EQ[ ]	/* Equal */
OR[ ]	/* LogicalOr */
IF[ ]	/* If */
PUSHW[ ]	/* 6 values pushed */
40 -64 1 40 40 64 
SHPIX[ ]	/* ShiftZoneByPixel */
SRP1[ ]	/* SetRefPoint1 */
SHZ[1]	/* ShiftZoneByLastPoint */
SHPIX[ ]	/* ShiftZoneByPixel */
EIF[ ]	/* EndIf */
NPUSHB[ ]	/* 40 values pushed */
45 8 47 8 47 8 47 9 47 9 47 9 6 44 8 47 8 46 9 47 9 58 0 58 1 58 2 74 0 74 1 74 2 89 0 89 1 89 2 13 
DELTAP1[ ]	/* DeltaExceptionP1 */
SVTCA[0]	/* SetFreedomAndProjectionVectorToAxis */
DELTAP1[ ]	/* DeltaExceptionP1 */";
};
width = 1233;
}
);
note = s;
unicode = 115;
},
{
glyphname = t;
layers = (
{
layerId = m01;
shapes = (
{
closed = 1;
nodes = (
(494,1120,l),
(207,1120,l),
(164,895,l),
(451,895,l),
(350,379,ls),
(341,329,o),
(332,261,o),
(332,240,qs),
(332,111,o),
(503,0,o),
(707,0,qs),
(952,0,l),
(995,225,l),
(770,225,ls),
(691,225,o),
(631,262,o),
(631,307,qs),
(631,315,o),
(635,345,o),
(639,365,qs),
(743,895,l),
(1126,895,l),
(1169,1120,l),
(786,1120,l),
(848,1438,l),
(555,1438,l)
);
}
);
userData = {
assembly = "NPUSHB[ ]	/* 62 values pushed */
11 10 9 8 7 6 6 12 5 15 20 25 20 4 15 25 20 1 15 25 20 0 15 25 25 20 52 5 20 11 21 3 100 0 23 1 101 11 100 13 23 22 26 25 24 21 20 14 13 12 11 8 5 4 3 1 0 14 2 17 17 26 
SRP0[ ]	/* SetRefPoint0 */
MDRP[00100]	/* MoveDirectRelPt */
SRP0[ ]	/* SetRefPoint0 */
MDRP[00000]	/* MoveDirectRelPt */
SLOOP[ ]	/* SetLoopVariable */
IP[ ]	/* InterpolatePts */
SRP2[ ]	/* SetRefPoint2 */
IP[ ]	/* InterpolatePts */
IP[ ]	/* InterpolatePts */
IUP[1]	/* InterpolateUntPts */
SVTCA[0]	/* SetFreedomAndProjectionVectorToAxis */
MDAP[1]	/* MoveDirectAbsPt */
MIRP[01100]	/* MoveIndirectRelPt */
MIRP[10100]	/* MoveIndirectRelPt */
ALIGNRP[ ]	/* AlignRelativePt */
MDRP[00100]	/* MoveDirectRelPt */
MIRP[01100]	/* MoveIndirectRelPt */
SHP[0]	/* ShiftPointByLastPoint */
SRP1[ ]	/* SetRefPoint1 */
IP[ ]	/* InterpolatePts */
IP[ ]	/* InterpolatePts */
IUP[0]	/* InterpolateUntPts */
MPPEM[ ]	/* MeasurePixelPerEm */
GTEQ[ ]	/* GreaterThanOrEqual */
IF[ ]	/* If */
SPVTL[1]	/* SetPVectorToLine */
SRP0[ ]	/* SetRefPoint0 */
SFVTCA[1]	/* SetFVectorToAxis */
MIRP[01101]	/* MoveIndirectRelPt */
SPVTL[1]	/* SetPVectorToLine */
SFVTCA[1]	/* SetFVectorToAxis */
MIRP[01101]	/* MoveIndirectRelPt */
SPVTL[1]	/* SetPVectorToLine */
SFVTCA[1]	/* SetFVectorToAxis */
MIRP[01101]	/* MoveIndirectRelPt */
SPVTL[1]	/* SetPVectorToLine */
SRP0[ ]	/* SetRefPoint0 */
SFVTCA[1]	/* SetFVectorToAxis */
MIRP[01101]	/* MoveIndirectRelPt */
SRP1[ ]	/* SetRefPoint1 */
SLOOP[ ]	/* SetLoopVariable */
IP[ ]	/* InterpolatePts */
EIF[ ]	/* EndIf */
CLEAR[ ]	/* ClearStack */
SVTCA[1]	/* SetFreedomAndProjectionVectorToAxis */
MPPEM[ ]	/* MeasurePixelPerEm */
PUSHB[ ]	/* 1 value pushed */
10 
EQ[ ]	/* Equal */
IF[ ]	/* If */
PUSHW[ ]	/* 6 values pushed */
26 64 1 26 26 -64 
SHPIX[ ]	/* ShiftZoneByPixel */
SRP1[ ]	/* SetRefPoint1 */
SHZ[1]	/* ShiftZoneByLastPoint */
SHPIX[ ]	/* ShiftZoneByPixel */
EIF[ ]	/* EndIf */
SVTCA[1]	/* SetFreedomAndProjectionVectorToAxis */
MPPEM[ ]	/* MeasurePixelPerEm */
PUSHB[ ]	/* 1 value pushed */
13 
EQ[ ]	/* Equal */
MPPEM[ ]	/* MeasurePixelPerEm */
PUSHB[ ]	/* 1 value pushed */
14 
EQ[ ]	/* Equal */
OR[ ]	/* LogicalOr */
MPPEM[ ]	/* MeasurePixelPerEm */
PUSHB[ ]	/* 1 value pushed */
15 
EQ[ ]	/* Equal */
OR[ ]	/* LogicalOr */
IF[ ]	/* If */
PUSHW[ ]	/* 6 values pushed */
26 -64 1 26 26 64 
SHPIX[ ]	/* ShiftZoneByPixel */
SRP1[ ]	/* SetRefPoint1 */
SHZ[1]	/* ShiftZoneByLastPoint */
SHPIX[ ]	/* ShiftZoneByPixel */
EIF[ ]	/* EndIf */";
};
width = 1233;
}
);
note = t;
unicode = 116;
},
{
glyphname = u;
layers = (
{
layerId = m01;
shapes = (
{
closed = 1;
nodes = (
(106,272,o),
(106,244,qs),
(106,112,o),
(244,-29,o),
(373,-29,qs),
(474,-29,o),
(644,76,o),
(688,166,q),
(655,0,l),
(948,0,l),
(1165,1120,l),
(874,1120,l),
(752,489,ls),
(724,351,o),
(611,211,o),
(528,211,qs),
(474,211,o),
(416,274,o),
(416,332,qs),
(416,357,o),
(421,409,o),
(426,436,qs),
(557,1120,l),
(266,1120,l),
(123,391,ls),
(114,344,o)
);
}
);
userData = {
assembly = "NPUSHB[ ]	/* 79 values pushed */
19 18 2 20 17 15 15 14 16 15 15 15 14 13 15 14 15 14 10 11 2 9 12 15 15 15 14 5 4 2 6 3 15 0 1 0 2 15 1 1 0 52 12 3 1 17 15 0 1 9 60 20 69 13 1 101 15 16 13 12 3 2 5 15 6 0 23 1 17 6 15 12 14 1 24 6 15 23 26 
SRP0[ ]	/* SetRefPoint0 */
MDRP[10100]	/* MoveDirectRelPt */
MIRP[01100]	/* MoveIndirectRelPt */
MIRP[01100]	/* MoveIndirectRelPt */
MDRP[10100]	/* MoveDirectRelPt */
MIRP[00100]	/* MoveIndirectRelPt */
SRP1[ ]	/* SetRefPoint1 */
IP[ ]	/* InterpolatePts */
SRP1[ ]	/* SetRefPoint1 */
SRP2[ ]	/* SetRefPoint2 */
IP[ ]	/* InterpolatePts */
SRP1[ ]	/* SetRefPoint1 */
SRP2[ ]	/* SetRefPoint2 */
SLOOP[ ]	/* SetLoopVariable */
IP[ ]	/* InterpolatePts */
IUP[1]	/* InterpolateUntPts */
SVTCA[0]	/* SetFreedomAndProjectionVectorToAxis */
MDAP[1]	/* MoveDirectAbsPt */
MIRP[00100]	/* MoveIndirectRelPt */
SHP[0]	/* ShiftPointByLastPoint */
MIRP[10100]	/* MoveIndirectRelPt */
MIRP[01100]	/* MoveIndirectRelPt */
SRP1[ ]	/* SetRefPoint1 */
IP[ ]	/* InterpolatePts */
SRP1[ ]	/* SetRefPoint1 */
IP[ ]	/* InterpolatePts */
SRP1[ ]	/* SetRefPoint1 */
IP[ ]	/* InterpolatePts */
IP[ ]	/* InterpolatePts */
IUP[0]	/* InterpolateUntPts */
MPPEM[ ]	/* MeasurePixelPerEm */
GTEQ[ ]	/* GreaterThanOrEqual */
IF[ ]	/* If */
SPVTL[1]	/* SetPVectorToLine */
SRP0[ ]	/* SetRefPoint0 */
SFVTCA[1]	/* SetFVectorToAxis */
MIRP[01101]	/* MoveIndirectRelPt */
SPVTL[1]	/* SetPVectorToLine */
SRP0[ ]	/* SetRefPoint0 */
SFVTCA[1]	/* SetFVectorToAxis */
MIRP[01101]	/* MoveIndirectRelPt */
SRP1[ ]	/* SetRefPoint1 */
SLOOP[ ]	/* SetLoopVariable */
IP[ ]	/* InterpolatePts */
SPVTL[1]	/* SetPVectorToLine */
SRP0[ ]	/* SetRefPoint0 */
SFVTCA[1]	/* SetFVectorToAxis */
MIRP[01101]	/* MoveIndirectRelPt */
SRP1[ ]	/* SetRefPoint1 */
SLOOP[ ]	/* SetLoopVariable */
IP[ ]	/* InterpolatePts */
SPVTL[1]	/* SetPVectorToLine */
SRP0[ ]	/* SetRefPoint0 */
SFVTCA[1]	/* SetFVectorToAxis */
MIRP[01101]	/* MoveIndirectRelPt */
SPVTL[1]	/* SetPVectorToLine */
SRP0[ ]	/* SetRefPoint0 */
SFVTCA[1]	/* SetFVectorToAxis */
MIRP[01101]	/* MoveIndirectRelPt */
SPVTL[1]	/* SetPVectorToLine */
SFVTCA[1]	/* SetFVectorToAxis */
MIRP[01101]	/* MoveIndirectRelPt */
SRP1[ ]	/* SetRefPoint1 */
SLOOP[ ]	/* SetLoopVariable */
IP[ ]	/* InterpolatePts */
EIF[ ]	/* EndIf */
CLEAR[ ]	/* ClearStack */
SVTCA[1]	/* SetFreedomAndProjectionVectorToAxis */
MPPEM[ ]	/* MeasurePixelPerEm */
PUSHB[ ]	/* 1 value pushed */
10 
EQ[ ]	/* Equal */
MPPEM[ ]	/* MeasurePixelPerEm */
PUSHB[ ]	/* 1 value pushed */
11 
EQ[ ]	/* Equal */
OR[ ]	/* LogicalOr */
IF[ ]	/* If */
PUSHW[ ]	/* 6 values pushed */
26 64 1 26 26 -64 
SHPIX[ ]	/* ShiftZoneByPixel */
SRP1[ ]	/* SetRefPoint1 */
SHZ[1]	/* ShiftZoneByLastPoint */
SHPIX[ ]	/* ShiftZoneByPixel */
EIF[ ]	/* EndIf */
SVTCA[1]	/* SetFreedomAndProjectionVectorToAxis */
MPPEM[ ]	/* MeasurePixelPerEm */
PUSHB[ ]	/* 1 value pushed */
17 
EQ[ ]	/* Equal */
IF[ ]	/* If */
PUSHW[ ]	/* 6 values pushed */
26 -64 1 26 26 64 
SHPIX[ ]	/* ShiftZoneByPixel */
SRP1[ ]	/* SetRefPoint1 */
SHZ[1]	/* ShiftZoneByLastPoint */
SHPIX[ ]	/* ShiftZoneByPixel */
EIF[ ]	/* EndIf */
NPUSHB[ ]	/* 11 values pushed */
31 9 31 10 31 11 31 12 31 13 5 
DELTAP1[ ]	/* DeltaExceptionP1 */";
};
width = 1233;
}
);
note = u;
unicode = 117;
},
{
glyphname = v;
layers = (
{
layerId = m01;
shapes = (
{
closed = 1;
nodes = (
(535,242,l),
(455,1120,l),
(172,1120,l),
(311,0,l),
(680,0,l),
(1231,1120,l),
(924,1120,l)
);
}
);
userData = {
assembly = "NPUSHB[ ]	/* 35 values pushed */
6 0 1 0 5 4 5 1 1 0 5 6 5 2 3 2 4 3 3 2 52 5 3 0 101 1 6 5 4 2 1 5 0 3 7 
SRP0[ ]	/* SetRefPoint0 */
MDRP[10100]	/* MoveDirectRelPt */
MDRP[01100]	/* MoveDirectRelPt */
SLOOP[ ]	/* SetLoopVariable */
IP[ ]	/* InterpolatePts */
IUP[1]	/* InterpolateUntPts */
SVTCA[0]	/* SetFreedomAndProjectionVectorToAxis */
MDAP[1]	/* MoveDirectAbsPt */
MIRP[00100]	/* MoveIndirectRelPt */
SHP[0]	/* ShiftPointByLastPoint */
IP[ ]	/* InterpolatePts */
IUP[0]	/* InterpolateUntPts */
MPPEM[ ]	/* MeasurePixelPerEm */
GTEQ[ ]	/* GreaterThanOrEqual */
IF[ ]	/* If */
SPVTL[1]	/* SetPVectorToLine */
SRP0[ ]	/* SetRefPoint0 */
SFVTCA[1]	/* SetFVectorToAxis */
MDRP[01001]	/* MoveDirectRelPt */
SPVTL[1]	/* SetPVectorToLine */
SRP0[ ]	/* SetRefPoint0 */
SFVTL[0]	/* SetFVectorToLine */
MDRP[01001]	/* MoveDirectRelPt */
SPVTL[1]	/* SetPVectorToLine */
SRP0[ ]	/* SetRefPoint0 */
SFVTL[0]	/* SetFVectorToLine */
MDRP[01001]	/* MoveDirectRelPt */
SPVTL[1]	/* SetPVectorToLine */
SRP0[ ]	/* SetRefPoint0 */
SFVTCA[1]	/* SetFVectorToAxis */
MDRP[01001]	/* MoveDirectRelPt */
EIF[ ]	/* EndIf */
CLEAR[ ]	/* ClearStack */
SVTCA[1]	/* SetFreedomAndProjectionVectorToAxis */
MPPEM[ ]	/* MeasurePixelPerEm */
PUSHB[ ]	/* 1 value pushed */
10 
EQ[ ]	/* Equal */
MPPEM[ ]	/* MeasurePixelPerEm */
PUSHB[ ]	/* 1 value pushed */
9 
EQ[ ]	/* Equal */
OR[ ]	/* LogicalOr */
IF[ ]	/* If */
PUSHW[ ]	/* 6 values pushed */
7 64 1 7 7 -64 
SHPIX[ ]	/* ShiftZoneByPixel */
SRP1[ ]	/* SetRefPoint1 */
SHZ[1]	/* ShiftZoneByLastPoint */
SHPIX[ ]	/* ShiftZoneByPixel */
EIF[ ]	/* EndIf */
SVTCA[1]	/* SetFreedomAndProjectionVectorToAxis */
MPPEM[ ]	/* MeasurePixelPerEm */
PUSHB[ ]	/* 1 value pushed */
14 
EQ[ ]	/* Equal */
MPPEM[ ]	/* MeasurePixelPerEm */
PUSHB[ ]	/* 1 value pushed */
13 
EQ[ ]	/* Equal */
OR[ ]	/* LogicalOr */
MPPEM[ ]	/* MeasurePixelPerEm */
PUSHB[ ]	/* 1 value pushed */
12 
EQ[ ]	/* Equal */
OR[ ]	/* LogicalOr */
MPPEM[ ]	/* MeasurePixelPerEm */
PUSHB[ ]	/* 1 value pushed */
15 
EQ[ ]	/* Equal */
OR[ ]	/* LogicalOr */
MPPEM[ ]	/* MeasurePixelPerEm */
PUSHB[ ]	/* 1 value pushed */
16 
EQ[ ]	/* Equal */
OR[ ]	/* LogicalOr */
MPPEM[ ]	/* MeasurePixelPerEm */
PUSHB[ ]	/* 1 value pushed */
17 
EQ[ ]	/* Equal */
OR[ ]	/* LogicalOr */
IF[ ]	/* If */
PUSHW[ ]	/* 6 values pushed */
7 -64 1 7 7 64 
SHPIX[ ]	/* ShiftZoneByPixel */
SRP1[ ]	/* SetRefPoint1 */
SHZ[1]	/* ShiftZoneByLastPoint */
SHPIX[ ]	/* ShiftZoneByPixel */
EIF[ ]	/* EndIf */
NPUSHB[ ]	/* 17 values pushed */
9 2 12 3 10 4 9 6 25 2 26 4 25 5 26 6 8 
DELTAP1[ ]	/* DeltaExceptionP1 */";
};
width = 1233;
}
);
note = v;
unicode = 118;
},
{
glyphname = w;
layers = (
{
layerId = m01;
shapes = (
{
closed = 1;
nodes = (
(369,0,l),
(608,590,l),
(627,0,l),
(907,0,l),
(1325,1120,l),
(1073,1120,l),
(782,262,l),
(760,827,l),
(530,827,l),
(303,262,l),
(336,1120,l),
(96,1120,l),
(90,0,l)
);
}
);
userData = {
assembly = "NPUSHB[ ]	/* 66 values pushed */
3 10 11 10 2 1 2 11 11 10 5 6 5 9 10 9 4 10 10 9 6 7 8 7 5 4 5 8 8 7 2 3 2 12 0 12 1 0 0 12 52 10 5 3 2 4 6 0 101 11 8 11 10 9 8 6 5 4 3 2 1 0 11 7 12 13 
SRP0[ ]	/* SetRefPoint0 */
MDRP[10100]	/* MoveDirectRelPt */
MDRP[01100]	/* MoveDirectRelPt */
SLOOP[ ]	/* SetLoopVariable */
IP[ ]	/* InterpolatePts */
IUP[1]	/* InterpolateUntPts */
SVTCA[0]	/* SetFreedomAndProjectionVectorToAxis */
MDAP[1]	/* MoveDirectAbsPt */
ALIGNRP[ ]	/* AlignRelativePt */
MIRP[00100]	/* MoveIndirectRelPt */
SHP[0]	/* ShiftPointByLastPoint */
SLOOP[ ]	/* SetLoopVariable */
IP[ ]	/* InterpolatePts */
IUP[0]	/* InterpolateUntPts */
MPPEM[ ]	/* MeasurePixelPerEm */
GTEQ[ ]	/* GreaterThanOrEqual */
IF[ ]	/* If */
SPVTL[1]	/* SetPVectorToLine */
SRP0[ ]	/* SetRefPoint0 */
SFVTCA[1]	/* SetFVectorToAxis */
MDRP[01001]	/* MoveDirectRelPt */
SPVTL[1]	/* SetPVectorToLine */
SRP0[ ]	/* SetRefPoint0 */
SFVTL[0]	/* SetFVectorToLine */
MDRP[01001]	/* MoveDirectRelPt */
SPVTL[1]	/* SetPVectorToLine */
SRP0[ ]	/* SetRefPoint0 */
SFVTL[0]	/* SetFVectorToLine */
MDRP[01001]	/* MoveDirectRelPt */
SPVTL[1]	/* SetPVectorToLine */
SRP0[ ]	/* SetRefPoint0 */
SFVTCA[1]	/* SetFVectorToAxis */
MDRP[01001]	/* MoveDirectRelPt */
SPVTL[1]	/* SetPVectorToLine */
SRP0[ ]	/* SetRefPoint0 */
SFVTCA[1]	/* SetFVectorToAxis */
MDRP[01001]	/* MoveDirectRelPt */
SPVTL[1]	/* SetPVectorToLine */
SRP0[ ]	/* SetRefPoint0 */
SFVTL[0]	/* SetFVectorToLine */
MDRP[01001]	/* MoveDirectRelPt */
SPVTL[1]	/* SetPVectorToLine */
SRP0[ ]	/* SetRefPoint0 */
SFVTL[0]	/* SetFVectorToLine */
MDRP[01001]	/* MoveDirectRelPt */
SPVTL[1]	/* SetPVectorToLine */
SRP0[ ]	/* SetRefPoint0 */
SFVTCA[1]	/* SetFVectorToAxis */
MDRP[01001]	/* MoveDirectRelPt */
EIF[ ]	/* EndIf */
CLEAR[ ]	/* ClearStack */
PUSHB[ ]	/* 3 values pushed */
23 8 1 
SVTCA[1]	/* SetFreedomAndProjectionVectorToAxis */
DELTAP1[ ]	/* DeltaExceptionP1 */
NPUSHB[ ]	/* 46 values pushed */
38 2 41 3 41 4 58 3 58 4 75 3 76 4 7 11 3 4 8 4 11 23 8 22 11 42 1 42 2 45 3 60 1 60 2 60 3 73 2 77 3 91 2 92 3 15 
DELTAP1[ ]	/* DeltaExceptionP1 */
SVTCA[0]	/* SetFreedomAndProjectionVectorToAxis */
DELTAP1[ ]	/* DeltaExceptionP1 */";
};
width = 1233;
}
);
note = w;
unicode = 119;
},
{
glyphname = x;
layers = (
{
layerId = m01;
shapes = (
{
closed = 1;
nodes = (
(627,803,l),
(479,1120,l),
(178,1120,l),
(436,594,l),
(-76,0,l),
(256,0,l),
(559,356,l),
(729,0,l),
(1028,0,l),
(750,567,l),
(1227,1120,l),
(895,1120,l)
);
}
);
userData = {
assembly = "NPUSHB[ ]	/* 64 values pushed */
5 6 7 6 4 3 4 7 7 6 4 5 4 1 2 1 3 2 2 1 11 0 1 0 10 9 10 1 1 0 10 11 10 7 8 7 9 8 8 7 52 10 7 4 1 4 8 0 101 5 2 10 9 8 7 4 3 2 1 8 12 0 6 12 
SRP0[ ]	/* SetRefPoint0 */
MDRP[10100]	/* MoveDirectRelPt */
MDRP[01100]	/* MoveDirectRelPt */
SRP1[ ]	/* SetRefPoint1 */
SLOOP[ ]	/* SetLoopVariable */
IP[ ]	/* InterpolatePts */
IUP[1]	/* InterpolateUntPts */
SVTCA[0]	/* SetFreedomAndProjectionVectorToAxis */
MDAP[1]	/* MoveDirectAbsPt */
ALIGNRP[ ]	/* AlignRelativePt */
MIRP[00100]	/* MoveIndirectRelPt */
SHP[0]	/* ShiftPointByLastPoint */
SLOOP[ ]	/* SetLoopVariable */
IP[ ]	/* InterpolatePts */
IUP[0]	/* InterpolateUntPts */
MPPEM[ ]	/* MeasurePixelPerEm */
GTEQ[ ]	/* GreaterThanOrEqual */
IF[ ]	/* If */
SPVTL[1]	/* SetPVectorToLine */
SRP0[ ]	/* SetRefPoint0 */
SFVTCA[1]	/* SetFVectorToAxis */
MDRP[01001]	/* MoveDirectRelPt */
SPVTL[1]	/* SetPVectorToLine */
SRP0[ ]	/* SetRefPoint0 */
SFVTL[0]	/* SetFVectorToLine */
MDRP[01001]	/* MoveDirectRelPt */
SPVTL[1]	/* SetPVectorToLine */
SRP0[ ]	/* SetRefPoint0 */
SFVTL[0]	/* SetFVectorToLine */
MDRP[01001]	/* MoveDirectRelPt */
SPVTL[1]	/* SetPVectorToLine */
SRP0[ ]	/* SetRefPoint0 */
SFVTCA[1]	/* SetFVectorToAxis */
MDRP[01001]	/* MoveDirectRelPt */
SPVTL[1]	/* SetPVectorToLine */
SRP0[ ]	/* SetRefPoint0 */
SFVTCA[1]	/* SetFVectorToAxis */
MDRP[01001]	/* MoveDirectRelPt */
SPVTL[1]	/* SetPVectorToLine */
SRP0[ ]	/* SetRefPoint0 */
SFVTL[0]	/* SetFVectorToLine */
MDRP[01001]	/* MoveDirectRelPt */
SPVTL[1]	/* SetPVectorToLine */
SRP0[ ]	/* SetRefPoint0 */
SFVTL[0]	/* SetFVectorToLine */
MDRP[01001]	/* MoveDirectRelPt */
SPVTL[1]	/* SetPVectorToLine */
SRP0[ ]	/* SetRefPoint0 */
SFVTCA[1]	/* SetFVectorToAxis */
MDRP[01001]	/* MoveDirectRelPt */
EIF[ ]	/* EndIf */
CLEAR[ ]	/* ClearStack */
SVTCA[1]	/* SetFreedomAndProjectionVectorToAxis */
MPPEM[ ]	/* MeasurePixelPerEm */
PUSHB[ ]	/* 1 value pushed */
10 
EQ[ ]	/* Equal */
IF[ ]	/* If */
PUSHW[ ]	/* 6 values pushed */
12 64 1 12 12 -64 
SHPIX[ ]	/* ShiftZoneByPixel */
SRP1[ ]	/* SetRefPoint1 */
SHZ[1]	/* ShiftZoneByLastPoint */
SHPIX[ ]	/* ShiftZoneByPixel */
EIF[ ]	/* EndIf */
SVTCA[1]	/* SetFreedomAndProjectionVectorToAxis */
MPPEM[ ]	/* MeasurePixelPerEm */
PUSHB[ ]	/* 1 value pushed */
14 
EQ[ ]	/* Equal */
MPPEM[ ]	/* MeasurePixelPerEm */
PUSHB[ ]	/* 1 value pushed */
15 
EQ[ ]	/* Equal */
OR[ ]	/* LogicalOr */
MPPEM[ ]	/* MeasurePixelPerEm */
PUSHB[ ]	/* 1 value pushed */
16 
EQ[ ]	/* Equal */
OR[ ]	/* LogicalOr */
MPPEM[ ]	/* MeasurePixelPerEm */
PUSHB[ ]	/* 1 value pushed */
17 
EQ[ ]	/* Equal */
OR[ ]	/* LogicalOr */
MPPEM[ ]	/* MeasurePixelPerEm */
PUSHB[ ]	/* 1 value pushed */
18 
EQ[ ]	/* Equal */
OR[ ]	/* LogicalOr */
MPPEM[ ]	/* MeasurePixelPerEm */
PUSHB[ ]	/* 1 value pushed */
19 
EQ[ ]	/* Equal */
OR[ ]	/* LogicalOr */
MPPEM[ ]	/* MeasurePixelPerEm */
PUSHB[ ]	/* 1 value pushed */
20 
EQ[ ]	/* Equal */
OR[ ]	/* LogicalOr */
MPPEM[ ]	/* MeasurePixelPerEm */
PUSHB[ ]	/* 1 value pushed */
21 
EQ[ ]	/* Equal */
OR[ ]	/* LogicalOr */
IF[ ]	/* If */
PUSHW[ ]	/* 6 values pushed */
12 -64 1 12 12 64 
SHPIX[ ]	/* ShiftZoneByPixel */
SRP1[ ]	/* SetRefPoint1 */
SHZ[1]	/* ShiftZoneByLastPoint */
SHPIX[ ]	/* ShiftZoneByPixel */
EIF[ ]	/* EndIf */
NPUSHB[ ]	/* 12 values pushed */
41 4 1 56 2 72 2 89 2 89 3 4 
DELTAP1[ ]	/* DeltaExceptionP1 */
SVTCA[0]	/* SetFreedomAndProjectionVectorToAxis */
DELTAP1[ ]	/* DeltaExceptionP1 */";
};
width = 1233;
}
);
note = x;
unicode = 120;
},
{
glyphname = y;
layers = (
{
layerId = m01;
shapes = (
{
closed = 1;
nodes = (
(948,1120,l),
(565,420,l),
(438,1120,l),
(141,1120,l),
(358,45,l),
(319,-29,ls),
(259,-141,o),
(159,-201,o),
(72,-201,qs),
(-45,-201,l),
(-90,-424,l),
(150,-424,ls),
(276,-424,o),
(439,-319,o),
(551,-121,qs),
(1257,1120,l)
);
}
);
userData = {
assembly = "NPUSHB[ ]	/* 65 values pushed */
10 11 10 0 15 6 7 8 3 5 9 0 0 15 14 15 0 15 13 12 13 0 0 15 13 14 13 10 11 10 12 11 11 10 52 13 11 9 16 0 11 5 100 3 102 14 11 101 16 14 13 12 11 10 9 6 0 3 9 15 5 16 15 4 16 
SRP0[ ]	/* SetRefPoint0 */
MDRP[10100]	/* MoveDirectRelPt */
MDRP[01100]	/* MoveDirectRelPt */
SRP2[ ]	/* SetRefPoint2 */
IP[ ]	/* InterpolatePts */
SRP1[ ]	/* SetRefPoint1 */
SLOOP[ ]	/* SetLoopVariable */
IP[ ]	/* InterpolatePts */
IUP[1]	/* InterpolateUntPts */
SVTCA[0]	/* SetFreedomAndProjectionVectorToAxis */
SRP0[ ]	/* SetRefPoint0 */
MIRP[00100]	/* MoveIndirectRelPt */
SHP[0]	/* ShiftPointByLastPoint */
MIRP[10100]	/* MoveIndirectRelPt */
MIRP[01100]	/* MoveIndirectRelPt */
SRP1[ ]	/* SetRefPoint1 */
IP[ ]	/* InterpolatePts */
SRP1[ ]	/* SetRefPoint1 */
IP[ ]	/* InterpolatePts */
SRP2[ ]	/* SetRefPoint2 */
IP[ ]	/* InterpolatePts */
IUP[0]	/* InterpolateUntPts */
MPPEM[ ]	/* MeasurePixelPerEm */
GTEQ[ ]	/* GreaterThanOrEqual */
IF[ ]	/* If */
SPVTL[1]	/* SetPVectorToLine */
SRP0[ ]	/* SetRefPoint0 */
SFVTCA[1]	/* SetFVectorToAxis */
MDRP[01001]	/* MoveDirectRelPt */
SPVTL[1]	/* SetPVectorToLine */
SRP0[ ]	/* SetRefPoint0 */
SFVTL[0]	/* SetFVectorToLine */
MDRP[01001]	/* MoveDirectRelPt */
SPVTL[1]	/* SetPVectorToLine */
SRP0[ ]	/* SetRefPoint0 */
SFVTL[0]	/* SetFVectorToLine */
MDRP[01001]	/* MoveDirectRelPt */
SPVTL[1]	/* SetPVectorToLine */
SRP0[ ]	/* SetRefPoint0 */
SFVTCA[1]	/* SetFVectorToAxis */
MDRP[01001]	/* MoveDirectRelPt */
SPVTL[1]	/* SetPVectorToLine */
SRP0[ ]	/* SetRefPoint0 */
SFVTCA[1]	/* SetFVectorToAxis */
MDRP[01001]	/* MoveDirectRelPt */
SRP1[ ]	/* SetRefPoint1 */
SLOOP[ ]	/* SetLoopVariable */
IP[ ]	/* InterpolatePts */
SPVTL[1]	/* SetPVectorToLine */
SFVTL[0]	/* SetFVectorToLine */
MDRP[01001]	/* MoveDirectRelPt */
EIF[ ]	/* EndIf */
CLEAR[ ]	/* ClearStack */
SVTCA[1]	/* SetFreedomAndProjectionVectorToAxis */
MPPEM[ ]	/* MeasurePixelPerEm */
PUSHB[ ]	/* 1 value pushed */
10 
EQ[ ]	/* Equal */
IF[ ]	/* If */
PUSHW[ ]	/* 6 values pushed */
16 64 1 16 16 -64 
SHPIX[ ]	/* ShiftZoneByPixel */
SRP1[ ]	/* SetRefPoint1 */
SHZ[1]	/* ShiftZoneByLastPoint */
SHPIX[ ]	/* ShiftZoneByPixel */
EIF[ ]	/* EndIf */
SVTCA[1]	/* SetFreedomAndProjectionVectorToAxis */
MPPEM[ ]	/* MeasurePixelPerEm */
PUSHB[ ]	/* 1 value pushed */
12 
EQ[ ]	/* Equal */
MPPEM[ ]	/* MeasurePixelPerEm */
PUSHB[ ]	/* 1 value pushed */
13 
EQ[ ]	/* Equal */
OR[ ]	/* LogicalOr */
MPPEM[ ]	/* MeasurePixelPerEm */
PUSHB[ ]	/* 1 value pushed */
14 
EQ[ ]	/* Equal */
OR[ ]	/* LogicalOr */
MPPEM[ ]	/* MeasurePixelPerEm */
PUSHB[ ]	/* 1 value pushed */
17 
EQ[ ]	/* Equal */
OR[ ]	/* LogicalOr */
IF[ ]	/* If */
PUSHW[ ]	/* 6 values pushed */
16 -64 1 16 16 64 
SHPIX[ ]	/* ShiftZoneByPixel */
SRP1[ ]	/* SetRefPoint1 */
SHZ[1]	/* ShiftZoneByLastPoint */
SHPIX[ ]	/* ShiftZoneByPixel */
EIF[ ]	/* EndIf */";
};
width = 1233;
}
);
note = y;
unicode = 121;
},
{
glyphname = z;
layers = (
{
layerId = m01;
shapes = (
{
closed = 1;
nodes = (
(801,901,l),
(94,229,l),
(49,0,l),
(969,0,l),
(1012,219,l),
(436,219,l),
(1143,891,l),
(1188,1120,l),
(293,1120,l),
(250,901,l)
);
}
);
userData = {
assembly = "NPUSHB[ ]	/* 26 values pushed */
3 7 8 7 8 2 3 2 52 8 100 0 101 3 100 5 9 8 5 4 3 0 6 1 6 10 
SRP0[ ]	/* SetRefPoint0 */
MDRP[10100]	/* MoveDirectRelPt */
MDRP[01100]	/* MoveDirectRelPt */
SLOOP[ ]	/* SetLoopVariable */
IP[ ]	/* InterpolatePts */
IUP[1]	/* InterpolateUntPts */
SVTCA[0]	/* SetFreedomAndProjectionVectorToAxis */
MDAP[1]	/* MoveDirectAbsPt */
MIRP[01100]	/* MoveIndirectRelPt */
MIRP[10100]	/* MoveIndirectRelPt */
MIRP[01100]	/* MoveIndirectRelPt */
IUP[0]	/* InterpolateUntPts */
MPPEM[ ]	/* MeasurePixelPerEm */
GTEQ[ ]	/* GreaterThanOrEqual */
IF[ ]	/* If */
SPVTL[1]	/* SetPVectorToLine */
SRP0[ ]	/* SetRefPoint0 */
SFVTCA[1]	/* SetFVectorToAxis */
MDRP[01001]	/* MoveDirectRelPt */
SPVTL[1]	/* SetPVectorToLine */
SRP0[ ]	/* SetRefPoint0 */
SFVTCA[1]	/* SetFVectorToAxis */
MDRP[01001]	/* MoveDirectRelPt */
EIF[ ]	/* EndIf */
CLEAR[ ]	/* ClearStack */
SVTCA[1]	/* SetFreedomAndProjectionVectorToAxis */
MPPEM[ ]	/* MeasurePixelPerEm */
PUSHB[ ]	/* 1 value pushed */
10 
EQ[ ]	/* Equal */
IF[ ]	/* If */
PUSHW[ ]	/* 6 values pushed */
10 64 1 10 10 -64 
SHPIX[ ]	/* ShiftZoneByPixel */
SRP1[ ]	/* SetRefPoint1 */
SHZ[1]	/* ShiftZoneByLastPoint */
SHPIX[ ]	/* ShiftZoneByPixel */
EIF[ ]	/* EndIf */
SVTCA[1]	/* SetFreedomAndProjectionVectorToAxis */
MPPEM[ ]	/* MeasurePixelPerEm */
PUSHB[ ]	/* 1 value pushed */
15 
EQ[ ]	/* Equal */
MPPEM[ ]	/* MeasurePixelPerEm */
PUSHB[ ]	/* 1 value pushed */
16 
EQ[ ]	/* Equal */
OR[ ]	/* LogicalOr */
MPPEM[ ]	/* MeasurePixelPerEm */
PUSHB[ ]	/* 1 value pushed */
17 
EQ[ ]	/* Equal */
OR[ ]	/* LogicalOr */
MPPEM[ ]	/* MeasurePixelPerEm */
PUSHB[ ]	/* 1 value pushed */
18 
EQ[ ]	/* Equal */
OR[ ]	/* LogicalOr */
MPPEM[ ]	/* MeasurePixelPerEm */
PUSHB[ ]	/* 1 value pushed */
19 
EQ[ ]	/* Equal */
OR[ ]	/* LogicalOr */
MPPEM[ ]	/* MeasurePixelPerEm */
PUSHB[ ]	/* 1 value pushed */
20 
EQ[ ]	/* Equal */
OR[ ]	/* LogicalOr */
IF[ ]	/* If */
PUSHW[ ]	/* 6 values pushed */
10 -64 1 10 10 64 
SHPIX[ ]	/* ShiftZoneByPixel */
SRP1[ ]	/* SetRefPoint1 */
SHZ[1]	/* ShiftZoneByLastPoint */
SHPIX[ ]	/* ShiftZoneByPixel */
EIF[ ]	/* EndIf */";
};
width = 1233;
}
);
note = z;
unicode = 122;
},
{
glyphname = braceleft;
layers = (
{
layerId = m01;
shapes = (
{
closed = 1;
nodes = (
(678,-143,o),
(610,-92,o),
(610,-33,qs),
(610,-16,o),
(618,40,o),
(627,86,qs),
(668,291,ls),
(676,330,o),
(684,399,o),
(684,428,qs),
(684,504,o),
(601,591,o),
(506,612,q),
(636,629,o),
(761,763,o),
(793,930,qs),
(831,1139,ls),
(858,1280,o),
(947,1366,o),
(1051,1366,qs),
(1174,1366,l),
(1210,1556,l),
(1061,1556,ls),
(801,1556,o),
(614,1412,o),
(571,1188,qs),
(530,973,ls),
(500,817,o),
(372,707,o),
(229,707,qs),
(168,707,l),
(131,516,l),
(193,516,ls),
(312,516,o),
(408,455,o),
(408,379,qs),
(408,359,o),
(400,298,o),
(391,250,qs),
(348,35,ls),
(337,-21,o),
(330,-77,o),
(330,-100,qs),
(330,-225,o),
(498,-334,o),
(694,-334,qs),
(842,-334,l),
(879,-143,l),
(758,-143,ls)
);
}
);
userData = {
assembly = "NPUSHB[ ]	/* 102 values pushed */
34 33 2 35 32 15 21 22 21 28 29 30 3 27 31 15 22 22 21 48 47 46 45 44 43 6 0 42 15 8 9 8 36 37 38 39 40 5 35 41 15 9 9 8 52 31 21 27 17 9 49 15 32 22 27 35 17 8 41 42 3 0 17 87 15 0 87 1 27 87 15 25 71 49 17 16 49 48 45 42 41 38 35 32 31 28 27 25 22 9 8 2 1 0 17 26 12 21 26 5 5 49 
SRP0[ ]	/* SetRefPoint0 */
MDRP[00100]	/* MoveDirectRelPt */
SRP0[ ]	/* SetRefPoint0 */
MDRP[00000]	/* MoveDirectRelPt */
MDRP[00000]	/* MoveDirectRelPt */
MDRP[00000]	/* MoveDirectRelPt */
SRP2[ ]	/* SetRefPoint2 */
SLOOP[ ]	/* SetLoopVariable */
IP[ ]	/* InterpolatePts */
SRP2[ ]	/* SetRefPoint2 */
IP[ ]	/* InterpolatePts */
IP[ ]	/* InterpolatePts */
IUP[1]	/* InterpolateUntPts */
SVTCA[0]	/* SetFreedomAndProjectionVectorToAxis */
SRP0[ ]	/* SetRefPoint0 */
MIRP[11100]	/* MoveIndirectRelPt */
MDRP[00100]	/* MoveDirectRelPt */
MIRP[01100]	/* MoveIndirectRelPt */
MDRP[10100]	/* MoveDirectRelPt */
MIRP[01100]	/* MoveIndirectRelPt */
SRP0[ ]	/* SetRefPoint0 */
MIRP[01110]	/* MoveIndirectRelPt */
SRP2[ ]	/* SetRefPoint2 */
SLOOP[ ]	/* SetLoopVariable */
IP[ ]	/* InterpolatePts */
SRP2[ ]	/* SetRefPoint2 */
IP[ ]	/* InterpolatePts */
SRP1[ ]	/* SetRefPoint1 */
IP[ ]	/* InterpolatePts */
IP[ ]	/* InterpolatePts */
SRP1[ ]	/* SetRefPoint1 */
SRP2[ ]	/* SetRefPoint2 */
IP[ ]	/* InterpolatePts */
SRP1[ ]	/* SetRefPoint1 */
SRP2[ ]	/* SetRefPoint2 */
IP[ ]	/* InterpolatePts */
IP[ ]	/* InterpolatePts */
IUP[0]	/* InterpolateUntPts */
MPPEM[ ]	/* MeasurePixelPerEm */
GTEQ[ ]	/* GreaterThanOrEqual */
IF[ ]	/* If */
SPVTL[1]	/* SetPVectorToLine */
SRP0[ ]	/* SetRefPoint0 */
SFVTCA[1]	/* SetFVectorToAxis */
MIRP[01101]	/* MoveIndirectRelPt */
SRP1[ ]	/* SetRefPoint1 */
SLOOP[ ]	/* SetLoopVariable */
IP[ ]	/* InterpolatePts */
SPVTL[1]	/* SetPVectorToLine */
SRP0[ ]	/* SetRefPoint0 */
SFVTCA[1]	/* SetFVectorToAxis */
MIRP[01101]	/* MoveIndirectRelPt */
SRP1[ ]	/* SetRefPoint1 */
SLOOP[ ]	/* SetLoopVariable */
IP[ ]	/* InterpolatePts */
SPVTL[1]	/* SetPVectorToLine */
SRP0[ ]	/* SetRefPoint0 */
SFVTCA[1]	/* SetFVectorToAxis */
MIRP[01101]	/* MoveIndirectRelPt */
SRP1[ ]	/* SetRefPoint1 */
SLOOP[ ]	/* SetLoopVariable */
IP[ ]	/* InterpolatePts */
SPVTL[1]	/* SetPVectorToLine */
SRP0[ ]	/* SetRefPoint0 */
SFVTCA[1]	/* SetFVectorToAxis */
MIRP[01101]	/* MoveIndirectRelPt */
SRP1[ ]	/* SetRefPoint1 */
SLOOP[ ]	/* SetLoopVariable */
IP[ ]	/* InterpolatePts */
EIF[ ]	/* EndIf */
CLEAR[ ]	/* ClearStack */";
};
width = 1233;
}
);
note = braceleft;
unicode = 123;
},
{
glyphname = bar;
layers = (
{
layerId = m01;
shapes = (
{
closed = 1;
nodes = (
(502,-483,l),
(729,-483,l),
(729,1565,l),
(502,1565,l)
);
}
);
userData = {
assembly = "PUSHB[ ]	/* 7 values pushed */
1 0 107 4 0 2 4 
SRP0[ ]	/* SetRefPoint0 */
MDRP[10100]	/* MoveDirectRelPt */
MDRP[01100]	/* MoveDirectRelPt */
IUP[1]	/* InterpolateUntPts */
SVTCA[0]	/* SetFreedomAndProjectionVectorToAxis */
SRP0[ ]	/* SetRefPoint0 */
MIRP[11100]	/* MoveIndirectRelPt */
MDRP[01100]	/* MoveDirectRelPt */
IUP[0]	/* InterpolateUntPts */";
};
width = 1233;
}
);
note = bar;
unicode = 124;
},
